  0
SECTION
  2
HEADER
  9
$ACADVER
  1
AC1014
  9
$ACADMAINTVER
 70
     9
  9
$DWGCODEPAGE
  3
ANSI_1252
  9
$INSBASE
 10
0.0
 20
0.0
 30
0.0
  9
$EXTMIN
 10
4.052666856006816
 20
3.613854018744675
 30
0.0
  9
$EXTMAX
 10
371.0526668560068
 20
370.6138540187449
 30
0.0000648498535156
  9
$LIMMIN
 10
0.0
 20
0.0
  9
$LIMMAX
 10
12.0
 20
9.0
  9
$ORTHOMODE
 70
     1
  9
$REGENMODE
 70
     1
  9
$FILLMODE
 70
     1
  9
$QTEXTMODE
 70
     0
  9
$MIRRTEXT
 70
     0
  9
$DRAGMODE
 70
     2
  9
$LTSCALE
 40
1.0
  9
$OSMODE
 70
    55
  9
$ATTMODE
 70
     1
  9
$TEXTSIZE
 40
0.2
  9
$TRACEWID
 40
0.05
  9
$TEXTSTYLE
  7
STANDARD
  9
$CLAYER
  8
CORTE
  9
$CELTYPE
  6
BYLAYER
  9
$CECOLOR
 62
   256
  9
$CELTSCALE
 40
1.0
  9
$DELOBJ
 70
     1
  9
$DISPSILH
 70
     0
  9
$DIMSCALE
 40
1.0
  9
$DIMASZ
 40
0.18
  9
$DIMEXO
 40
0.0625
  9
$DIMDLI
 40
0.38
  9
$DIMRND
 40
0.0
  9
$DIMDLE
 40
0.0
  9
$DIMEXE
 40
0.18
  9
$DIMTP
 40
0.0
  9
$DIMTM
 40
0.0
  9
$DIMTXT
 40
0.18
  9
$DIMCEN
 40
0.09
  9
$DIMTSZ
 40
0.0
  9
$DIMTOL
 70
     0
  9
$DIMLIM
 70
     0
  9
$DIMTIH
 70
     1
  9
$DIMTOH
 70
     1
  9
$DIMSE1
 70
     0
  9
$DIMSE2
 70
     0
  9
$DIMTAD
 70
     0
  9
$DIMZIN
 70
     0
  9
$DIMBLK
  1

  9
$DIMASO
 70
     1
  9
$DIMSHO
 70
     1
  9
$DIMPOST
  1

  9
$DIMAPOST
  1

  9
$DIMALT
 70
     0
  9
$DIMALTD
 70
     2
  9
$DIMALTF
 40
25.4
  9
$DIMLFAC
 40
1.0
  9
$DIMTOFL
 70
     0
  9
$DIMTVP
 40
0.0
  9
$DIMTIX
 70
     0
  9
$DIMSOXD
 70
     0
  9
$DIMSAH
 70
     0
  9
$DIMBLK1
  1

  9
$DIMBLK2
  1

  9
$DIMSTYLE
  2
STANDARD
  9
$DIMCLRD
 70
     0
  9
$DIMCLRE
 70
     0
  9
$DIMCLRT
 70
     0
  9
$DIMTFAC
 40
1.0
  9
$DIMGAP
 40
0.09
  9
$DIMJUST
 70
     0
  9
$DIMSD1
 70
     0
  9
$DIMSD2
 70
     0
  9
$DIMTOLJ
 70
     1
  9
$DIMTZIN
 70
     0
  9
$DIMALTZ
 70
     0
  9
$DIMALTTZ
 70
     0
  9
$DIMFIT
 70
     3
  9
$DIMUPT
 70
     0
  9
$DIMUNIT
 70
     2
  9
$DIMDEC
 70
     4
  9
$DIMTDEC
 70
     4
  9
$DIMALTU
 70
     2
  9
$DIMALTTD
 70
     2
  9
$DIMTXSTY
  7
STANDARD
  9
$DIMAUNIT
 70
     0
  9
$LUNITS
 70
     2
  9
$LUPREC
 70
     4
  9
$SKETCHINC
 40
0.1
  9
$FILLETRAD
 40
0.0
  9
$AUNITS
 70
     0
  9
$AUPREC
 70
     0
  9
$MENU
  1
.
  9
$ELEVATION
 40
0.0
  9
$PELEVATION
 40
0.0
  9
$THICKNESS
 40
0.0
  9
$LIMCHECK
 70
     0
  9
$CHAMFERA
 40
0.0
  9
$CHAMFERB
 40
0.0
  9
$CHAMFERC
 40
0.0
  9
$CHAMFERD
 40
0.0
  9
$SKPOLY
 70
     0
  9
$TDCREATE
 40
2452642.813384259
  9
$TDUPDATE
 40
2457193.538611111
  9
$TDINDWG
 40
0.0005800463
  9
$TDUSRTIMER
 40
2457193.787627315
  9
$USRTIMER
 70
     1
  9
$ANGBASE
 50
0.0
  9
$ANGDIR
 70
     0
  9
$PDMODE
 70
     0
  9
$PDSIZE
 40
0.0
  9
$PLINEWID
 40
0.0
  9
$COORDS
 70
     1
  9
$SPLFRAME
 70
     0
  9
$SPLINETYPE
 70
     6
  9
$SPLINESEGS
 70
     8
  9
$ATTDIA
 70
     0
  9
$ATTREQ
 70
     1
  9
$HANDLING
 70
     1
  9
$HANDSEED
  5
24E
  9
$SURFTAB1
 70
     6
  9
$SURFTAB2
 70
     6
  9
$SURFTYPE
 70
     6
  9
$SURFU
 70
     6
  9
$SURFV
 70
     6
  9
$UCSNAME
  2

  9
$UCSORG
 10
0.0
 20
0.0
 30
0.0
  9
$UCSXDIR
 10
1.0
 20
0.0
 30
0.0
  9
$UCSYDIR
 10
0.0
 20
1.0
 30
0.0
  9
$PUCSNAME
  2

  9
$PUCSORG
 10
0.0
 20
0.0
 30
0.0
  9
$PUCSXDIR
 10
1.0
 20
0.0
 30
0.0
  9
$PUCSYDIR
 10
0.0
 20
1.0
 30
0.0
  9
$USERI1
 70
     0
  9
$USERI2
 70
     0
  9
$USERI3
 70
     0
  9
$USERI4
 70
     0
  9
$USERI5
 70
     0
  9
$USERR1
 40
0.0
  9
$USERR2
 40
0.0
  9
$USERR3
 40
0.0
  9
$USERR4
 40
0.0
  9
$USERR5
 40
0.0
  9
$WORLDVIEW
 70
     1
  9
$SHADEDGE
 70
     3
  9
$SHADEDIF
 70
    70
  9
$TILEMODE
 70
     1
  9
$MAXACTVP
 70
    64
  9
$PINSBASE
 10
0.0
 20
0.0
 30
0.0
  9
$PLIMCHECK
 70
     0
  9
$PEXTMIN
 10
0.0
 20
0.0
 30
0.0
  9
$PEXTMAX
 10
0.0
 20
0.0
 30
0.0
  9
$PLIMMIN
 10
0.0
 20
0.0
  9
$PLIMMAX
 10
0.0
 20
0.0
  9
$UNITMODE
 70
     0
  9
$VISRETAIN
 70
     1
  9
$PLINEGEN
 70
     0
  9
$PSLTSCALE
 70
     1
  9
$TREEDEPTH
 70
  3020
  9
$PICKSTYLE
 70
     1
  9
$CMLSTYLE
  2
STANDARD
  9
$CMLJUST
 70
     0
  9
$CMLSCALE
 40
1.0
  9
$PROXYGRAPHICS
 70
     1
  9
$MEASUREMENT
 70
     0
  0
ENDSEC
  0
SECTION
  2
CLASSES
  0
CLASS
  1
ACDBDICTIONARYWDFLT
  2
AcDbDictionaryWithDefault
  3
ObjectDBX Classes
 90
        0
280
     0
281
     0
  0
CLASS
  1
ACDBPLACEHOLDER
  2
AcDbPlaceHolder
  3
ObjectDBX Classes
 90
        0
280
     0
281
     0
  0
CLASS
  1
LAYOUT
  2
AcDbLayout
  3
ObjectDBX Classes
 90
        0
280
     0
281
     0
  0
CLASS
  1
DICTIONARYVAR
  2
AcDbDictionaryVar
  3
ObjectDBX Classes
 90
        0
280
     0
281
     0
  0
CLASS
  1
TABLESTYLE
  2
AcDbTableStyle
  3
ObjectDBX Classes
 90
     4095
280
     0
281
     0
  0
CLASS
  1
MATERIAL
  2
AcDbMaterial
  3
ObjectDBX Classes
 90
     1153
280
     0
281
     0
  0
CLASS
  1
VISUALSTYLE
  2
AcDbVisualStyle
  3
ObjectDBX Classes
 90
     4095
280
     0
281
     0
  0
CLASS
  1
SCALE
  2
AcDbScale
  3
ObjectDBX Classes
 90
     1153
280
     0
281
     0
  0
CLASS
  1
CELLSTYLEMAP
  2
AcDbCellStyleMap
  3
ObjectDBX Classes
 90
     1152
280
     0
281
     0
  0
CLASS
  1
RASTERVARIABLES
  2
AcDbRasterVariables
  3
ISM
 90
        0
280
     0
281
     0
  0
CLASS
  1
SUN
  2
AcDbSun
  3
SCENEOE
 90
     1153
280
     0
281
     0
  0
CLASS
  1
MLEADERSTYLE
  2
AcDbMLeaderStyle
  3
ACDB_MLEADERSTYLE_CLASS
 90
     4095
280
     0
281
     0
  0
CLASS
  1
SORTENTSTABLE
  2
AcDbSortentsTable
  3
ObjectDBX Classes
 90
        0
280
     0
281
     0
  0
CLASS
  1
XRECORD
  2
AcDbXrecord
  3
ObjectDBX Classes
 90
        0
280
     0
281
     0
  0
CLASS
  1
LWPOLYLINE
  2
AcDbPolyline
  3
ObjectDBX Classes
 90
        0
280
     0
281
     1
  0
CLASS
  1
HATCH
  2
AcDbHatch
  3
ObjectDBX Classes
 90
        0
280
     0
281
     1
  0
ENDSEC
  0
SECTION
  2
TABLES
  0
TABLE
  2
VPORT
  5
8
330
0
100
AcDbSymbolTable
 70
     1
  0
VPORT
  5
94
330
8
100
AcDbSymbolTableRecord
100
AcDbViewportTableRecord
  2
*ACTIVE
 70
     0
 10
0.0
 20
0.0
 11
1.0
 21
1.0
 12
113.348634724768
 22
342.0446938357318
 13
0.0
 23
0.0
 14
0.5
 24
0.5
 15
0.5
 25
0.5
 16
0.0
 26
0.0
 36
1.0
 17
-27.66959356597984
 27
-19.53870295786203
 37
0.0
 40
309.9987123781585
 41
1.98586118251928
 42
50.0
 43
0.0
 44
0.0
 50
0.0
 51
0.0
 71
    16
 72
  1000
 73
     1
 74
     3
 75
     0
 76
     0
 77
     0
 78
     0
  0
ENDTAB
  0
TABLE
  2
LTYPE
  5
5
330
0
100
AcDbSymbolTable
 70
     1
  0
LTYPE
  5
14
330
5
100
AcDbSymbolTableRecord
100
AcDbLinetypeTableRecord
  2
BYBLOCK
 70
     0
  3

 72
    65
 73
     0
 40
0.0
  0
LTYPE
  5
15
330
5
100
AcDbSymbolTableRecord
100
AcDbLinetypeTableRecord
  2
BYLAYER
 70
     0
  3

 72
    65
 73
     0
 40
0.0
  0
LTYPE
  5
16
330
5
100
AcDbSymbolTableRecord
100
AcDbLinetypeTableRecord
  2
CONTINUOUS
 70
     0
  3
Solid line
 72
    65
 73
     0
 40
0.0
  0
ENDTAB
  0
TABLE
  2
LAYER
  5
2
102
{ACAD_XDICTIONARY
360
1B2
102
}
330
0
100
AcDbSymbolTable
 70
     3
  0
LAYER
  5
10
330
2
100
AcDbSymbolTableRecord
100
AcDbLayerTableRecord
  2
0
 70
     0
 62
     7
  6
CONTINUOUS
  0
LAYER
  5
126
330
2
100
AcDbSymbolTableRecord
100
AcDbLayerTableRecord
  2
READY_TO_CUT
 70
     0
 62
    30
  6
CONTINUOUS
1001
ACAECLAYERSTANDARD
1000

1000

  0
LAYER
  5
129
330
2
100
AcDbSymbolTableRecord
100
AcDbLayerTableRecord
  2
CORTE
 70
     0
 62
     1
  6
CONTINUOUS
1001
ACAECLAYERSTANDARD
1000

1000

  0
ENDTAB
  0
TABLE
  2
STYLE
  5
3
330
0
100
AcDbSymbolTable
 70
     1
  0
STYLE
  5
11
330
3
100
AcDbSymbolTableRecord
100
AcDbTextStyleTableRecord
  2
STANDARD
 70
     0
 40
0.0
 41
1.0
 50
0.0
 71
     0
 42
0.2
  3
arial.ttf
  4

1001
ACAD
1000
Arial
1071
        0
  0
ENDTAB
  0
TABLE
  2
VIEW
  5
6
330
0
100
AcDbSymbolTable
 70
     0
  0
ENDTAB
  0
TABLE
  2
UCS
  5
7
330
0
100
AcDbSymbolTable
 70
     0
  0
ENDTAB
  0
TABLE
  2
APPID
  5
9
330
0
100
AcDbSymbolTable
 70
     2
  0
APPID
  5
12
330
9
100
AcDbSymbolTableRecord
100
AcDbRegAppTableRecord
  2
ACAD
 70
     0
  0
APPID
  5
128
330
9
100
AcDbSymbolTableRecord
100
AcDbRegAppTableRecord
  2
ACAECLAYERSTANDARD
 70
     0
  0
ENDTAB
  0
TABLE
  2
DIMSTYLE
  5
A
330
0
100
AcDbSymbolTable
 70
     2
  0
DIMSTYLE
105
27
330
A
100
AcDbSymbolTableRecord
100
AcDbDimStyleTableRecord
  2
STANDARD
 70
     0
  3

  4

  5

  6

  7

 40
1.0
 41
0.18
 42
0.0625
 43
0.38
 44
0.18
 45
0.0
 46
0.0
 47
0.0
 48
0.0
140
0.18
141
0.09
142
0.0
143
25.4
144
1.0
145
0.0
146
1.0
147
0.09
 71
     0
 72
     0
 73
     1
 74
     1
 75
     0
 76
     0
 77
     0
 78
     0
170
     0
171
     2
172
     0
173
     0
174
     0
175
     0
176
     0
177
     0
178
     0
270
     2
271
     4
272
     4
273
     2
274
     2
340
11
275
     0
280
     0
281
     0
282
     0
283
     1
284
     0
285
     0
286
     0
287
     3
288
     0
  0
DIMSTYLE
105
12A
330
A
100
AcDbSymbolTableRecord
100
AcDbDimStyleTableRecord
  2
ISO-25
 70
     0
  3

  4

  5

  6

  7

 40
1.0
 41
2.5
 42
0.625
 43
3.75
 44
1.25
 45
0.0
 46
0.0
 47
0.0
 48
0.0
140
2.5
141
2.5
142
0.0
143
0.03937007874016
144
1.0
145
0.0
146
1.0
147
0.625
 71
     0
 72
     0
 73
     0
 74
     0
 75
     0
 76
     0
 77
     1
 78
     8
170
     0
171
     3
172
     1
173
     0
174
     0
175
     0
176
     0
177
     0
178
     0
270
     2
271
     2
272
     2
273
     2
274
     3
340
11
275
     0
280
     0
281
     0
282
     0
283
     0
284
     8
285
     0
286
     0
287
     3
288
     0
  0
ENDTAB
  0
TABLE
  2
BLOCK_RECORD
  5
1
330
0
100
AcDbSymbolTable
 70
     1
  0
BLOCK_RECORD
  5
1F
330
1
100
AcDbSymbolTableRecord
100
AcDbBlockTableRecord
  2
*MODEL_SPACE
  0
BLOCK_RECORD
  5
58
330
1
100
AcDbSymbolTableRecord
100
AcDbBlockTableRecord
  2
*PAPER_SPACE
  0
BLOCK_RECORD
  5
5D
330
1
100
AcDbSymbolTableRecord
100
AcDbBlockTableRecord
  2
*PAPER_SPACE0
  0
ENDTAB
  0
ENDSEC
  0
SECTION
  2
BLOCKS
  0
BLOCK
  5
20
330
1F
100
AcDbEntity
  8
0
100
AcDbBlockBegin
  2
*MODEL_SPACE
 70
     0
 10
0.0
 20
0.0
 30
0.0
  3
*MODEL_SPACE
  1

  0
ENDBLK
  5
21
330
1F
100
AcDbEntity
  8
0
100
AcDbBlockEnd
  0
BLOCK
  5
5A
330
58
100
AcDbEntity
 67
     1
  8
0
100
AcDbBlockBegin
  2
*PAPER_SPACE
 70
     0
 10
0.0
 20
0.0
 30
0.0
  3
*PAPER_SPACE
  1

  0
ENDBLK
  5
5B
330
58
100
AcDbEntity
 67
     1
  8
0
100
AcDbBlockEnd
  0
BLOCK
  5
5F
330
5D
100
AcDbEntity
  8
0
100
AcDbBlockBegin
  2
*PAPER_SPACE0
 70
     0
 10
0.0
 20
0.0
 30
0.0
  3
*PAPER_SPACE0
  1
*Paper_Space0
  0
ENDBLK
  5
60
330
5D
100
AcDbEntity
  8
0
100
AcDbBlockEnd
  0
ENDSEC
  0
SECTION
  2
ENTITIES
  0
LINE
  5
1B7
330
1F
100
AcDbEntity
  8
READY_TO_CUT
 62
     1
100
AcDbLine
 10
371.0526668560068
 20
306.1138540187448
 30
0.0
 11
371.0526668560068
 21
24.11385401874468
 31
0.0
  0
LINE
  5
1B8
330
1F
100
AcDbEntity
  8
READY_TO_CUT
 62
     1
100
AcDbLine
 10
350.5526668560059
 20
24.11385401874468
 30
0.0
 11
371.0526668560068
 21
24.11385401874468
 31
0.0
  0
LINE
  5
1B9
330
1F
100
AcDbEntity
  8
READY_TO_CUT
 62
     1
100
AcDbLine
 10
350.5526668560059
 20
3.613854018744675
 30
0.0
 11
350.5526668560059
 21
24.11385401874468
 31
0.0
  0
CIRCLE
  5
1BA
330
1F
100
AcDbEntity
  8
READY_TO_CUT
 62
     1
100
AcDbCircle
 10
322.5526668560059
 20
12.11385401874422
 30
0.0
 40
2.4
  0
CIRCLE
  5
1BB
330
1F
100
AcDbEntity
  8
READY_TO_CUT
 62
     1
100
AcDbCircle
 10
362.5526668560059
 20
52.11385401874365
 30
0.0
 40
2.4
  0
LINE
  5
1BC
330
1F
100
AcDbEntity
  8
READY_TO_CUT
  6
BYBLOCK
 62
     1
100
AcDbLine
 10
292.2927869100694
 20
41.9956975684684
 30
0.0000648498535156
 11
292.2927869100694
 21
34.50077215983167
 31
0.0000648498535156
  0
ARC
  5
1BD
330
1F
100
AcDbEntity
  8
READY_TO_CUT
  6
BYBLOCK
 62
     1
100
AcDbCircle
 10
292.2927869100694
 20
47.19184999117503
 30
0.0000648498535156
 40
3.0
100
AcDbArc
 50
299.9999999999998
 51
0.0
  0
ARC
  5
1BE
330
1F
100
AcDbEntity
  8
READY_TO_CUT
  6
BYBLOCK
 62
     1
100
AcDbCircle
 10
295.2927869100694
 20
41.9956975684684
 30
0.0000648498535156
 40
3.0
100
AcDbArc
 50
119.9999999999999
 51
180.0
  0
LINE
  5
1BF
330
1F
100
AcDbEntity
  8
READY_TO_CUT
  6
BYBLOCK
 62
     1
100
AcDbLine
 10
292.2927869100694
 20
41.9956975684684
 30
0.0000648498535156
 11
292.2927869100694
 21
26.02204410305369
 31
0.0000648498535156
  0
LINE
  5
1C0
330
1F
100
AcDbEntity
  8
READY_TO_CUT
  6
BYBLOCK
 62
     1
100
AcDbLine
 10
333.6027873296861
 20
41.9956975684684
 30
0.0000648498535156
 11
333.6027873296861
 21
26.02204410305369
 31
0.0000648498535156
  0
ARC
  5
1C1
330
1F
100
AcDbEntity
  8
READY_TO_CUT
  6
BYBLOCK
 62
     1
100
AcDbCircle
 10
333.6027873296861
 20
47.19184999117503
 30
0.0000648498535156
 40
3.0
100
AcDbArc
 50
180.0
 51
240.0000000000001
  0
ARC
  5
1C2
330
1F
100
AcDbEntity
  8
READY_TO_CUT
  6
BYBLOCK
 62
     1
100
AcDbCircle
 10
330.6027873296861
 20
41.9956975684684
 30
0.0000648498535156
 40
3.0
100
AcDbArc
 50
0.0
 51
60.00000000000889
  0
LINE
  5
1C3
330
1F
100
AcDbEntity
  8
READY_TO_CUT
  6
BYBLOCK
 62
     1
100
AcDbLine
 10
330.6027873296861
 20
64.5648742446205
 30
0.0000648498535156
 11
330.6027873296861
 21
47.19184999117503
 31
0.0000648498535156
  0
ARC
  5
1C4
330
1F
100
AcDbEntity
  8
READY_TO_CUT
  6
BYBLOCK
 62
     1
100
AcDbCircle
 10
329.6027873296861
 20
64.56487424462038
 30
0.0000648498535156
 40
1.0
100
AcDbArc
 50
0.0
 51
90.0
  0
LINE
  5
1C5
330
1F
100
AcDbEntity
  8
READY_TO_CUT
  6
BYBLOCK
 62
     1
100
AcDbLine
 10
329.6027873296861
 20
65.56487424462038
 30
0.0000648498535156
 11
296.2927869100694
 21
65.56487424462038
 31
0.0000648498535156
  0
ARC
  5
1C6
330
1F
100
AcDbEntity
  8
READY_TO_CUT
  6
BYBLOCK
 62
     1
100
AcDbCircle
 10
296.2927869100694
 20
64.56487424462038
 30
0.0000648498535156
 40
1.0
100
AcDbArc
 50
90.0
 51
180.0
  0
LINE
  5
1C7
330
1F
100
AcDbEntity
  8
READY_TO_CUT
  6
BYBLOCK
 62
     1
100
AcDbLine
 10
295.2927869100694
 20
47.19184999117503
 30
0.0000648498535156
 11
295.2927869100694
 21
64.56487424462038
 31
0.0000648498535156
  0
ARC
  5
1C8
330
1F
100
AcDbEntity
  8
READY_TO_CUT
  6
BYBLOCK
 62
     1
100
AcDbCircle
 10
295.2927869100694
 20
26.02204410305369
 30
0.0000648498535156
 40
3.0
100
AcDbArc
 50
180.0
 51
270.0
  0
ARC
  5
1C9
330
1F
100
AcDbEntity
  8
READY_TO_CUT
  6
BYBLOCK
 62
     1
100
AcDbCircle
 10
330.6027873296861
 20
26.02204410305369
 30
0.0000648498535156
 40
3.0
100
AcDbArc
 50
270.0
 51
0.0
  0
LINE
  5
1CA
330
1F
100
AcDbEntity
  8
READY_TO_CUT
  6
BYBLOCK
 62
     1
100
AcDbLine
 10
330.6027873296861
 20
23.02204410305369
 30
0.0000648498535156
 11
295.2927869100694
 21
23.02204410305369
 31
0.0000648498535156
  0
LINE
  5
1CB
330
1F
100
AcDbEntity
  8
READY_TO_CUT
 62
     1
100
AcDbLine
 10
350.5526668560059
 20
3.613854018744675
 30
0.0
 11
24.55266685600591
 21
3.613854018744675
 31
0.0
  0
LINE
  5
1CC
330
1F
100
AcDbEntity
  8
READY_TO_CUT
 62
     1
100
AcDbLine
 10
24.55266685600591
 20
24.11385401874468
 30
0.0
 11
4.052666856006816
 21
24.11385401874468
 31
0.0
  0
LINE
  5
1CD
330
1F
100
AcDbEntity
  8
READY_TO_CUT
 62
     1
100
AcDbLine
 10
24.55266685600591
 20
3.613854018744675
 30
0.0
 11
24.55266685600591
 21
24.11385401874468
 31
0.0
  0
CIRCLE
  5
1CE
330
1F
100
AcDbEntity
  8
READY_TO_CUT
 62
     1
100
AcDbCircle
 10
12.55266685600591
 20
52.11385401874411
 30
0.0
 40
2.4
  0
ARC
  5
1CF
330
1F
100
AcDbEntity
  8
READY_TO_CUT
 62
     1
100
AcDbCircle
 10
143.2947198091223
 20
48.11385401874479
 30
0.0
 40
2.0
100
AcDbArc
 50
180.0
 51
0.0
  0
ARC
  5
1D0
330
1F
100
AcDbEntity
  8
READY_TO_CUT
 62
     1
100
AcDbCircle
 10
143.2947198091223
 20
52.11385401874479
 30
0.0
 40
2.0
100
AcDbArc
 50
0.0
 51
180.0
  0
LINE
  5
1D1
330
1F
100
AcDbEntity
  8
READY_TO_CUT
  6
BYBLOCK
 62
     1
100
AcDbLine
 10
141.2947198091223
 20
52.11385401874479
 30
0.0
 11
141.2947198091223
 21
48.11385401874479
 31
0.0
  0
LINE
  5
1D2
330
1F
100
AcDbEntity
  8
READY_TO_CUT
  6
BYBLOCK
 62
     1
100
AcDbLine
 10
145.2947198091223
 20
52.11385401874479
 30
0.0
 11
145.2947198091223
 21
48.11385401874479
 31
0.0
  0
ARC
  5
1D3
330
1F
100
AcDbEntity
  8
READY_TO_CUT
 62
     1
100
AcDbCircle
 10
31.05266685600682
 20
48.11385401874433
 30
0.0
 40
2.0
100
AcDbArc
 50
180.0
 51
0.0
  0
ARC
  5
1D4
330
1F
100
AcDbEntity
  8
READY_TO_CUT
 62
     1
100
AcDbCircle
 10
31.05266685600682
 20
52.11385401874433
 30
0.0
 40
2.0
100
AcDbArc
 50
0.0
 51
180.0
  0
LINE
  5
1D5
330
1F
100
AcDbEntity
  8
READY_TO_CUT
  6
BYBLOCK
 62
     1
100
AcDbLine
 10
29.05266685600682
 20
52.11385401874433
 30
0.0
 11
29.05266685600682
 21
48.11385401874433
 31
0.0
  0
LINE
  5
1D6
330
1F
100
AcDbEntity
  8
READY_TO_CUT
  6
BYBLOCK
 62
     1
100
AcDbLine
 10
33.05266685600682
 20
52.11385401874479
 30
0.0
 11
33.05266685600682
 21
48.11385401874479
 31
0.0
  0
LINE
  5
1D7
330
1F
100
AcDbEntity
  8
READY_TO_CUT
  6
BYBLOCK
 62
     1
100
AcDbLine
 10
45.50254638232573
 20
65.56487424462038
 30
0.0000648498535156
 11
78.81254680194243
 21
65.56487424462038
 31
0.0000648498535156
  0
ARC
  5
1D8
330
1F
100
AcDbEntity
  8
READY_TO_CUT
  6
BYBLOCK
 62
     1
100
AcDbCircle
 10
45.50254638232573
 20
64.56487424462038
 30
0.0000648498535156
 40
1.0
100
AcDbArc
 50
90.0
 51
180.0
  0
ARC
  5
1D9
330
1F
100
AcDbEntity
  8
READY_TO_CUT
  6
BYBLOCK
 62
     1
100
AcDbCircle
 10
78.81254680194243
 20
64.56487424462038
 30
0.0000648498535156
 40
1.0
100
AcDbArc
 50
0.0
 51
90.0
  0
CIRCLE
  5
1DA
330
1F
100
AcDbEntity
  8
READY_TO_CUT
  6
BYBLOCK
 62
     1
100
AcDbCircle
 10
44.50254638232573
 20
48.48770069524259
 30
0.0000648498535156
 40
0.0000648498535156
  0
LINE
  5
1DB
330
1F
100
AcDbEntity
  8
READY_TO_CUT
  6
BYBLOCK
 62
     1
100
AcDbLine
 10
41.50254638232573
 20
41.9956975684684
 30
0.0000648498535156
 11
41.50254638232573
 21
26.02204410305369
 31
0.0000648498535156
  0
LINE
  5
1DC
330
1F
100
AcDbEntity
  8
READY_TO_CUT
  6
BYBLOCK
 62
     1
100
AcDbLine
 10
82.81254680194243
 20
41.9956975684684
 30
0.0000648498535156
 11
82.81254680194243
 21
26.02204410305369
 31
0.0000648498535156
  0
ARC
  5
1DD
330
1F
100
AcDbEntity
  8
READY_TO_CUT
  6
BYBLOCK
 62
     1
100
AcDbCircle
 10
41.50254638232573
 20
47.19184999117503
 30
0.0000648498535156
 40
3.0
100
AcDbArc
 50
299.9999999999994
 51
0.0
  0
ARC
  5
1DE
330
1F
100
AcDbEntity
  8
READY_TO_CUT
  6
BYBLOCK
 62
     1
100
AcDbCircle
 10
82.81254680194243
 20
47.19184999117503
 30
0.0000648498535156
 40
3.0
100
AcDbArc
 50
180.0
 51
240.0000000000089
  0
ARC
  5
1DF
330
1F
100
AcDbEntity
  8
READY_TO_CUT
  6
BYBLOCK
 62
     1
100
AcDbCircle
 10
44.50254638232573
 20
41.9956975684684
 30
0.0000648498535156
 40
3.0
100
AcDbArc
 50
119.9999999999909
 51
180.0
  0
LINE
  5
1E0
330
1F
100
AcDbEntity
  8
READY_TO_CUT
  6
BYBLOCK
 62
     1
100
AcDbLine
 10
79.81254680194243
 20
47.19184999117503
 30
0.0000648498535156
 11
79.81254680194243
 21
64.56487424462038
 31
0.0000648498535156
  0
LINE
  5
1E1
330
1F
100
AcDbEntity
  8
READY_TO_CUT
  6
BYBLOCK
 62
     1
100
AcDbLine
 10
44.50254638232573
 20
64.5648742446205
 30
0.0000648498535156
 11
44.50254638232573
 21
47.19184999117503
 31
0.0000648498535156
  0
ARC
  5
1E2
330
1F
100
AcDbEntity
  8
READY_TO_CUT
  6
BYBLOCK
 62
     1
100
AcDbCircle
 10
79.81254680194243
 20
41.9956975684684
 30
0.0000648498535156
 40
3.0
100
AcDbArc
 50
0.0
 51
60.0000000000006
  0
LINE
  5
1E3
330
1F
100
AcDbEntity
  8
READY_TO_CUT
  6
BYBLOCK
 62
     1
100
AcDbLine
 10
82.81254680194243
 20
41.9956975684684
 30
0.0000648498535156
 11
82.81254680194243
 21
26.02204410305369
 31
0.0000648498535156
  0
ARC
  5
1E4
330
1F
100
AcDbEntity
  8
READY_TO_CUT
  6
BYBLOCK
 62
     1
100
AcDbCircle
 10
79.81254680194243
 20
26.02204410305369
 30
0.0000648498535156
 40
3.0
100
AcDbArc
 50
270.0
 51
0.0
  0
ARC
  5
1E5
330
1F
100
AcDbEntity
  8
READY_TO_CUT
  6
BYBLOCK
 62
     1
100
AcDbCircle
 10
44.50254638232573
 20
26.02204410305369
 30
0.0000648498535156
 40
3.0
100
AcDbArc
 50
180.0
 51
270.0
  0
LINE
  5
1E6
330
1F
100
AcDbEntity
  8
READY_TO_CUT
  6
BYBLOCK
 62
     1
100
AcDbLine
 10
44.50254638232573
 20
23.02204410305369
 30
0.0000648498535156
 11
79.81254680194243
 21
23.02204410305369
 31
0.0000648498535156
  0
LINE
  5
1E7
330
1F
100
AcDbEntity
  8
READY_TO_CUT
 62
     1
100
AcDbLine
 10
4.052666856006816
 20
261.1138540187447
 30
0.0
 11
4.052666856006816
 21
24.11385401874469
 31
0.0
  0
ARC
  5
1E8
330
1F
100
AcDbEntity
  8
READY_TO_CUT
 62
     1
100
AcDbCircle
 10
143.2947198091223
 20
133.1138540187448
 30
0.0
 40
2.0
100
AcDbArc
 50
180.0
 51
0.0
  0
ARC
  5
1E9
330
1F
100
AcDbEntity
  8
READY_TO_CUT
 62
     1
100
AcDbCircle
 10
143.2947198091223
 20
137.1138540187448
 30
0.0
 40
2.0
100
AcDbArc
 50
0.0
 51
180.0
  0
LINE
  5
1EA
330
1F
100
AcDbEntity
  8
READY_TO_CUT
  6
BYBLOCK
 62
     1
100
AcDbLine
 10
141.2947198091223
 20
137.1138540187448
 30
0.0
 11
141.2947198091223
 21
133.1138540187448
 31
0.0
  0
LINE
  5
1EB
330
1F
100
AcDbEntity
  8
READY_TO_CUT
  6
BYBLOCK
 62
     1
100
AcDbLine
 10
145.2947198091223
 20
137.1138540187448
 30
0.0
 11
145.2947198091223
 21
133.1138540187448
 31
0.0
  0
LINE
  5
1EC
330
1F
100
AcDbEntity
  8
READY_TO_CUT
  6
BYBLOCK
 62
     1
100
AcDbLine
 10
29.05266685600682
 20
137.1138540187448
 30
0.0
 11
29.05266685600682
 21
133.1138540187448
 31
0.0
  0
ARC
  5
1ED
330
1F
100
AcDbEntity
  8
READY_TO_CUT
 62
     1
100
AcDbCircle
 10
31.05266685600682
 20
133.1138540187448
 30
0.0
 40
2.0
100
AcDbArc
 50
180.0
 51
0.0
  0
ARC
  5
1EE
330
1F
100
AcDbEntity
  8
READY_TO_CUT
 62
     1
100
AcDbCircle
 10
31.05266685600682
 20
137.1138540187448
 30
0.0
 40
2.0
100
AcDbArc
 50
0.0
 51
180.0
  0
LINE
  5
1EF
330
1F
100
AcDbEntity
  8
READY_TO_CUT
  6
BYBLOCK
 62
     1
100
AcDbLine
 10
33.05266685600682
 20
137.1138540187448
 30
0.0
 11
33.05266685600682
 21
133.1138540187448
 31
0.0
  0
CIRCLE
  5
1F0
330
1F
100
AcDbEntity
  8
READY_TO_CUT
 62
     1
100
AcDbCircle
 10
52.55266685600591
 20
12.11385401874422
 30
0.0
 40
2.4
  0
CIRCLE
  5
1F1
330
1F
100
AcDbEntity
  8
READY_TO_CUT
 62
     1
100
AcDbCircle
 10
362.5526668560059
 20
292.1138540187443
 30
0.0
 40
2.4
  0
LINE
  5
1F2
330
1F
100
AcDbEntity
  8
READY_TO_CUT
 62
     1
100
AcDbLine
 10
271.5526668560068
 20
306.1138540187448
 30
0.0
 11
371.0526668560068
 21
306.1138540187448
 31
0.0
  0
CIRCLE
  5
1F3
330
1F
100
AcDbEntity
  8
READY_TO_CUT
 62
     1
100
AcDbCircle
 10
252.5526668560068
 20
362.113854018744
 30
0.0
 40
2.4
  0
LINE
  5
1F4
330
1F
100
AcDbEntity
  8
READY_TO_CUT
 62
     1
100
AcDbLine
 10
261.5526668560068
 20
316.1138540187448
 30
0.0
 11
261.5526668560068
 21
370.6138540187449
 31
0.0
  0
LINE
  5
1F5
330
1F
100
AcDbEntity
  8
READY_TO_CUT
 62
     1
100
AcDbLine
 10
271.5526668560068
 20
306.1138540187448
 30
0.0
 11
261.5526668560068
 21
316.1138540187448
 31
0.0
  0
LWPOLYLINE
  5
1F6
330
1F
100
AcDbEntity
  8
READY_TO_CUT
 62
     1
100
AcDbPolyline
 90
        3
 70
     0
 43
0.0
 10
160.5526668560068
 20
370.6138540187449
 10
180.5526668560068
 20
350.6138540187449
 10
180.5526668560068
 20
336.1138540187449
  0
ARC
  5
1F7
330
1F
100
AcDbEntity
  8
READY_TO_CUT
 62
     1
100
AcDbCircle
 10
188.0526668560068
 20
336.1138540187449
 30
0.0
 40
7.5
100
AcDbArc
 50
180.0
 51
0.0
  0
LWPOLYLINE
  5
1F8
330
1F
100
AcDbEntity
  8
READY_TO_CUT
 62
     1
100
AcDbPolyline
 90
        3
 70
     0
 43
0.0
 10
195.5526668560068
 20
336.1138540187449
 10
195.5526668560068
 20
350.6138540187449
 10
215.5526668560068
 20
370.6138540187449
  0
ARC
  5
1F9
330
1F
100
AcDbEntity
  8
READY_TO_CUT
 62
     1
100
AcDbCircle
 10
99.09273406009505
 20
336.1138540187449
 30
0.0
 40
7.5
100
AcDbArc
 50
180.0
 51
0.0
  0
CIRCLE
  5
1FB
330
1F
100
AcDbEntity
  8
READY_TO_CUT
 62
     1
100
AcDbCircle
 10
122.552666856005
 20
362.113854018744
 30
0.0
 40
2.4
  0
LINE
  5
1FC
330
1F
100
AcDbEntity
  8
READY_TO_CUT
  6
CONTINUOUS
 62
     2
100
AcDbLine
 10
98.62295425522679
 20
325.4198424423744
 30
0.0
 11
98.62295425522679
 21
322.9198424423744
 31
0.0
  0
LINE
  5
1FD
330
1F
100
AcDbEntity
  8
READY_TO_CUT
  6
CONTINUOUS
 62
     2
100
AcDbLine
 10
96.9729542552267
 20
322.9198424423744
 30
0.0
 11
96.9729542552267
 21
325.4198424423744
 31
0.0
  0
LINE
  5
1FE
330
1F
100
AcDbEntity
  8
READY_TO_CUT
  6
CONTINUOUS
 62
     2
100
AcDbLine
 10
96.9729542552267
 20
324.2198424423744
 30
0.0
 11
98.62295425522679
 21
324.2198424423744
 31
0.0
  0
POLYLINE
  5
1FF
330
1F
100
AcDbEntity
  8
READY_TO_CUT
  6
CONTINUOUS
 62
     2
100
AcDb2dPolyline
 66
     1
 10
0.0
 20
0.0
 30
0.0
  0
VERTEX
  5
200
330
1FF
100
AcDbEntity
  8
READY_TO_CUT
  6
CONTINUOUS
 62
     2
100
AcDbVertex
100
AcDb2dVertex
 10
99.2229542552267
 20
322.9198424423744
 30
0.0
  0
VERTEX
  5
201
330
1FF
100
AcDbEntity
  8
READY_TO_CUT
  6
CONTINUOUS
 62
     2
100
AcDbVertex
100
AcDb2dVertex
 10
99.2229542552267
 20
325.4198424423744
 30
0.0
  0
VERTEX
  5
202
330
1FF
100
AcDbEntity
  8
READY_TO_CUT
  6
CONTINUOUS
 62
     2
100
AcDbVertex
100
AcDb2dVertex
 10
100.3229542552266
 20
325.4198424423744
 30
0.0
  0
VERTEX
  5
203
330
1FF
100
AcDbEntity
  8
READY_TO_CUT
  6
CONTINUOUS
 62
     2
100
AcDbVertex
100
AcDb2dVertex
 10
100.6729542552265
 20
325.3198424423745
 30
0.0
  0
VERTEX
  5
204
330
1FF
100
AcDbEntity
  8
READY_TO_CUT
  6
CONTINUOUS
 62
     2
100
AcDbVertex
100
AcDb2dVertex
 10
100.7729542552269
 20
325.1698424423744
 30
0.0
  0
VERTEX
  5
205
330
1FF
100
AcDbEntity
  8
READY_TO_CUT
  6
CONTINUOUS
 62
     2
100
AcDbVertex
100
AcDb2dVertex
 10
100.8729542552268
 20
324.9698424423744
 30
0.0
  0
VERTEX
  5
206
330
1FF
100
AcDbEntity
  8
READY_TO_CUT
  6
CONTINUOUS
 62
     2
100
AcDbVertex
100
AcDb2dVertex
 10
100.8729542552268
 20
324.7198424423744
 30
0.0
  0
VERTEX
  5
207
330
1FF
100
AcDbEntity
  8
READY_TO_CUT
  6
CONTINUOUS
 62
     2
100
AcDbVertex
100
AcDb2dVertex
 10
100.7729542552269
 20
324.4698424423744
 30
0.0
  0
VERTEX
  5
208
330
1FF
100
AcDbEntity
  8
READY_TO_CUT
  6
CONTINUOUS
 62
     2
100
AcDbVertex
100
AcDb2dVertex
 10
100.6229542552268
 20
324.3198424423745
 30
0.0
  0
VERTEX
  5
209
330
1FF
100
AcDbEntity
  8
READY_TO_CUT
  6
CONTINUOUS
 62
     2
100
AcDbVertex
100
AcDb2dVertex
 10
100.3229542552266
 20
324.2198424423744
 30
0.0
  0
VERTEX
  5
20A
330
1FF
100
AcDbEntity
  8
READY_TO_CUT
  6
CONTINUOUS
 62
     2
100
AcDbVertex
100
AcDb2dVertex
 10
99.2229542552267
 20
324.2198424423744
 30
0.0
  0
SEQEND
  5
20B
330
1FF
100
AcDbEntity
  8
READY_TO_CUT
  6
CONTINUOUS
 62
     2
  0
POLYLINE
  5
20C
330
1F
100
AcDbEntity
  8
READY_TO_CUT
  6
CONTINUOUS
 62
     2
100
AcDb2dPolyline
 66
     1
 10
0.0
 20
0.0
 30
0.0
  0
VERTEX
  5
20D
330
20C
100
AcDbEntity
  8
READY_TO_CUT
  6
CONTINUOUS
 62
     2
100
AcDbVertex
100
AcDb2dVertex
 10
100.3229542552266
 20
324.2198424423744
 30
0.0
  0
VERTEX
  5
20E
330
20C
100
AcDbEntity
  8
READY_TO_CUT
  6
CONTINUOUS
 62
     2
100
AcDbVertex
100
AcDb2dVertex
 10
100.6229542552268
 20
324.1198424423745
 30
0.0
  0
VERTEX
  5
20F
330
20C
100
AcDbEntity
  8
READY_TO_CUT
  6
CONTINUOUS
 62
     2
100
AcDbVertex
100
AcDb2dVertex
 10
100.8229542552266
 20
323.9198424423744
 30
0.0
  0
VERTEX
  5
210
330
20C
100
AcDbEntity
  8
READY_TO_CUT
  6
CONTINUOUS
 62
     2
100
AcDbVertex
100
AcDb2dVertex
 10
100.8729542552268
 20
323.7698424423743
 30
0.0
  0
VERTEX
  5
211
330
20C
100
AcDbEntity
  8
READY_TO_CUT
  6
CONTINUOUS
 62
     2
100
AcDbVertex
100
AcDb2dVertex
 10
100.8729542552268
 20
323.3698424423745
 30
0.0
  0
VERTEX
  5
212
330
20C
100
AcDbEntity
  8
READY_TO_CUT
  6
CONTINUOUS
 62
     2
100
AcDbVertex
100
AcDb2dVertex
 10
100.7729542552269
 20
323.1698424423744
 30
0.0
  0
VERTEX
  5
213
330
20C
100
AcDbEntity
  8
READY_TO_CUT
  6
CONTINUOUS
 62
     2
100
AcDbVertex
100
AcDb2dVertex
 10
100.6229542552268
 20
323.0198424423745
 30
0.0
  0
VERTEX
  5
214
330
20C
100
AcDbEntity
  8
READY_TO_CUT
  6
CONTINUOUS
 62
     2
100
AcDbVertex
100
AcDb2dVertex
 10
100.3229542552266
 20
322.9198424423744
 30
0.0
  0
VERTEX
  5
215
330
20C
100
AcDbEntity
  8
READY_TO_CUT
  6
CONTINUOUS
 62
     2
100
AcDbVertex
100
AcDb2dVertex
 10
99.2229542552267
 20
322.9198424423744
 30
0.0
  0
SEQEND
  5
216
330
20C
100
AcDbEntity
  8
READY_TO_CUT
  6
CONTINUOUS
 62
     2
  0
ARC
  5
217
330
1F
100
AcDbEntity
  8
READY_TO_CUT
 62
     1
100
AcDbCircle
 10
70.7150095820397
 20
336.1138540187449
 30
0.0
 40
4.0
100
AcDbArc
 50
270.0
 51
90.0
  0
LINE
  5
218
330
1F
100
AcDbEntity
  8
READY_TO_CUT
 62
     1
100
AcDbLine
 10
215.5526668560068
 20
370.6138540187449
 30
0.0
 11
261.5526668560068
 21
370.6138540187449
 31
0.0
  0
LINE
  5
219
330
1F
100
AcDbEntity
  8
READY_TO_CUT
 62
     1
100
AcDbLine
 10
59.36927606721373
 20
370.6138540187449
 30
0.0
 11
91.59273406009505
 21
370.6138540187449
 31
0.0
  0
LINE
  5
21A
330
1F
100
AcDbEntity
  8
READY_TO_CUT
 62
     1
100
AcDbLine
 10
59.36927606721374
 20
370.6138540187449
 30
0.0
 11
59.36927606721374
 21
340.1138540187449
 31
0.0
  0
LINE
  5
21B
330
1F
100
AcDbEntity
  8
READY_TO_CUT
 62
     1
100
AcDbLine
 10
49.36927606721374
 20
261.1138540187448
 30
0.0
 11
4.052666856006816
 21
261.1138540187448
 31
0.0
  0
LINE
  5
21C
330
1F
100
AcDbEntity
  8
READY_TO_CUT
 62
     1
100
AcDbLine
 10
49.36927606721374
 20
261.1138540187448
 30
0.0
 11
59.36927606721374
 21
271.1138540187448
 31
0.0
  0
LINE
  5
221
330
1F
100
AcDbEntity
  8
CORTE
100
AcDbLine
 10
91.59273406009505
 20
336.1138540187449
 30
0.0
 11
91.59273406009505
 21
370.6138540187449
 31
0.0
  0
LINE
  5
222
330
1F
100
AcDbEntity
  8
CORTE
100
AcDbLine
 10
106.5927340600951
 20
336.1138540187449
 30
0.0
 11
106.5927340600951
 21
370.6138540187449
 31
0.0
  0
LINE
  5
223
330
1F
100
AcDbEntity
  8
READY_TO_CUT
 62
     1
100
AcDbLine
 10
106.5927340600951
 20
370.6138540187449
 30
0.0
 11
160.5526668560068
 21
370.6138540187449
 31
0.0
  0
LINE
  5
24A
330
1F
100
AcDbEntity
  8
CORTE
100
AcDbLine
 10
70.7150095820397
 20
340.1138540187449
 30
0.0
 11
59.36927606721374
 21
340.1138540187449
 31
0.0
  0
LINE
  5
24B
330
1F
100
AcDbEntity
  8
CORTE
100
AcDbLine
 10
70.7150095820397
 20
332.1138540187449
 30
0.0
 11
59.36927606721374
 21
332.1138540187449
 31
0.0
  0
LINE
  5
24C
330
1F
100
AcDbEntity
  8
READY_TO_CUT
 62
     1
100
AcDbLine
 10
59.36927606721374
 20
332.1138540187449
 30
0.0
 11
59.36927606721374
 21
271.1138540187448
 31
0.0
  0
ENDSEC
  0
SECTION
  2
OBJECTS
  0
DICTIONARY
  5
C
330
0
100
AcDbDictionary
  3
ACAD_DETAILVIEWSTYLE
350
122
  3
ACAD_GROUP
350
D
  3
ACAD_IMAGE_VARS
350
DC
  3
ACAD_MLINESTYLE
350
17
  3
ACAD_SCALELIST
350
B6
  3
ACAD_SECTIONVIEWSTYLE
350
123
  3
ACDBVARIABLEDICTIONARY
350
66
  3
APPDATA
350
E1
  3
DWGPROPS
350
24D
  0
DICTIONARY
  5
1B2
330
2
100
AcDbDictionary
280
     1
  3
ACAD_LAYERSTATES
360
1B3
  0
DICTIONARY
  5
122
102
{ACAD_REACTORS
330
C
102
}
330
C
100
AcDbDictionary
  0
DICTIONARY
  5
D
102
{ACAD_REACTORS
330
C
102
}
330
C
100
AcDbDictionary
  0
RASTERVARIABLES
  5
DC
102
{ACAD_REACTORS
330
C
102
}
330
C
100
AcDbRasterVariables
 90
        0
 70
     1
 71
     1
 72
     5
  0
DICTIONARY
  5
17
102
{ACAD_REACTORS
330
C
102
}
330
C
100
AcDbDictionary
  3
STANDARD
350
18
  0
DICTIONARY
  5
B6
102
{ACAD_REACTORS
330
C
102
}
330
C
100
AcDbDictionary
  0
DICTIONARY
  5
123
102
{ACAD_REACTORS
330
C
102
}
330
C
100
AcDbDictionary
  0
DICTIONARY
  5
66
102
{ACAD_REACTORS
330
C
102
}
330
C
100
AcDbDictionary
  3
DIMASSOC
350
67
  3
HIDETEXT
350
6B
  0
DICTIONARY
  5
E1
102
{ACAD_REACTORS
330
C
102
}
330
C
100
AcDbDictionary
  0
XRECORD
  5
24D
102
{ACAD_REACTORS
330
C
102
}
330
C
100
AcDbXrecord
  1
DWGPROPS COOKIE
  2

  3

  4

  6

  7

  8

  9

300
=
301
=
302
=
303
=
304
=
305
=
306
=
307
=
308
=
309
=
 40
0.0
 41
2452643.063384259
 42
2457193.788611111
  1

 90
        0
  0
DICTIONARY
  5
1B3
102
{ACAD_REACTORS
330
1B2
102
}
330
1B2
100
AcDbDictionary
  0
MLINESTYLE
  5
18
102
{ACAD_REACTORS
330
17
102
}
330
17
100
AcDbMlineStyle
  2
STANDARD
 70
     0
  3

 62
   256
 51
90.0
 52
90.0
 71
     2
 49
0.5
 62
   256
  6
BYLAYER
 49
-0.5
 62
   256
  6
BYLAYER
  0
DICTIONARYVAR
  5
67
102
{ACAD_REACTORS
330
66
102
}
330
66
100
DictionaryVariables
280
     0
  1
2
  0
DICTIONARYVAR
  5
6B
102
{ACAD_REACTORS
330
66
102
}
330
66
100
DictionaryVariables
280
     0
  1
1
  0
ENDSEC
  0
EOF
