  0
SECTION
  2
HEADER
  9
$ACADVER
  1
AC1015
  9
$ACADMAINTVER
 70
     6
  9
$DWGCODEPAGE
  3
ANSI_1252
  9
$INSBASE
 10
0.0
 20
0.0
 30
0.0
  9
$EXTMIN
 10
1.000000000000000E+20
 20
1.000000000000000E+20
 30
1.000000000000000E+20
  9
$EXTMAX
 10
-1.000000000000000E+20
 20
-1.000000000000000E+20
 30
-1.000000000000000E+20
  9
$LIMMIN
 10
0.0
 20
0.0
  9
$LIMMAX
 10
12.0
 20
9.0
  9
$ORTHOMODE
 70
     1
  9
$REGENMODE
 70
     1
  9
$FILLMODE
 70
     1
  9
$QTEXTMODE
 70
     0
  9
$MIRRTEXT
 70
     0
  9
$LTSCALE
 40
1.0
  9
$ATTMODE
 70
     1
  9
$TEXTSIZE
 40
0.2
  9
$TRACEWID
 40
0.05
  9
$TEXTSTYLE
  7
Standard
  9
$CLAYER
  8
0
  9
$CELTYPE
  6
ByLayer
  9
$CECOLOR
 62
   256
  9
$CELTSCALE
 40
1.0
  9
$DISPSILH
 70
     0
  9
$DIMSCALE
 40
1.0
  9
$DIMASZ
 40
0.18
  9
$DIMEXO
 40
0.0625
  9
$DIMDLI
 40
0.38
  9
$DIMRND
 40
0.0
  9
$DIMDLE
 40
0.0
  9
$DIMEXE
 40
0.18
  9
$DIMTP
 40
0.0
  9
$DIMTM
 40
0.0
  9
$DIMTXT
 40
0.18
  9
$DIMCEN
 40
0.09
  9
$DIMTSZ
 40
0.0
  9
$DIMTOL
 70
     0
  9
$DIMLIM
 70
     0
  9
$DIMTIH
 70
     1
  9
$DIMTOH
 70
     1
  9
$DIMSE1
 70
     0
  9
$DIMSE2
 70
     0
  9
$DIMTAD
 70
     0
  9
$DIMZIN
 70
     0
  9
$DIMBLK
  1

  9
$DIMASO
 70
     1
  9
$DIMSHO
 70
     1
  9
$DIMPOST
  1

  9
$DIMAPOST
  1

  9
$DIMALT
 70
     0
  9
$DIMALTD
 70
     2
  9
$DIMALTF
 40
25.4
  9
$DIMLFAC
 40
1.0
  9
$DIMTOFL
 70
     0
  9
$DIMTVP
 40
0.0
  9
$DIMTIX
 70
     0
  9
$DIMSOXD
 70
     0
  9
$DIMSAH
 70
     0
  9
$DIMBLK1
  1

  9
$DIMBLK2
  1

  9
$DIMSTYLE
  2
Standard
  9
$DIMCLRD
 70
     0
  9
$DIMCLRE
 70
     0
  9
$DIMCLRT
 70
     0
  9
$DIMTFAC
 40
1.0
  9
$DIMGAP
 40
0.09
  9
$DIMJUST
 70
     0
  9
$DIMSD1
 70
     0
  9
$DIMSD2
 70
     0
  9
$DIMTOLJ
 70
     1
  9
$DIMTZIN
 70
     0
  9
$DIMALTZ
 70
     0
  9
$DIMALTTZ
 70
     0
  9
$DIMUPT
 70
     0
  9
$DIMDEC
 70
     4
  9
$DIMTDEC
 70
     4
  9
$DIMALTU
 70
     2
  9
$DIMALTTD
 70
     2
  9
$DIMTXSTY
  7
Standard
  9
$DIMAUNIT
 70
     0
  9
$DIMADEC
 70
     0
  9
$DIMALTRND
 40
0.0
  9
$DIMAZIN
 70
     0
  9
$DIMDSEP
 70
    46
  9
$DIMATFIT
 70
     3
  9
$DIMFRAC
 70
     0
  9
$DIMLDRBLK
  1

  9
$DIMLUNIT
 70
     2
  9
$DIMLWD
 70
    -2
  9
$DIMLWE
 70
    -2
  9
$DIMTMOVE
 70
     0
  9
$LUNITS
 70
     2
  9
$LUPREC
 70
     4
  9
$SKETCHINC
 40
0.1
  9
$FILLETRAD
 40
0.0
  9
$AUNITS
 70
     0
  9
$AUPREC
 70
     0
  9
$MENU
  1
.
  9
$ELEVATION
 40
0.0
  9
$PELEVATION
 40
0.0
  9
$THICKNESS
 40
0.0
  9
$LIMCHECK
 70
     0
  9
$CHAMFERA
 40
0.0
  9
$CHAMFERB
 40
0.0
  9
$CHAMFERC
 40
0.0
  9
$CHAMFERD
 40
0.0
  9
$SKPOLY
 70
     0
  9
$TDCREATE
 40
2452642.813384271
  9
$TDUCREATE
 40
2452643.063384271
  9
$TDUPDATE
 40
2457345.496201146
  9
$TDUUPDATE
 40
2457345.746201146
  9
$TDINDWG
 40
0.0053910301
  9
$TDUSRTIMER
 40
2457345.746070648
  9
$USRTIMER
 70
     1
  9
$ANGBASE
 50
0.0
  9
$ANGDIR
 70
     0
  9
$PDMODE
 70
     0
  9
$PDSIZE
 40
0.0
  9
$PLINEWID
 40
0.0
  9
$SPLFRAME
 70
     0
  9
$SPLINETYPE
 70
     6
  9
$SPLINESEGS
 70
     8
  9
$HANDSEED
  5
23D
  9
$SURFTAB1
 70
     6
  9
$SURFTAB2
 70
     6
  9
$SURFTYPE
 70
     6
  9
$SURFU
 70
     6
  9
$SURFV
 70
     6
  9
$UCSBASE
  2

  9
$UCSNAME
  2

  9
$UCSORG
 10
0.0
 20
0.0
 30
0.0
  9
$UCSXDIR
 10
1.0
 20
0.0
 30
0.0
  9
$UCSYDIR
 10
0.0
 20
1.0
 30
0.0
  9
$UCSORTHOREF
  2

  9
$UCSORTHOVIEW
 70
     0
  9
$UCSORGTOP
 10
0.0
 20
0.0
 30
0.0
  9
$UCSORGBOTTOM
 10
0.0
 20
0.0
 30
0.0
  9
$UCSORGLEFT
 10
0.0
 20
0.0
 30
0.0
  9
$UCSORGRIGHT
 10
0.0
 20
0.0
 30
0.0
  9
$UCSORGFRONT
 10
0.0
 20
0.0
 30
0.0
  9
$UCSORGBACK
 10
0.0
 20
0.0
 30
0.0
  9
$PUCSBASE
  2

  9
$PUCSNAME
  2

  9
$PUCSORG
 10
0.0
 20
0.0
 30
0.0
  9
$PUCSXDIR
 10
1.0
 20
0.0
 30
0.0
  9
$PUCSYDIR
 10
0.0
 20
1.0
 30
0.0
  9
$PUCSORTHOREF
  2

  9
$PUCSORTHOVIEW
 70
     0
  9
$PUCSORGTOP
 10
0.0
 20
0.0
 30
0.0
  9
$PUCSORGBOTTOM
 10
0.0
 20
0.0
 30
0.0
  9
$PUCSORGLEFT
 10
0.0
 20
0.0
 30
0.0
  9
$PUCSORGRIGHT
 10
0.0
 20
0.0
 30
0.0
  9
$PUCSORGFRONT
 10
0.0
 20
0.0
 30
0.0
  9
$PUCSORGBACK
 10
0.0
 20
0.0
 30
0.0
  9
$USERI1
 70
     0
  9
$USERI2
 70
     0
  9
$USERI3
 70
     0
  9
$USERI4
 70
     0
  9
$USERI5
 70
     0
  9
$USERR1
 40
0.0
  9
$USERR2
 40
0.0
  9
$USERR3
 40
0.0
  9
$USERR4
 40
0.0
  9
$USERR5
 40
0.0
  9
$WORLDVIEW
 70
     1
  9
$SHADEDGE
 70
     3
  9
$SHADEDIF
 70
    70
  9
$TILEMODE
 70
     1
  9
$MAXACTVP
 70
    64
  9
$PINSBASE
 10
0.0
 20
0.0
 30
0.0
  9
$PLIMCHECK
 70
     0
  9
$PEXTMIN
 10
0.0
 20
0.0
 30
0.0
  9
$PEXTMAX
 10
0.0
 20
0.0
 30
0.0
  9
$PLIMMIN
 10
0.0
 20
0.0
  9
$PLIMMAX
 10
0.0
 20
0.0
  9
$UNITMODE
 70
     0
  9
$VISRETAIN
 70
     1
  9
$PLINEGEN
 70
     0
  9
$PSLTSCALE
 70
     1
  9
$TREEDEPTH
 70
  3020
  9
$CMLSTYLE
  2
Standard
  9
$CMLJUST
 70
     0
  9
$CMLSCALE
 40
1.0
  9
$PROXYGRAPHICS
 70
     1
  9
$MEASUREMENT
 70
     0
  9
$CELWEIGHT
370
    -1
  9
$ENDCAPS
280
     0
  9
$JOINSTYLE
280
     0
  9
$LWDISPLAY
290
     0
  9
$INSUNITS
 70
     1
  9
$HYPERLINKBASE
  1

  9
$STYLESHEET
  1

  9
$XEDIT
290
     1
  9
$CEPSNTYPE
380
     0
  9
$PSTYLEMODE
290
     0
  9
$FINGERPRINTGUID
  2
{FDEAD576-A652-11D2-9A35-0060089B3A3F}
  9
$VERSIONGUID
  2
{FBC2AE19-5C5C-49EC-81BC-71B1A3362A02}
  9
$EXTNAMES
290
     1
  9
$PSVPSCALE
 40
0.0
  9
$OLESTARTUP
290
     0
  0
ENDSEC
  0
SECTION
  2
CLASSES
  0
CLASS
  1
ACDBDICTIONARYWDFLT
  2
AcDbDictionaryWithDefault
  3
ObjectDBX Classes
 90
        0
280
     0
281
     0
  0
CLASS
  1
ACDBPLACEHOLDER
  2
AcDbPlaceHolder
  3
ObjectDBX Classes
 90
        0
280
     0
281
     0
  0
CLASS
  1
LAYOUT
  2
AcDbLayout
  3
ObjectDBX Classes
 90
        0
280
     0
281
     0
  0
CLASS
  1
DICTIONARYVAR
  2
AcDbDictionaryVar
  3
ObjectDBX Classes
 90
        0
280
     0
281
     0
  0
CLASS
  1
TABLESTYLE
  2
AcDbTableStyle
  3
ObjectDBX Classes
 90
     4095
280
     0
281
     0
  0
CLASS
  1
MATERIAL
  2
AcDbMaterial
  3
ObjectDBX Classes
 90
     1153
280
     0
281
     0
  0
CLASS
  1
VISUALSTYLE
  2
AcDbVisualStyle
  3
ObjectDBX Classes
 90
     4095
280
     0
281
     0
  0
CLASS
  1
SCALE
  2
AcDbScale
  3
ObjectDBX Classes
 90
     1153
280
     0
281
     0
  0
CLASS
  1
CELLSTYLEMAP
  2
AcDbCellStyleMap
  3
ObjectDBX Classes
 90
     1152
280
     0
281
     0
  0
CLASS
  1
RASTERVARIABLES
  2
AcDbRasterVariables
  3
ISM
 90
        0
280
     0
281
     0
  0
CLASS
  1
SUN
  2
AcDbSun
  3
SCENEOE
 90
     1153
280
     0
281
     0
  0
CLASS
  1
MLEADERSTYLE
  2
AcDbMLeaderStyle
  3
ACDB_MLEADERSTYLE_CLASS
 90
     4095
280
     0
281
     0
  0
CLASS
  1
DIMASSOC
  2
AcDbDimAssoc
  3
"AcDbDimAssoc|Product Desc:     AcDim ARX App For Dimension|Company:          Autodesk, Inc.|WEB Address:      www.autodesk.com"
 90
        0
280
     0
281
     0
  0
ENDSEC
  0
SECTION
  2
TABLES
  0
TABLE
  2
VPORT
  5
8
330
0
100
AcDbSymbolTable
 70
     1
  0
VPORT
  5
94
330
8
100
AcDbSymbolTableRecord
100
AcDbViewportTableRecord
  2
*Active
 70
     0
 10
0.0
 20
0.0
 11
1.0
 21
1.0
 12
76.40632147706607
 22
172.5028276111944
 13
0.0
 23
0.0
 14
0.5
 24
0.5
 15
0.5
 25
0.5
 16
0.0
 26
0.0
 36
1.0
 17
-27.66959356597988
 27
-19.5387029578622
 37
0.0
 40
295.8
 41
2.828389830508474
 42
50.0
 43
0.0
 44
0.0
 50
0.0
 51
0.0
 71
    16
 72
  1000
 73
     1
 74
     3
 75
     0
 76
     0
 77
     0
 78
     0
281
     0
 65
     1
110
0.0
120
0.0
130
0.0
111
1.0
121
0.0
131
0.0
112
0.0
122
1.0
132
0.0
 79
     0
146
0.0
  0
ENDTAB
  0
TABLE
  2
LTYPE
  5
5
330
0
100
AcDbSymbolTable
 70
     1
  0
LTYPE
  5
14
330
5
100
AcDbSymbolTableRecord
100
AcDbLinetypeTableRecord
  2
ByBlock
 70
     0
  3

 72
    65
 73
     0
 40
0.0
  0
LTYPE
  5
15
330
5
100
AcDbSymbolTableRecord
100
AcDbLinetypeTableRecord
  2
ByLayer
 70
     0
  3

 72
    65
 73
     0
 40
0.0
  0
LTYPE
  5
16
330
5
100
AcDbSymbolTableRecord
100
AcDbLinetypeTableRecord
  2
Continuous
 70
     0
  3
Solid line
 72
    65
 73
     0
 40
0.0
  0
ENDTAB
  0
TABLE
  2
LAYER
  5
2
102
{ACAD_XDICTIONARY
360
15C
102
}
330
0
100
AcDbSymbolTable
 70
     4
  0
LAYER
  5
10
330
2
100
AcDbSymbolTableRecord
100
AcDbLayerTableRecord
  2
0
 70
     0
 62
     7
  6
Continuous
370
    -3
390
F
  0
LAYER
  5
126
330
2
100
AcDbSymbolTableRecord
100
AcDbLayerTableRecord
  2
CAMA ALUMINIO 12MM
 70
     0
 62
   253
  6
Continuous
370
    -3
390
F
1001
AcAecLayerStandard
1000

1000

1001
AcCmTransparency
1071
 33554687
  0
LAYER
  5
175
330
2
100
AcDbSymbolTableRecord
100
AcDbLayerTableRecord
  2
Defpoints
 70
     0
 62
     7
  6
Continuous
290
     0
370
    -3
390
F
  0
LAYER
  5
1AE
330
2
100
AcDbSymbolTableRecord
100
AcDbLayerTableRecord
  2
CUT
 70
     0
 62
     1
  6
Continuous
370
    -3
390
F
1001
AcAecLayerStandard
1000

1000

1001
AcCmTransparency
1071
 33554687
  0
ENDTAB
  0
TABLE
  2
STYLE
  5
3
330
0
100
AcDbSymbolTable
 70
     1
  0
STYLE
  5
11
330
3
100
AcDbSymbolTableRecord
100
AcDbTextStyleTableRecord
  2
Standard
 70
     0
 40
0.0
 41
1.0
 50
0.0
 71
     0
 42
0.2
  3
arial.ttf
  4

1001
ACAD
1000
Arial
1071
        0
  0
ENDTAB
  0
TABLE
  2
VIEW
  5
6
330
0
100
AcDbSymbolTable
 70
     0
  0
ENDTAB
  0
TABLE
  2
UCS
  5
7
330
0
100
AcDbSymbolTable
 70
     0
  0
ENDTAB
  0
TABLE
  2
APPID
  5
9
330
0
100
AcDbSymbolTable
 70
     3
  0
APPID
  5
12
330
9
100
AcDbSymbolTableRecord
100
AcDbRegAppTableRecord
  2
ACAD
 70
     0
  0
APPID
  5
128
330
9
100
AcDbSymbolTableRecord
100
AcDbRegAppTableRecord
  2
AcAecLayerStandard
 70
     0
  0
APPID
  5
129
330
9
100
AcDbSymbolTableRecord
100
AcDbRegAppTableRecord
  2
AcCmTransparency
 70
     0
  0
ENDTAB
  0
TABLE
  2
DIMSTYLE
  5
A
330
0
100
AcDbSymbolTable
 70
     2
100
AcDbDimStyleTable
  0
DIMSTYLE
105
27
330
A
100
AcDbSymbolTableRecord
100
AcDbDimStyleTableRecord
  2
Standard
 70
     0
178
     0
340
11
  0
DIMSTYLE
105
1B2
330
A
100
AcDbSymbolTableRecord
100
AcDbDimStyleTableRecord
  2
ISO-25
 70
     0
 41
2.5
 42
0.625
 43
3.75
 44
1.25
 73
     0
 74
     0
 77
     1
 78
     8
140
2.5
141
2.5
143
0.03937007874016
147
0.625
171
     3
172
     1
178
     0
271
     2
272
     2
274
     3
278
    44
283
     0
284
     8
340
11
  0
ENDTAB
  0
TABLE
  2
BLOCK_RECORD
  5
1
330
0
100
AcDbSymbolTable
 70
    10
  0
BLOCK_RECORD
  5
1F
330
1
100
AcDbSymbolTableRecord
100
AcDbBlockTableRecord
  2
*Model_Space
340
22
  0
BLOCK_RECORD
  5
58
330
1
100
AcDbSymbolTableRecord
100
AcDbBlockTableRecord
  2
*Paper_Space
340
59
  0
BLOCK_RECORD
  5
5D
330
1
100
AcDbSymbolTableRecord
100
AcDbBlockTableRecord
  2
*Paper_Space0
340
5E
  0
BLOCK_RECORD
  5
179
330
1
100
AcDbSymbolTableRecord
100
AcDbBlockTableRecord
  2
*D2
340
0
  0
BLOCK_RECORD
  5
189
330
1
100
AcDbSymbolTableRecord
100
AcDbBlockTableRecord
  2
*D3
340
0
  0
BLOCK_RECORD
  5
19D
330
1
100
AcDbSymbolTableRecord
100
AcDbBlockTableRecord
  2
*D4
340
0
  0
BLOCK_RECORD
  5
1F4
330
1
100
AcDbSymbolTableRecord
100
AcDbBlockTableRecord
  2
*D6
340
0
  0
BLOCK_RECORD
  5
204
330
1
100
AcDbSymbolTableRecord
100
AcDbBlockTableRecord
  2
*D7
340
0
  0
BLOCK_RECORD
  5
21B
330
1
100
AcDbSymbolTableRecord
100
AcDbBlockTableRecord
  2
*D8
340
0
  0
BLOCK_RECORD
  5
22B
330
1
100
AcDbSymbolTableRecord
100
AcDbBlockTableRecord
  2
*D9
340
0
  0
ENDTAB
  0
ENDSEC
  0
SECTION
  2
BLOCKS
  0
BLOCK
  5
20
330
1F
100
AcDbEntity
  8
0
100
AcDbBlockBegin
  2
*Model_Space
 70
     0
 10
0.0
 20
0.0
 30
0.0
  3
*Model_Space
  1
*Model_Space
  0
ENDBLK
  5
21
330
1F
100
AcDbEntity
  8
0
100
AcDbBlockEnd
  0
BLOCK
  5
5A
330
58
100
AcDbEntity
 67
     1
  8
0
100
AcDbBlockBegin
  2
*Paper_Space
 70
     0
 10
0.0
 20
0.0
 30
0.0
  3
*Paper_Space
  1
*Paper_Space
  0
ENDBLK
  5
5B
330
58
100
AcDbEntity
 67
     1
  8
0
100
AcDbBlockEnd
  0
BLOCK
  5
5F
330
5D
100
AcDbEntity
  8
0
100
AcDbBlockBegin
  2
*Paper_Space0
 70
     0
 10
0.0
 20
0.0
 30
0.0
  3
*Paper_Space0
  1
*Paper_Space0
  0
ENDBLK
  5
60
330
5D
100
AcDbEntity
  8
0
100
AcDbBlockEnd
  0
BLOCK
  5
17A
330
179
100
AcDbEntity
  8
0
100
AcDbBlockBegin
  2
*D2
 70
     1
 10
0.0
 20
0.0
 30
0.0
  3
*D2
  1
*D2
  0
LINE
  5
17C
330
179
100
AcDbEntity
  8
0
 62
     0
370
    -2
100
AcDbLine
 10
51.81221130322611
 20
288.6641899330837
 30
0.0
 11
47.40736669946865
 21
288.6641899330837
 31
0.0
  0
LINE
  5
17D
330
179
100
AcDbEntity
  8
0
 62
     0
370
    -2
100
AcDbLine
 10
51.81221130322611
 20
297.9641246533322
 30
0.0
 11
47.40736669946865
 21
297.9641246533322
 31
0.0
  0
LINE
  5
17E
330
179
100
AcDbEntity
  8
0
 62
     0
370
    -2
100
AcDbLine
 10
47.58736669946865
 20
288.8441899330837
 30
0.0
 11
47.58736669946865
 21
293.132267293208
 31
0.0
  0
LINE
  5
17F
330
179
100
AcDbEntity
  8
0
 62
     0
370
    -2
100
AcDbLine
 10
47.58736669946865
 20
297.7841246533322
 30
0.0
 11
47.58736669946865
 21
293.4960472932079
 31
0.0
  0
SOLID
  5
180
330
179
100
AcDbEntity
  8
0
 62
     0
100
AcDbTrace
 10
47.55736669946864
 20
288.8441899330837
 30
0.0
 11
47.61736669946865
 21
288.8441899330837
 31
0.0
 12
47.58736669946865
 22
288.6641899330837
 32
0.0
 13
47.58736669946865
 23
288.6641899330837
 33
0.0
  0
SOLID
  5
181
330
179
100
AcDbEntity
  8
0
 62
     0
100
AcDbTrace
 10
47.61736669946865
 20
297.7841246533322
 30
0.0
 11
47.55736669946864
 21
297.7841246533322
 31
0.0
 12
47.58736669946865
 22
297.9641246533322
 32
0.0
 13
47.58736669946865
 23
297.9641246533322
 33
0.0
  0
MTEXT
  5
182
330
179
100
AcDbEntity
  8
0
 62
     0
100
AcDbMText
 10
47.58736669946865
 20
293.3141572932079
 30
0.0
 40
0.18
 41
0.0
 71
     5
 72
     1
  1
\A1;9.2999
 73
     1
 44
1.0
  0
POINT
  5
183
330
179
100
AcDbEntity
  8
Defpoints
 62
     0
100
AcDbPoint
 10
51.87471130322611
 20
288.6641899330837
 30
0.0
  0
POINT
  5
184
330
179
100
AcDbEntity
  8
Defpoints
 62
     0
100
AcDbPoint
 10
51.87471130322611
 20
297.9641246533322
 30
0.0
  0
POINT
  5
185
330
179
100
AcDbEntity
  8
Defpoints
 62
     0
100
AcDbPoint
 10
47.58736669946865
 20
297.9641246533322
 30
0.0
  0
ENDBLK
  5
17B
330
179
100
AcDbEntity
  8
0
100
AcDbBlockEnd
  0
BLOCK
  5
18A
330
189
100
AcDbEntity
  8
0
100
AcDbBlockBegin
  2
*D3
 70
     1
 10
0.0
 20
0.0
 30
0.0
  3
*D3
  1
*D3
  0
LINE
  5
18C
330
189
100
AcDbEntity
  8
0
 62
     0
370
    -2
100
AcDbLine
 10
51.81221130322611
 20
17.26405937357968
 30
0.0
 11
48.30611262994572
 21
17.26405937357968
 31
0.0
  0
LINE
  5
18D
330
189
100
AcDbEntity
  8
0
 62
     0
370
    -2
100
AcDbLine
 10
51.81221130322611
 20
7.964124653332249
 30
0.0
 11
48.30611262994572
 21
7.964124653332249
 31
0.0
  0
LINE
  5
18E
330
189
100
AcDbEntity
  8
0
 62
     0
370
    -2
100
AcDbLine
 10
48.48611262994572
 20
17.08405937357968
 30
0.0
 11
48.48611262994572
 21
12.79598201345596
 31
0.0
  0
LINE
  5
18F
330
189
100
AcDbEntity
  8
0
 62
     0
370
    -2
100
AcDbLine
 10
48.48611262994572
 20
8.144124653332248
 30
0.0
 11
48.48611262994572
 21
12.43220201345597
 31
0.0
  0
SOLID
  5
190
330
189
100
AcDbEntity
  8
0
 62
     0
100
AcDbTrace
 10
48.51611262994572
 20
17.08405937357968
 30
0.0
 11
48.45611262994572
 21
17.08405937357968
 31
0.0
 12
48.48611262994572
 22
17.26405937357968
 32
0.0
 13
48.48611262994572
 23
17.26405937357968
 33
0.0
  0
SOLID
  5
191
330
189
100
AcDbEntity
  8
0
 62
     0
100
AcDbTrace
 10
48.45611262994572
 20
8.144124653332248
 30
0.0
 11
48.51611262994572
 21
8.144124653332248
 31
0.0
 12
48.48611262994572
 22
7.964124653332249
 32
0.0
 13
48.48611262994572
 23
7.964124653332249
 33
0.0
  0
MTEXT
  5
192
330
189
100
AcDbEntity
  8
0
 62
     0
100
AcDbMText
 10
48.48611262994572
 20
12.61409201345596
 30
0.0
 40
0.18
 41
0.0
 71
     5
 72
     1
  1
\A1;9.2999
 73
     1
 44
1.0
  0
POINT
  5
193
330
189
100
AcDbEntity
  8
Defpoints
 62
     0
100
AcDbPoint
 10
51.87471130322611
 20
17.26405937357968
 30
0.0
  0
POINT
  5
194
330
189
100
AcDbEntity
  8
Defpoints
 62
     0
100
AcDbPoint
 10
51.87471130322611
 20
7.964124653332249
 30
0.0
  0
POINT
  5
195
330
189
100
AcDbEntity
  8
Defpoints
 62
     0
100
AcDbPoint
 10
48.48611262994572
 20
7.964124653332249
 30
0.0
  0
ENDBLK
  5
18B
330
189
100
AcDbEntity
  8
0
100
AcDbBlockEnd
  0
BLOCK
  5
19E
330
19D
100
AcDbEntity
  8
0
100
AcDbBlockBegin
  2
*D4
 70
     1
 10
0.0
 20
0.0
 30
0.0
  3
*D4
  1
*D4
  0
LINE
  5
1A0
330
19D
100
AcDbEntity
  8
0
 62
     0
370
    -2
100
AcDbLine
 10
57.08672791108619
 20
251.4016899330837
 30
0.0
 11
57.08672791108619
 21
239.1215681168916
 31
0.0
  0
LINE
  5
1A1
330
19D
100
AcDbEntity
  8
0
 62
     0
370
    -2
100
AcDbLine
 10
74.08672791108619
 20
251.4016899330837
 30
0.0
 11
74.08672791108619
 21
239.1215681168916
 31
0.0
  0
LINE
  5
1A2
330
19D
100
AcDbEntity
  8
0
 62
     0
370
    -2
100
AcDbLine
 10
57.26672791108619
 20
239.3015681168916
 30
0.0
 11
65.06247791108618
 21
239.3015681168916
 31
0.0
  0
LINE
  5
1A3
330
19D
100
AcDbEntity
  8
0
 62
     0
370
    -2
100
AcDbLine
 10
73.90672791108618
 20
239.3015681168916
 30
0.0
 11
66.1109779110862
 21
239.3015681168916
 31
0.0
  0
SOLID
  5
1A4
330
19D
100
AcDbEntity
  8
0
 62
     0
100
AcDbTrace
 10
57.26672791108619
 20
239.3315681168916
 30
0.0
 11
57.26672791108619
 21
239.2715681168916
 31
0.0
 12
57.08672791108619
 22
239.3015681168916
 32
0.0
 13
57.08672791108619
 23
239.3015681168916
 33
0.0
  0
SOLID
  5
1A5
330
19D
100
AcDbEntity
  8
0
 62
     0
100
AcDbTrace
 10
73.90672791108618
 20
239.2715681168916
 30
0.0
 11
73.90672791108618
 21
239.3315681168916
 31
0.0
 12
74.08672791108619
 22
239.3015681168916
 32
0.0
 13
74.08672791108619
 23
239.3015681168916
 33
0.0
  0
MTEXT
  5
1A6
330
19D
100
AcDbEntity
  8
0
 62
     0
100
AcDbMText
 10
65.58672791108619
 20
239.3015681168916
 30
0.0
 40
0.18
 41
0.0
 71
     5
 72
     1
  1
\A1;17.0000
 73
     1
 44
1.0
  0
POINT
  5
1A7
330
19D
100
AcDbEntity
  8
Defpoints
 62
     0
100
AcDbPoint
 10
57.08672791108619
 20
251.4641899330837
 30
0.0
  0
POINT
  5
1A8
330
19D
100
AcDbEntity
  8
Defpoints
 62
     0
100
AcDbPoint
 10
74.08672791108619
 20
251.4641899330837
 30
0.0
  0
POINT
  5
1A9
330
19D
100
AcDbEntity
  8
Defpoints
 62
     0
100
AcDbPoint
 10
74.08672791108619
 20
239.3015681168916
 30
0.0
  0
ENDBLK
  5
19F
330
19D
100
AcDbEntity
  8
0
100
AcDbBlockEnd
  0
BLOCK
  5
1F5
330
1F4
100
AcDbEntity
  8
0
100
AcDbBlockBegin
  2
*D6
 70
     1
 10
0.0
 20
0.0
 30
0.0
  3
*D6
  1
*D6
  0
LINE
  5
1F7
330
1F4
100
AcDbEntity
  8
0
 62
     0
370
    -2
100
AcDbLine
 10
-281.9352983998509
 20
152.9016246533322
 30
0.0
 11
-281.9352983998509
 21
137.5445444924475
 31
0.0
  0
LINE
  5
1F8
330
1F4
100
AcDbEntity
  8
0
 62
     0
370
    -2
100
AcDbLine
 10
-31.93529839985092
 20
152.9016246533322
 30
0.0
 11
-31.93529839985092
 21
137.5445444924475
 31
0.0
  0
LINE
  5
1F9
330
1F4
100
AcDbEntity
  8
0
 62
     0
370
    -2
100
AcDbLine
 10
-281.7552983998509
 20
137.7245444924475
 30
0.0
 11
-157.5393783998509
 21
137.7245444924475
 31
0.0
  0
LINE
  5
1FA
330
1F4
100
AcDbEntity
  8
0
 62
     0
370
    -2
100
AcDbLine
 10
-32.11529839985092
 20
137.7245444924475
 30
0.0
 11
-156.3312183998509
 21
137.7245444924475
 31
0.0
  0
SOLID
  5
1FB
330
1F4
100
AcDbEntity
  8
0
 62
     0
100
AcDbTrace
 10
-281.7552983998509
 20
137.7545444924475
 30
0.0
 11
-281.7552983998509
 21
137.6945444924475
 31
0.0
 12
-281.9352983998509
 22
137.7245444924475
 32
0.0
 13
-281.9352983998509
 23
137.7245444924475
 33
0.0
  0
SOLID
  5
1FC
330
1F4
100
AcDbEntity
  8
0
 62
     0
100
AcDbTrace
 10
-32.11529839985092
 20
137.6945444924475
 30
0.0
 11
-32.11529839985092
 21
137.7545444924475
 31
0.0
 12
-31.93529839985092
 22
137.7245444924475
 32
0.0
 13
-31.93529839985092
 23
137.7245444924475
 33
0.0
  0
MTEXT
  5
1FD
330
1F4
100
AcDbEntity
  8
0
 62
     0
100
AcDbMText
 10
-156.9352983998509
 20
137.7245444924475
 30
0.0
 40
0.18
 41
0.0
 71
     5
 72
     1
  1
\A1;250.0000
 73
     1
 44
1.0
  0
POINT
  5
1FE
330
1F4
100
AcDbEntity
  8
Defpoints
 62
     0
100
AcDbPoint
 10
-281.9352983998509
 20
152.9641246533322
 30
0.0
  0
POINT
  5
1FF
330
1F4
100
AcDbEntity
  8
Defpoints
 62
     0
100
AcDbPoint
 10
-31.93529839985092
 20
152.9641246533322
 30
0.0
  0
POINT
  5
200
330
1F4
100
AcDbEntity
  8
Defpoints
 62
     0
100
AcDbPoint
 10
-31.93529839985092
 20
137.7245444924475
 30
0.0
  0
ENDBLK
  5
1F6
330
1F4
100
AcDbEntity
  8
0
100
AcDbBlockEnd
  0
BLOCK
  5
205
330
204
100
AcDbEntity
  8
0
100
AcDbBlockBegin
  2
*D7
 70
     1
 10
0.0
 20
0.0
 30
0.0
  3
*D7
  1
*D7
  0
LINE
  5
207
330
204
100
AcDbEntity
  8
0
 62
     0
370
    -2
100
AcDbLine
 10
-281.9352983998509
 20
254.9016694760251
 30
0.0
 11
-281.9352983998509
 21
234.8811585516373
 31
0.0
  0
LINE
  5
208
330
204
100
AcDbEntity
  8
0
 62
     0
370
    -2
100
AcDbLine
 10
-72.9352983998509
 20
254.9016694760251
 30
0.0
 11
-72.9352983998509
 21
234.8811585516373
 31
0.0
  0
LINE
  5
209
330
204
100
AcDbEntity
  8
0
 62
     0
370
    -2
100
AcDbLine
 10
-281.7552983998509
 20
235.0611585516373
 30
0.0
 11
-178.0393783998509
 21
235.0611585516373
 31
0.0
  0
LINE
  5
20A
330
204
100
AcDbEntity
  8
0
 62
     0
370
    -2
100
AcDbLine
 10
-73.1152983998509
 20
235.0611585516373
 30
0.0
 11
-176.8312183998509
 21
235.0611585516373
 31
0.0
  0
SOLID
  5
20B
330
204
100
AcDbEntity
  8
0
 62
     0
100
AcDbTrace
 10
-281.7552983998509
 20
235.0911585516373
 30
0.0
 11
-281.7552983998509
 21
235.0311585516373
 31
0.0
 12
-281.9352983998509
 22
235.0611585516373
 32
0.0
 13
-281.9352983998509
 23
235.0611585516373
 33
0.0
  0
SOLID
  5
20C
330
204
100
AcDbEntity
  8
0
 62
     0
100
AcDbTrace
 10
-73.1152983998509
 20
235.0311585516373
 30
0.0
 11
-73.1152983998509
 21
235.0911585516373
 31
0.0
 12
-72.9352983998509
 22
235.0611585516373
 32
0.0
 13
-72.9352983998509
 23
235.0611585516373
 33
0.0
  0
MTEXT
  5
20D
330
204
100
AcDbEntity
  8
0
 62
     0
100
AcDbMText
 10
-177.4352983998509
 20
235.0611585516373
 30
0.0
 40
0.18
 41
0.0
 71
     5
 72
     1
  1
\A1;209.0000
 73
     1
 44
1.0
  0
POINT
  5
20E
330
204
100
AcDbEntity
  8
Defpoints
 62
     0
100
AcDbPoint
 10
-281.9352983998509
 20
254.9641694760251
 30
0.0
  0
POINT
  5
20F
330
204
100
AcDbEntity
  8
Defpoints
 62
     0
100
AcDbPoint
 10
-72.9352983998509
 20
254.9641694760251
 30
0.0
  0
POINT
  5
210
330
204
100
AcDbEntity
  8
Defpoints
 62
     0
100
AcDbPoint
 10
-72.9352983998509
 20
235.0611585516373
 30
0.0
  0
ENDBLK
  5
206
330
204
100
AcDbEntity
  8
0
100
AcDbBlockEnd
  0
BLOCK
  5
21C
330
21B
100
AcDbEntity
  8
0
100
AcDbBlockBegin
  2
*D8
 70
     1
 10
0.0
 20
0.0
 30
0.0
  3
*D8
  1
*D8
  0
LINE
  5
21E
330
21B
100
AcDbEntity
  8
0
 62
     0
370
    -2
100
AcDbLine
 10
-176.8727983998509
 20
287.9641246533322
 30
0.0
 11
-158.7130835494671
 21
287.9641246533322
 31
0.0
  0
LINE
  5
21F
330
21B
100
AcDbEntity
  8
0
 62
     0
370
    -2
100
AcDbLine
 10
-176.8727983998509
 20
259.9641246533322
 30
0.0
 11
-158.7130835494671
 21
259.9641246533322
 31
0.0
  0
LINE
  5
220
330
21B
100
AcDbEntity
  8
0
 62
     0
370
    -2
100
AcDbLine
 10
-158.8930835494671
 20
287.7841246533322
 30
0.0
 11
-158.8930835494671
 21
274.1460146533322
 31
0.0
  0
LINE
  5
221
330
21B
100
AcDbEntity
  8
0
 62
     0
370
    -2
100
AcDbLine
 10
-158.8930835494671
 20
260.1441246533323
 30
0.0
 11
-158.8930835494671
 21
273.7822346533323
 31
0.0
  0
SOLID
  5
222
330
21B
100
AcDbEntity
  8
0
 62
     0
100
AcDbTrace
 10
-158.8630835494671
 20
287.7841246533322
 30
0.0
 11
-158.9230835494671
 21
287.7841246533322
 31
0.0
 12
-158.8930835494671
 22
287.9641246533322
 32
0.0
 13
-158.8930835494671
 23
287.9641246533322
 33
0.0
  0
SOLID
  5
223
330
21B
100
AcDbEntity
  8
0
 62
     0
100
AcDbTrace
 10
-158.9230835494671
 20
260.1441246533323
 30
0.0
 11
-158.8630835494671
 21
260.1441246533323
 31
0.0
 12
-158.8930835494671
 22
259.9641246533322
 32
0.0
 13
-158.8930835494671
 23
259.9641246533322
 33
0.0
  0
MTEXT
  5
224
330
21B
100
AcDbEntity
  8
0
 62
     0
100
AcDbMText
 10
-158.8930835494671
 20
273.9641246533322
 30
0.0
 40
0.18
 41
0.0
 71
     5
 72
     1
  1
\A1;28.0000
 73
     1
 44
1.0
  0
POINT
  5
225
330
21B
100
AcDbEntity
  8
Defpoints
 62
     0
100
AcDbPoint
 10
-176.9352983998509
 20
287.9641246533322
 30
0.0
  0
POINT
  5
226
330
21B
100
AcDbEntity
  8
Defpoints
 62
     0
100
AcDbPoint
 10
-176.9352983998509
 20
259.9641246533322
 30
0.0
  0
POINT
  5
227
330
21B
100
AcDbEntity
  8
Defpoints
 62
     0
100
AcDbPoint
 10
-158.8930835494671
 20
259.9641246533322
 30
0.0
  0
ENDBLK
  5
21D
330
21B
100
AcDbEntity
  8
0
100
AcDbBlockEnd
  0
BLOCK
  5
22C
330
22B
100
AcDbEntity
  8
0
100
AcDbBlockBegin
  2
*D9
 70
     1
 10
0.0
 20
0.0
 30
0.0
  3
*D9
  1
*D9
  0
LINE
  5
22E
330
22B
100
AcDbEntity
  8
0
 62
     0
370
    -2
100
AcDbLine
 10
-158.8727983998509
 20
45.96412465333225
 30
0.0
 11
-156.7817280918234
 21
45.96412465333225
 31
0.0
  0
LINE
  5
22F
330
22B
100
AcDbEntity
  8
0
 62
     0
370
    -2
100
AcDbLine
 10
-158.8727983998509
 20
17.96412465333225
 30
0.0
 11
-156.7817280918234
 21
17.96412465333225
 31
0.0
  0
LINE
  5
230
330
22B
100
AcDbEntity
  8
0
 62
     0
370
    -2
100
AcDbLine
 10
-156.9617280918234
 20
45.78412465333225
 30
0.0
 11
-156.9617280918234
 21
32.14601465333225
 31
0.0
  0
LINE
  5
231
330
22B
100
AcDbEntity
  8
0
 62
     0
370
    -2
100
AcDbLine
 10
-156.9617280918234
 20
18.14412465333225
 30
0.0
 11
-156.9617280918234
 21
31.78223465333225
 31
0.0
  0
SOLID
  5
232
330
22B
100
AcDbEntity
  8
0
 62
     0
100
AcDbTrace
 10
-156.9317280918234
 20
45.78412465333225
 30
0.0
 11
-156.9917280918234
 21
45.78412465333225
 31
0.0
 12
-156.9617280918234
 22
45.96412465333225
 32
0.0
 13
-156.9617280918234
 23
45.96412465333225
 33
0.0
  0
SOLID
  5
233
330
22B
100
AcDbEntity
  8
0
 62
     0
100
AcDbTrace
 10
-156.9917280918234
 20
18.14412465333225
 30
0.0
 11
-156.9317280918234
 21
18.14412465333225
 31
0.0
 12
-156.9617280918234
 22
17.96412465333225
 32
0.0
 13
-156.9617280918234
 23
17.96412465333225
 33
0.0
  0
MTEXT
  5
234
330
22B
100
AcDbEntity
  8
0
 62
     0
100
AcDbMText
 10
-156.9617280918234
 20
31.96412465333225
 30
0.0
 40
0.18
 41
0.0
 71
     5
 72
     1
  1
\A1;28.0000
 73
     1
 44
1.0
  0
POINT
  5
235
330
22B
100
AcDbEntity
  8
Defpoints
 62
     0
100
AcDbPoint
 10
-158.9352983998509
 20
45.96412465333225
 30
0.0
  0
POINT
  5
236
330
22B
100
AcDbEntity
  8
Defpoints
 62
     0
100
AcDbPoint
 10
-158.9352983998509
 20
17.96412465333225
 30
0.0
  0
POINT
  5
237
330
22B
100
AcDbEntity
  8
Defpoints
 62
     0
100
AcDbPoint
 10
-156.9617280918234
 20
17.96412465333225
 30
0.0
  0
ENDBLK
  5
22D
330
22B
100
AcDbEntity
  8
0
100
AcDbBlockEnd
  0
ENDSEC
  0
SECTION
  2
ENTITIES
  0
CIRCLE
  5
161
102
{ACAD_REACTORS
102
}
330
1F
100
AcDbEntity
  8
CAMA ALUMINIO 12MM
  6
ByBlock
 62
     1
100
AcDbCircle
 10
51.87471130322611
 20
277.9641899330837
 30
0.0
 40
10.7
  0
CIRCLE
  5
162
330
1F
100
AcDbEntity
  8
CAMA ALUMINIO 12MM
  6
ByBlock
 62
     1
100
AcDbCircle
 10
63.18841980221096
 20
289.2778984320685
 30
0.0
 40
2.25
  0
CIRCLE
  5
163
330
1F
100
AcDbEntity
  8
CAMA ALUMINIO 12MM
  6
ByBlock
 62
     1
100
AcDbCircle
 10
63.18841980221096
 20
266.6504814340988
 30
0.0
 40
2.25
  0
CIRCLE
  5
164
330
1F
100
AcDbEntity
  8
CAMA ALUMINIO 12MM
  6
ByBlock
 62
     1
100
AcDbCircle
 10
40.56100280424216
 20
289.2778984320685
 30
0.0
 40
2.25
  0
CIRCLE
  5
165
330
1F
100
AcDbEntity
  8
CAMA ALUMINIO 12MM
  6
ByBlock
 62
     1
100
AcDbCircle
 10
40.56100280424216
 20
266.6504814340988
 30
0.0
 40
2.25
  0
CIRCLE
  5
166
102
{ACAD_REACTORS
102
}
330
1F
100
AcDbEntity
  8
CAMA ALUMINIO 12MM
  6
ByBlock
 62
     1
100
AcDbCircle
 10
51.87471130322611
 20
27.96405937357968
 30
0.0
 40
10.7
  0
CIRCLE
  5
167
330
1F
100
AcDbEntity
  8
CAMA ALUMINIO 12MM
  6
ByBlock
 62
     1
100
AcDbCircle
 10
63.18841980221096
 20
16.6503508745946
 30
0.0
 40
2.25
  0
CIRCLE
  5
168
330
1F
100
AcDbEntity
  8
CAMA ALUMINIO 12MM
  6
ByBlock
 62
     1
100
AcDbCircle
 10
63.18841980221096
 20
39.27776787256476
 30
0.0
 40
2.25
  0
CIRCLE
  5
169
330
1F
100
AcDbEntity
  8
CAMA ALUMINIO 12MM
  6
ByBlock
 62
     1
100
AcDbCircle
 10
40.56100280424216
 20
16.6503508745946
 30
0.0
 40
2.25
  0
CIRCLE
  5
16A
330
1F
100
AcDbEntity
  8
CAMA ALUMINIO 12MM
  6
ByBlock
 62
     1
100
AcDbCircle
 10
40.56100280424216
 20
39.27776787256476
 30
0.0
 40
2.25
  0
CIRCLE
  5
16C
330
1F
100
AcDbEntity
  8
CAMA ALUMINIO 12MM
 62
     1
100
AcDbCircle
 10
40.41316718566505
 20
145.2141246533316
 30
0.0
 40
1.5875
  0
CIRCLE
  5
16D
330
1F
100
AcDbEntity
  8
CAMA ALUMINIO 12MM
 62
     1
100
AcDbCircle
 10
40.41316718566505
 20
152.9641246533316
 30
0.0
 40
5.05
  0
CIRCLE
  5
16E
330
1F
100
AcDbEntity
  8
CAMA ALUMINIO 12MM
 62
     1
100
AcDbCircle
 10
40.41316718566505
 20
160.7141246533316
 30
0.0
 40
1.5875
  0
CIRCLE
  5
16F
330
1F
100
AcDbEntity
  8
CAMA ALUMINIO 12MM
 62
     1
100
AcDbCircle
 10
48.16316718566505
 20
152.9641246533316
 30
0.0
 40
1.5875
  0
CIRCLE
  5
170
330
1F
100
AcDbEntity
  8
CAMA ALUMINIO 12MM
 62
     1
100
AcDbCircle
 10
32.66316718566505
 20
152.9641246533316
 30
0.0
 40
1.5875
  0
LWPOLYLINE
  5
174
102
{ACAD_REACTORS
102
}
330
1F
100
AcDbEntity
  8
CAMA ALUMINIO 12MM
 62
     1
100
AcDbPolyline
 90
        5
 70
     0
 43
0.0
 10
23.3867279110862
 20
297.9641246533322
 10
23.3867279110862
 20
7.964124653332249
 10
74.08672791108619
 20
7.964124653332249
 10
74.08672791108619
 20
297.9641246533322
 10
23.3867279110862
 20
297.9641246533322
  0
CIRCLE
  5
196
102
{ACAD_REACTORS
102
}
330
1F
100
AcDbEntity
  8
CAMA ALUMINIO 12MM
 62
     1
100
AcDbCircle
 10
58.08672791108619
 20
251.4641899330837
 30
0.0
 40
1.5
  0
CIRCLE
  5
197
330
1F
100
AcDbEntity
  8
CAMA ALUMINIO 12MM
 62
     1
100
AcDbCircle
 10
58.08672791108619
 20
54.46405937357968
 30
0.0
 40
1.5
  0
CIRCLE
  5
198
330
1F
100
AcDbEntity
  8
CAMA ALUMINIO 12MM
 62
     1
100
AcDbCircle
 10
38.08672791108619
 20
251.4641899330837
 30
0.0
 40
1.5
  0
CIRCLE
  5
199
330
1F
100
AcDbEntity
  8
CAMA ALUMINIO 12MM
 62
     1
100
AcDbCircle
 10
38.08672791108619
 20
54.46405937357968
 30
0.0
 40
1.5
  0
ENDSEC
  0
SECTION
  2
OBJECTS
  0
DICTIONARY
  5
C
330
0
100
AcDbDictionary
281
     1
  3
ACAD_DETAILVIEWSTYLE
350
122
  3
ACAD_GROUP
350
D
  3
ACAD_IMAGE_VARS
350
DC
  3
ACAD_LAYOUT
350
1A
  3
ACAD_MLINESTYLE
350
17
  3
ACAD_PLOTSETTINGS
350
19
  3
ACAD_PLOTSTYLENAME
350
E
  3
ACAD_SCALELIST
350
B6
  3
ACAD_SECTIONVIEWSTYLE
350
123
  3
AcDbVariableDictionary
350
66
  3
APPDATA
350
E1
  3
DWGPROPS
350
23C
  0
DICTIONARY
  5
15C
330
2
100
AcDbDictionary
280
     1
281
     1
  3
ACAD_LAYERSTATES
360
15D
  0
DICTIONARY
  5
122
102
{ACAD_REACTORS
330
C
102
}
330
C
100
AcDbDictionary
281
     1
  0
DICTIONARY
  5
D
102
{ACAD_REACTORS
330
C
102
}
330
C
100
AcDbDictionary
281
     1
  0
RASTERVARIABLES
  5
DC
102
{ACAD_REACTORS
330
C
102
}
330
C
100
AcDbRasterVariables
 90
        0
 70
     1
 71
     1
 72
     5
  0
DICTIONARY
  5
1A
102
{ACAD_REACTORS
330
C
102
}
330
C
100
AcDbDictionary
281
     1
  3
Model
350
22
  3
Sheet1
350
59
  3
Sheet2
350
5E
  0
DICTIONARY
  5
17
102
{ACAD_REACTORS
330
C
102
}
330
C
100
AcDbDictionary
281
     1
  3
Standard
350
18
  0
DICTIONARY
  5
19
102
{ACAD_REACTORS
330
C
102
}
330
C
100
AcDbDictionary
281
     1
  0
ACDBDICTIONARYWDFLT
  5
E
102
{ACAD_REACTORS
330
C
102
}
330
C
100
AcDbDictionary
281
     1
  3
Normal
350
F
100
AcDbDictionaryWithDefault
340
F
  0
DICTIONARY
  5
B6
102
{ACAD_REACTORS
330
C
102
}
330
C
100
AcDbDictionary
281
     1
  3
A0
350
B7
  3
A1
350
B8
  3
A2
350
B9
  3
A3
350
BA
  3
A4
350
BB
  3
A5
350
BC
  3
A6
350
BD
  3
A7
350
BE
  3
A8
350
BF
  3
A9
350
C0
  3
B0
350
C1
  3
B1
350
C2
  3
B2
350
C3
  3
B3
350
C4
  3
B4
350
C5
  3
B5
350
C6
  3
B6
350
C7
  3
B7
350
C8
  3
B8
350
C9
  3
B9
350
CA
  3
C0
350
CB
  3
C1
350
CC
  3
C2
350
CD
  3
C3
350
CE
  3
C4
350
CF
  3
C5
350
D0
  3
C6
350
D1
  3
C7
350
D2
  3
C8
350
D3
  3
C9
350
D4
  3
D0
350
D5
  3
D1
350
D6
  3
D2
350
D7
  0
DICTIONARY
  5
123
102
{ACAD_REACTORS
330
C
102
}
330
C
100
AcDbDictionary
281
     1
  0
DICTIONARY
  5
66
102
{ACAD_REACTORS
330
C
102
}
330
C
100
AcDbDictionary
281
     1
  3
DIMASSOC
350
67
  3
HIDETEXT
350
6B
  0
DICTIONARY
  5
E1
102
{ACAD_REACTORS
330
C
102
}
330
C
100
AcDbDictionary
281
     1
  0
XRECORD
  5
23C
102
{ACAD_REACTORS
330
C
102
}
330
C
100
AcDbXrecord
280
     1
  1
DWGPROPS COOKIE
  2

  3

  4

  6

  7

  8
Desarrollo
  9

300
=
301
=
302
=
303
=
304
=
305
=
306
=
307
=
308
=
309
=
 40
0.0
 41
2452643.063384271
 42
2457345.746201146
  1

 90
        0
  0
DICTIONARY
  5
15D
102
{ACAD_REACTORS
330
15C
102
}
330
15C
100
AcDbDictionary
281
     1
  0
LAYOUT
  5
22
102
{ACAD_REACTORS
330
1A
102
}
330
1A
100
AcDbPlotSettings
  1

  2
none_device
  4
ANSI_A_(8.50_x_11.00_Inches)
  6

 40
6.35
 41
19.05
 42
6.35
 43
19.05
 44
215.9
 45
279.4
 46
11.11250000000003
 47
0.0000000000000142
 48
0.0
 49
0.0
140
0.0
141
0.0
142
1.0
143
1.263157894736842
 70
 11444
 72
     0
 73
     1
 74
     1
  7
monochrome.ctb
 75
     0
147
0.7916666666666665
148
-702.8076765758875
149
-496.2830551296954
100
AcDbLayout
  1
Model
 70
     1
 71
     0
 10
0.0
 20
0.0
 11
12.0
 21
9.0
 12
0.0
 22
0.0
 32
0.0
 14
1.000000000000000E+20
 24
1.000000000000000E+20
 34
1.000000000000000E+20
 15
-1.000000000000000E+20
 25
-1.000000000000000E+20
 35
-1.000000000000000E+20
146
0.0
 13
0.0
 23
0.0
 33
0.0
 16
1.0
 26
0.0
 36
0.0
 17
0.0
 27
1.0
 37
0.0
 76
     0
330
1F
331
94
  0
LAYOUT
  5
59
102
{ACAD_REACTORS
330
1A
102
}
330
1A
100
AcDbPlotSettings
  1

  2
None
  4

  6

 40
0.0
 41
0.0
 42
0.0
 43
0.0
 44
0.0
 45
0.0
 46
0.0
 47
0.0
 48
0.0
 49
0.0
140
0.0
141
0.0
142
1.0
143
1.0
 70
   688
 72
     0
 73
     0
 74
     5
  7

 75
    16
147
1.0
148
0.0
149
0.0
100
AcDbLayout
  1
Sheet1
 70
     1
 71
     1
 10
0.0
 20
0.0
 11
12.0
 21
9.0
 12
0.0
 22
0.0
 32
0.0
 14
0.0
 24
0.0
 34
0.0
 15
0.0
 25
0.0
 35
0.0
146
0.0
 13
0.0
 23
0.0
 33
0.0
 16
1.0
 26
0.0
 36
0.0
 17
0.0
 27
1.0
 37
0.0
 76
     0
330
58
  0
LAYOUT
  5
5E
102
{ACAD_REACTORS
330
1A
102
}
330
1A
100
AcDbPlotSettings
  1

  2
None
  4

  6

 40
0.0
 41
0.0
 42
0.0
 43
0.0
 44
0.0
 45
0.0
 46
0.0
 47
0.0
 48
0.0
 49
0.0
140
0.0
141
0.0
142
1.0
143
1.0
 70
   688
 72
     0
 73
     0
 74
     5
  7

 75
    16
147
1.0
148
0.0
149
0.0
100
AcDbLayout
  1
Sheet2
 70
     1
 71
     2
 10
0.0
 20
0.0
 11
12.0
 21
9.0
 12
0.0
 22
0.0
 32
0.0
 14
0.0
 24
0.0
 34
0.0
 15
0.0
 25
0.0
 35
0.0
146
0.0
 13
0.0
 23
0.0
 33
0.0
 16
1.0
 26
0.0
 36
0.0
 17
0.0
 27
1.0
 37
0.0
 76
     0
330
5D
  0
MLINESTYLE
  5
18
102
{ACAD_REACTORS
330
17
102
}
330
17
100
AcDbMlineStyle
  2
STANDARD
 70
     0
  3

 62
   256
 51
90.0
 52
90.0
 71
     2
 49
0.5
 62
   256
  6
BYLAYER
 49
-0.5
 62
   256
  6
BYLAYER
  0
ACDBPLACEHOLDER
  5
F
102
{ACAD_REACTORS
330
E
102
}
330
E
  0
SCALE
  5
B7
102
{ACAD_REACTORS
330
B6
102
}
330
B6
100
AcDbScale
 70
     0
300
1:1
140
1.0
141
1.0
290
     1
  0
SCALE
  5
B8
102
{ACAD_REACTORS
330
B6
102
}
330
B6
100
AcDbScale
 70
     0
300
1:2
140
1.0
141
2.0
290
     0
  0
SCALE
  5
B9
102
{ACAD_REACTORS
330
B6
102
}
330
B6
100
AcDbScale
 70
     0
300
1:4
140
1.0
141
4.0
290
     0
  0
SCALE
  5
BA
102
{ACAD_REACTORS
330
B6
102
}
330
B6
100
AcDbScale
 70
     0
300
1:5
140
1.0
141
5.0
290
     0
  0
SCALE
  5
BB
102
{ACAD_REACTORS
330
B6
102
}
330
B6
100
AcDbScale
 70
     0
300
1:8
140
1.0
141
8.0
290
     0
  0
SCALE
  5
BC
102
{ACAD_REACTORS
330
B6
102
}
330
B6
100
AcDbScale
 70
     0
300
1:10
140
1.0
141
10.0
290
     0
  0
SCALE
  5
BD
102
{ACAD_REACTORS
330
B6
102
}
330
B6
100
AcDbScale
 70
     0
300
1:16
140
1.0
141
16.0
290
     0
  0
SCALE
  5
BE
102
{ACAD_REACTORS
330
B6
102
}
330
B6
100
AcDbScale
 70
     0
300
1:20
140
1.0
141
20.0
290
     0
  0
SCALE
  5
BF
102
{ACAD_REACTORS
330
B6
102
}
330
B6
100
AcDbScale
 70
     0
300
1:30
140
1.0
141
30.0
290
     0
  0
SCALE
  5
C0
102
{ACAD_REACTORS
330
B6
102
}
330
B6
100
AcDbScale
 70
     0
300
1:40
140
1.0
141
40.0
290
     0
  0
SCALE
  5
C1
102
{ACAD_REACTORS
330
B6
102
}
330
B6
100
AcDbScale
 70
     0
300
1:50
140
1.0
141
50.0
290
     0
  0
SCALE
  5
C2
102
{ACAD_REACTORS
330
B6
102
}
330
B6
100
AcDbScale
 70
     0
300
1:100
140
1.0
141
100.0
290
     0
  0
SCALE
  5
C3
102
{ACAD_REACTORS
330
B6
102
}
330
B6
100
AcDbScale
 70
     0
300
2:1
140
2.0
141
1.0
290
     0
  0
SCALE
  5
C4
102
{ACAD_REACTORS
330
B6
102
}
330
B6
100
AcDbScale
 70
     0
300
4:1
140
4.0
141
1.0
290
     0
  0
SCALE
  5
C5
102
{ACAD_REACTORS
330
B6
102
}
330
B6
100
AcDbScale
 70
     0
300
8:1
140
8.0
141
1.0
290
     0
  0
SCALE
  5
C6
102
{ACAD_REACTORS
330
B6
102
}
330
B6
100
AcDbScale
 70
     0
300
10:1
140
10.0
141
1.0
290
     0
  0
SCALE
  5
C7
102
{ACAD_REACTORS
330
B6
102
}
330
B6
100
AcDbScale
 70
     0
300
100:1
140
100.0
141
1.0
290
     0
  0
SCALE
  5
C8
102
{ACAD_REACTORS
330
B6
102
}
330
B6
100
AcDbScale
 70
     0
300
1/128" = 1'-0"
140
0.0078125
141
12.0
290
     0
  0
SCALE
  5
C9
102
{ACAD_REACTORS
330
B6
102
}
330
B6
100
AcDbScale
 70
     0
300
1/64" = 1'-0"
140
0.015625
141
12.0
290
     0
  0
SCALE
  5
CA
102
{ACAD_REACTORS
330
B6
102
}
330
B6
100
AcDbScale
 70
     0
300
1/32" = 1'-0"
140
0.03125
141
12.0
290
     0
  0
SCALE
  5
CB
102
{ACAD_REACTORS
330
B6
102
}
330
B6
100
AcDbScale
 70
     0
300
1/16" = 1'-0"
140
0.0625
141
12.0
290
     0
  0
SCALE
  5
CC
102
{ACAD_REACTORS
330
B6
102
}
330
B6
100
AcDbScale
 70
     0
300
3/32" = 1'-0"
140
0.09375
141
12.0
290
     0
  0
SCALE
  5
CD
102
{ACAD_REACTORS
330
B6
102
}
330
B6
100
AcDbScale
 70
     0
300
1/8" = 1'-0"
140
0.125
141
12.0
290
     0
  0
SCALE
  5
CE
102
{ACAD_REACTORS
330
B6
102
}
330
B6
100
AcDbScale
 70
     0
300
3/16" = 1'-0"
140
0.1875
141
12.0
290
     0
  0
SCALE
  5
CF
102
{ACAD_REACTORS
330
B6
102
}
330
B6
100
AcDbScale
 70
     0
300
1/4" = 1'-0"
140
0.25
141
12.0
290
     0
  0
SCALE
  5
D0
102
{ACAD_REACTORS
330
B6
102
}
330
B6
100
AcDbScale
 70
     0
300
3/8" = 1'-0"
140
0.375
141
12.0
290
     0
  0
SCALE
  5
D1
102
{ACAD_REACTORS
330
B6
102
}
330
B6
100
AcDbScale
 70
     0
300
1/2" = 1'-0"
140
0.5
141
12.0
290
     0
  0
SCALE
  5
D2
102
{ACAD_REACTORS
330
B6
102
}
330
B6
100
AcDbScale
 70
     0
300
3/4" = 1'-0"
140
0.75
141
12.0
290
     0
  0
SCALE
  5
D3
102
{ACAD_REACTORS
330
B6
102
}
330
B6
100
AcDbScale
 70
     0
300
1" = 1'-0"
140
1.0
141
12.0
290
     0
  0
SCALE
  5
D4
102
{ACAD_REACTORS
330
B6
102
}
330
B6
100
AcDbScale
 70
     0
300
1-1/2" = 1'-0"
140
1.5
141
12.0
290
     0
  0
SCALE
  5
D5
102
{ACAD_REACTORS
330
B6
102
}
330
B6
100
AcDbScale
 70
     0
300
3" = 1'-0"
140
3.0
141
12.0
290
     0
  0
SCALE
  5
D6
102
{ACAD_REACTORS
330
B6
102
}
330
B6
100
AcDbScale
 70
     0
300
6" = 1'-0"
140
6.0
141
12.0
290
     0
  0
SCALE
  5
D7
102
{ACAD_REACTORS
330
B6
102
}
330
B6
100
AcDbScale
 70
     0
300
1'-0" = 1'-0"
140
12.0
141
12.0
290
     0
  0
DICTIONARYVAR
  5
67
102
{ACAD_REACTORS
330
66
102
}
330
66
100
DictionaryVariables
280
     0
  1
2
  0
DICTIONARYVAR
  5
6B
102
{ACAD_REACTORS
330
66
102
}
330
66
100
DictionaryVariables
280
     0
  1
1
  0
ENDSEC
  0
EOF
