  0
SECTION
  2
HEADER
  9
$ACADVER
  1
AC1015
  9
$ACADMAINTVER
 70
     6
  9
$DWGCODEPAGE
  3
ANSI_1252
  9
$INSBASE
 10
0.0
 20
0.0
 30
0.0
  9
$EXTMIN
 10
0.4587400806786945
 20
-206.272294862761
 30
0.0
  9
$EXTMAX
 10
264.4587400806787
 20
31.72770513723896
 30
0.0
  9
$LIMMIN
 10
0.0
 20
0.0
  9
$LIMMAX
 10
12.0
 20
9.0
  9
$ORTHOMODE
 70
     1
  9
$REGENMODE
 70
     1
  9
$FILLMODE
 70
     1
  9
$QTEXTMODE
 70
     0
  9
$MIRRTEXT
 70
     0
  9
$LTSCALE
 40
1.0
  9
$ATTMODE
 70
     1
  9
$TEXTSIZE
 40
0.2
  9
$TRACEWID
 40
0.05
  9
$TEXTSTYLE
  7
Standard
  9
$CLAYER
  8
CUT
  9
$CELTYPE
  6
ByLayer
  9
$CECOLOR
 62
   256
  9
$CELTSCALE
 40
1.0
  9
$DISPSILH
 70
     0
  9
$DIMSCALE
 40
1.0
  9
$DIMASZ
 40
0.18
  9
$DIMEXO
 40
0.0625
  9
$DIMDLI
 40
0.38
  9
$DIMRND
 40
0.0
  9
$DIMDLE
 40
0.0
  9
$DIMEXE
 40
0.18
  9
$DIMTP
 40
0.0
  9
$DIMTM
 40
0.0
  9
$DIMTXT
 40
0.18
  9
$DIMCEN
 40
0.09
  9
$DIMTSZ
 40
0.0
  9
$DIMTOL
 70
     0
  9
$DIMLIM
 70
     0
  9
$DIMTIH
 70
     1
  9
$DIMTOH
 70
     1
  9
$DIMSE1
 70
     0
  9
$DIMSE2
 70
     0
  9
$DIMTAD
 70
     0
  9
$DIMZIN
 70
     0
  9
$DIMBLK
  1

  9
$DIMASO
 70
     1
  9
$DIMSHO
 70
     1
  9
$DIMPOST
  1

  9
$DIMAPOST
  1

  9
$DIMALT
 70
     0
  9
$DIMALTD
 70
     2
  9
$DIMALTF
 40
25.4
  9
$DIMLFAC
 40
1.0
  9
$DIMTOFL
 70
     0
  9
$DIMTVP
 40
0.0
  9
$DIMTIX
 70
     0
  9
$DIMSOXD
 70
     0
  9
$DIMSAH
 70
     0
  9
$DIMBLK1
  1

  9
$DIMBLK2
  1

  9
$DIMSTYLE
  2
Standard
  9
$DIMCLRD
 70
     0
  9
$DIMCLRE
 70
     0
  9
$DIMCLRT
 70
     0
  9
$DIMTFAC
 40
1.0
  9
$DIMGAP
 40
0.09
  9
$DIMJUST
 70
     0
  9
$DIMSD1
 70
     0
  9
$DIMSD2
 70
     0
  9
$DIMTOLJ
 70
     1
  9
$DIMTZIN
 70
     0
  9
$DIMALTZ
 70
     0
  9
$DIMALTTZ
 70
     0
  9
$DIMUPT
 70
     0
  9
$DIMDEC
 70
     4
  9
$DIMTDEC
 70
     4
  9
$DIMALTU
 70
     2
  9
$DIMALTTD
 70
     2
  9
$DIMTXSTY
  7
Standard
  9
$DIMAUNIT
 70
     0
  9
$DIMADEC
 70
     0
  9
$DIMALTRND
 40
0.0
  9
$DIMAZIN
 70
     0
  9
$DIMDSEP
 70
    46
  9
$DIMATFIT
 70
     3
  9
$DIMFRAC
 70
     0
  9
$DIMLDRBLK
  1

  9
$DIMLUNIT
 70
     2
  9
$DIMLWD
 70
    -2
  9
$DIMLWE
 70
    -2
  9
$DIMTMOVE
 70
     0
  9
$LUNITS
 70
     2
  9
$LUPREC
 70
     4
  9
$SKETCHINC
 40
0.1
  9
$FILLETRAD
 40
0.0
  9
$AUNITS
 70
     0
  9
$AUPREC
 70
     0
  9
$MENU
  1
.
  9
$ELEVATION
 40
0.0
  9
$PELEVATION
 40
0.0
  9
$THICKNESS
 40
0.0
  9
$LIMCHECK
 70
     0
  9
$CHAMFERA
 40
0.0
  9
$CHAMFERB
 40
0.0
  9
$CHAMFERC
 40
0.0
  9
$CHAMFERD
 40
0.0
  9
$SKPOLY
 70
     0
  9
$TDCREATE
 40
2452642.813384271
  9
$TDUCREATE
 40
2452643.063384271
  9
$TDUPDATE
 40
2457416.569474896
  9
$TDUUPDATE
 40
2457416.819474896
  9
$TDINDWG
 40
0.0141325347
  9
$TDUSRTIMER
 40
2457416.819432755
  9
$USRTIMER
 70
     1
  9
$ANGBASE
 50
0.0
  9
$ANGDIR
 70
     0
  9
$PDMODE
 70
     0
  9
$PDSIZE
 40
0.0
  9
$PLINEWID
 40
0.0
  9
$SPLFRAME
 70
     0
  9
$SPLINETYPE
 70
     6
  9
$SPLINESEGS
 70
     8
  9
$HANDSEED
  5
356
  9
$SURFTAB1
 70
     6
  9
$SURFTAB2
 70
     6
  9
$SURFTYPE
 70
     6
  9
$SURFU
 70
     6
  9
$SURFV
 70
     6
  9
$UCSBASE
  2

  9
$UCSNAME
  2

  9
$UCSORG
 10
0.0
 20
0.0
 30
0.0
  9
$UCSXDIR
 10
1.0
 20
0.0
 30
0.0
  9
$UCSYDIR
 10
0.0
 20
1.0
 30
0.0
  9
$UCSORTHOREF
  2

  9
$UCSORTHOVIEW
 70
     0
  9
$UCSORGTOP
 10
0.0
 20
0.0
 30
0.0
  9
$UCSORGBOTTOM
 10
0.0
 20
0.0
 30
0.0
  9
$UCSORGLEFT
 10
0.0
 20
0.0
 30
0.0
  9
$UCSORGRIGHT
 10
0.0
 20
0.0
 30
0.0
  9
$UCSORGFRONT
 10
0.0
 20
0.0
 30
0.0
  9
$UCSORGBACK
 10
0.0
 20
0.0
 30
0.0
  9
$PUCSBASE
  2

  9
$PUCSNAME
  2

  9
$PUCSORG
 10
0.0
 20
0.0
 30
0.0
  9
$PUCSXDIR
 10
1.0
 20
0.0
 30
0.0
  9
$PUCSYDIR
 10
0.0
 20
1.0
 30
0.0
  9
$PUCSORTHOREF
  2

  9
$PUCSORTHOVIEW
 70
     0
  9
$PUCSORGTOP
 10
0.0
 20
0.0
 30
0.0
  9
$PUCSORGBOTTOM
 10
0.0
 20
0.0
 30
0.0
  9
$PUCSORGLEFT
 10
0.0
 20
0.0
 30
0.0
  9
$PUCSORGRIGHT
 10
0.0
 20
0.0
 30
0.0
  9
$PUCSORGFRONT
 10
0.0
 20
0.0
 30
0.0
  9
$PUCSORGBACK
 10
0.0
 20
0.0
 30
0.0
  9
$USERI1
 70
     0
  9
$USERI2
 70
     0
  9
$USERI3
 70
     0
  9
$USERI4
 70
     0
  9
$USERI5
 70
     0
  9
$USERR1
 40
0.0
  9
$USERR2
 40
0.0
  9
$USERR3
 40
0.0
  9
$USERR4
 40
0.0
  9
$USERR5
 40
0.0
  9
$WORLDVIEW
 70
     1
  9
$SHADEDGE
 70
     3
  9
$SHADEDIF
 70
    70
  9
$TILEMODE
 70
     1
  9
$MAXACTVP
 70
    64
  9
$PINSBASE
 10
0.0
 20
0.0
 30
0.0
  9
$PLIMCHECK
 70
     0
  9
$PEXTMIN
 10
0.0
 20
0.0
 30
0.0
  9
$PEXTMAX
 10
0.0
 20
0.0
 30
0.0
  9
$PLIMMIN
 10
0.0
 20
0.0
  9
$PLIMMAX
 10
0.0
 20
0.0
  9
$UNITMODE
 70
     0
  9
$VISRETAIN
 70
     1
  9
$PLINEGEN
 70
     0
  9
$PSLTSCALE
 70
     1
  9
$TREEDEPTH
 70
  3020
  9
$CMLSTYLE
  2
Standard
  9
$CMLJUST
 70
     0
  9
$CMLSCALE
 40
1.0
  9
$PROXYGRAPHICS
 70
     1
  9
$MEASUREMENT
 70
     0
  9
$CELWEIGHT
370
    -1
  9
$ENDCAPS
280
     0
  9
$JOINSTYLE
280
     0
  9
$LWDISPLAY
290
     0
  9
$INSUNITS
 70
     4
  9
$HYPERLINKBASE
  1

  9
$STYLESHEET
  1

  9
$XEDIT
290
     1
  9
$CEPSNTYPE
380
     0
  9
$PSTYLEMODE
290
     0
  9
$FINGERPRINTGUID
  2
{FDEAD576-A652-11D2-9A35-0060089B3A3F}
  9
$VERSIONGUID
  2
{FBC2AE19-5C5C-49EC-81BC-71B1A3362A02}
  9
$EXTNAMES
290
     1
  9
$PSVPSCALE
 40
0.0
  9
$OLESTARTUP
290
     0
  0
ENDSEC
  0
SECTION
  2
CLASSES
  0
CLASS
  1
ACDBDICTIONARYWDFLT
  2
AcDbDictionaryWithDefault
  3
ObjectDBX Classes
 90
        0
280
     0
281
     0
  0
CLASS
  1
ACDBPLACEHOLDER
  2
AcDbPlaceHolder
  3
ObjectDBX Classes
 90
        0
280
     0
281
     0
  0
CLASS
  1
LAYOUT
  2
AcDbLayout
  3
ObjectDBX Classes
 90
        0
280
     0
281
     0
  0
CLASS
  1
DICTIONARYVAR
  2
AcDbDictionaryVar
  3
ObjectDBX Classes
 90
        0
280
     0
281
     0
  0
CLASS
  1
TABLESTYLE
  2
AcDbTableStyle
  3
ObjectDBX Classes
 90
     4095
280
     0
281
     0
  0
CLASS
  1
MATERIAL
  2
AcDbMaterial
  3
ObjectDBX Classes
 90
     1153
280
     0
281
     0
  0
CLASS
  1
VISUALSTYLE
  2
AcDbVisualStyle
  3
ObjectDBX Classes
 90
     4095
280
     0
281
     0
  0
CLASS
  1
SCALE
  2
AcDbScale
  3
ObjectDBX Classes
 90
     1153
280
     0
281
     0
  0
CLASS
  1
CELLSTYLEMAP
  2
AcDbCellStyleMap
  3
ObjectDBX Classes
 90
     1152
280
     0
281
     0
  0
CLASS
  1
RASTERVARIABLES
  2
AcDbRasterVariables
  3
ISM
 90
        0
280
     0
281
     0
  0
CLASS
  1
SUN
  2
AcDbSun
  3
SCENEOE
 90
     1153
280
     0
281
     0
  0
CLASS
  1
MLEADERSTYLE
  2
AcDbMLeaderStyle
  3
ACDB_MLEADERSTYLE_CLASS
 90
     4095
280
     0
281
     0
  0
CLASS
  1
DIMASSOC
  2
AcDbDimAssoc
  3
"AcDbDimAssoc|Product Desc:     AcDim ARX App For Dimension|Company:          Autodesk, Inc.|WEB Address:      www.autodesk.com"
 90
        0
280
     0
281
     0
  0
ENDSEC
  0
SECTION
  2
TABLES
  0
TABLE
  2
VPORT
  5
8
330
0
100
AcDbSymbolTable
 70
     1
  0
VPORT
  5
94
330
8
100
AcDbSymbolTableRecord
100
AcDbViewportTableRecord
  2
*Active
 70
     0
 10
0.0
 20
0.0
 11
1.0
 21
1.0
 12
160.1283336466585
 22
-67.73359190489899
 13
0.0
 23
0.0
 14
0.5
 24
0.5
 15
0.5
 25
0.5
 16
0.0
 26
0.0
 36
1.0
 17
-27.66959356597982
 27
-19.53870295786203
 37
0.0
 40
242.7599999999999
 41
3.041002277904328
 42
50.0
 43
0.0
 44
0.0
 50
0.0
 51
0.0
 71
    16
 72
  1000
 73
     1
 74
     3
 75
     0
 76
     0
 77
     0
 78
     0
281
     0
 65
     1
110
0.0
120
0.0
130
0.0
111
1.0
121
0.0
131
0.0
112
0.0
122
1.0
132
0.0
 79
     0
146
0.0
  0
ENDTAB
  0
TABLE
  2
LTYPE
  5
5
330
0
100
AcDbSymbolTable
 70
     1
  0
LTYPE
  5
14
330
5
100
AcDbSymbolTableRecord
100
AcDbLinetypeTableRecord
  2
ByBlock
 70
     0
  3

 72
    65
 73
     0
 40
0.0
  0
LTYPE
  5
15
330
5
100
AcDbSymbolTableRecord
100
AcDbLinetypeTableRecord
  2
ByLayer
 70
     0
  3

 72
    65
 73
     0
 40
0.0
  0
LTYPE
  5
16
330
5
100
AcDbSymbolTableRecord
100
AcDbLinetypeTableRecord
  2
Continuous
 70
     0
  3
Solid line
 72
    65
 73
     0
 40
0.0
  0
ENDTAB
  0
TABLE
  2
LAYER
  5
2
102
{ACAD_XDICTIONARY
360
180
102
}
330
0
100
AcDbSymbolTable
 70
     3
  0
LAYER
  5
10
330
2
100
AcDbSymbolTableRecord
100
AcDbLayerTableRecord
  2
0
 70
     0
 62
     7
  6
Continuous
370
    -3
390
F
  0
LAYER
  5
126
330
2
100
AcDbSymbolTableRecord
100
AcDbLayerTableRecord
  2
Defpoints
 70
     0
 62
     7
  6
Continuous
290
     0
370
    -3
390
F
  0
LAYER
  5
1B1
330
2
100
AcDbSymbolTableRecord
100
AcDbLayerTableRecord
  2
CUT
 70
     0
 62
     1
  6
Continuous
370
    -3
390
F
1001
AcAecLayerStandard
1000

1000

1001
AcCmTransparency
1071
 33554687
  0
ENDTAB
  0
TABLE
  2
STYLE
  5
3
330
0
100
AcDbSymbolTable
 70
     1
  0
STYLE
  5
11
330
3
100
AcDbSymbolTableRecord
100
AcDbTextStyleTableRecord
  2
Standard
 70
     0
 40
0.0
 41
1.0
 50
0.0
 71
     0
 42
0.2
  3
arial.ttf
  4

1001
ACAD
1000
Arial
1071
        0
  0
ENDTAB
  0
TABLE
  2
VIEW
  5
6
330
0
100
AcDbSymbolTable
 70
     0
  0
ENDTAB
  0
TABLE
  2
UCS
  5
7
330
0
100
AcDbSymbolTable
 70
     0
  0
ENDTAB
  0
TABLE
  2
APPID
  5
9
330
0
100
AcDbSymbolTable
 70
     3
  0
APPID
  5
12
330
9
100
AcDbSymbolTableRecord
100
AcDbRegAppTableRecord
  2
ACAD
 70
     0
  0
APPID
  5
14B
330
9
100
AcDbSymbolTableRecord
100
AcDbRegAppTableRecord
  2
AcAecLayerStandard
 70
     0
  0
APPID
  5
14C
330
9
100
AcDbSymbolTableRecord
100
AcDbRegAppTableRecord
  2
AcCmTransparency
 70
     0
  0
ENDTAB
  0
TABLE
  2
DIMSTYLE
  5
A
330
0
100
AcDbSymbolTable
 70
     1
100
AcDbDimStyleTable
  0
DIMSTYLE
105
27
330
A
100
AcDbSymbolTableRecord
100
AcDbDimStyleTableRecord
  2
Standard
 70
     0
178
     0
340
11
  0
ENDTAB
  0
TABLE
  2
BLOCK_RECORD
  5
1
330
0
100
AcDbSymbolTable
 70
    17
  0
BLOCK_RECORD
  5
1F
330
1
100
AcDbSymbolTableRecord
100
AcDbBlockTableRecord
  2
*Model_Space
340
22
  0
BLOCK_RECORD
  5
58
330
1
100
AcDbSymbolTableRecord
100
AcDbBlockTableRecord
  2
*Paper_Space
340
59
  0
BLOCK_RECORD
  5
5D
330
1
100
AcDbSymbolTableRecord
100
AcDbBlockTableRecord
  2
*Paper_Space0
340
5E
  0
BLOCK_RECORD
  5
12A
330
1
100
AcDbSymbolTableRecord
100
AcDbBlockTableRecord
  2
*D1
340
0
  0
BLOCK_RECORD
  5
13A
330
1
100
AcDbSymbolTableRecord
100
AcDbBlockTableRecord
  2
*D2
340
0
  0
BLOCK_RECORD
  5
19F
330
1
100
AcDbSymbolTableRecord
100
AcDbBlockTableRecord
  2
*D3
340
0
  0
BLOCK_RECORD
  5
1E5
330
1
100
AcDbSymbolTableRecord
100
AcDbBlockTableRecord
  2
*D4
340
0
  0
BLOCK_RECORD
  5
1F5
330
1
100
AcDbSymbolTableRecord
100
AcDbBlockTableRecord
  2
*D5
340
0
  0
BLOCK_RECORD
  5
205
330
1
100
AcDbSymbolTableRecord
100
AcDbBlockTableRecord
  2
*D6
340
0
  0
BLOCK_RECORD
  5
215
330
1
100
AcDbSymbolTableRecord
100
AcDbBlockTableRecord
  2
*D7
340
0
  0
BLOCK_RECORD
  5
225
330
1
100
AcDbSymbolTableRecord
100
AcDbBlockTableRecord
  2
*D8
340
0
  0
BLOCK_RECORD
  5
235
330
1
100
AcDbSymbolTableRecord
100
AcDbBlockTableRecord
  2
*D9
340
0
  0
BLOCK_RECORD
  5
247
330
1
100
AcDbSymbolTableRecord
100
AcDbBlockTableRecord
  2
*D10
340
0
  0
BLOCK_RECORD
  5
27C
330
1
100
AcDbSymbolTableRecord
100
AcDbBlockTableRecord
  2
*D11
340
0
  0
BLOCK_RECORD
  5
2BE
330
1
100
AcDbSymbolTableRecord
100
AcDbBlockTableRecord
  2
*D12
340
0
  0
BLOCK_RECORD
  5
2CE
330
1
100
AcDbSymbolTableRecord
100
AcDbBlockTableRecord
  2
*D13
340
0
  0
BLOCK_RECORD
  5
302
330
1
100
AcDbSymbolTableRecord
100
AcDbBlockTableRecord
  2
*D14
340
0
  0
BLOCK_RECORD
  5
335
330
1
100
AcDbSymbolTableRecord
100
AcDbBlockTableRecord
  2
*D15
340
0
  0
BLOCK_RECORD
  5
345
330
1
100
AcDbSymbolTableRecord
100
AcDbBlockTableRecord
  2
*D16
340
0
  0
ENDTAB
  0
ENDSEC
  0
SECTION
  2
BLOCKS
  0
BLOCK
  5
20
330
1F
100
AcDbEntity
  8
0
100
AcDbBlockBegin
  2
*Model_Space
 70
     0
 10
0.0
 20
0.0
 30
0.0
  3
*Model_Space
  1
*Model_Space
  0
ENDBLK
  5
21
330
1F
100
AcDbEntity
  8
0
100
AcDbBlockEnd
  0
BLOCK
  5
5A
330
58
100
AcDbEntity
 67
     1
  8
0
100
AcDbBlockBegin
  2
*Paper_Space
 70
     0
 10
0.0
 20
0.0
 30
0.0
  3
*Paper_Space
  1
*Paper_Space
  0
ENDBLK
  5
5B
330
58
100
AcDbEntity
 67
     1
  8
0
100
AcDbBlockEnd
  0
BLOCK
  5
5F
330
5D
100
AcDbEntity
  8
0
100
AcDbBlockBegin
  2
*Paper_Space0
 70
     0
 10
0.0
 20
0.0
 30
0.0
  3
*Paper_Space0
  1
*Paper_Space0
  0
ENDBLK
  5
60
330
5D
100
AcDbEntity
  8
0
100
AcDbBlockEnd
  0
BLOCK
  5
12B
330
12A
100
AcDbEntity
  8
0
100
AcDbBlockBegin
  2
*D1
 70
     1
 10
0.0
 20
0.0
 30
0.0
  3
*D1
  1
*D1
  0
LINE
  5
12D
330
12A
100
AcDbEntity
  8
0
 62
     0
370
    -2
100
AcDbLine
 10
132.5212400806787
 20
31.72770513723896
 30
0.0
 11
362.3700128839387
 21
31.72770513723896
 31
0.0
  0
LINE
  5
12E
330
12A
100
AcDbEntity
  8
0
 62
     0
370
    -2
100
AcDbLine
 10
132.5212400806787
 20
-206.272294862761
 30
0.0
 11
362.3700128839387
 21
-206.272294862761
 31
0.0
  0
LINE
  5
12F
330
12A
100
AcDbEntity
  8
0
 62
     0
370
    -2
100
AcDbLine
 10
362.1900128839387
 20
31.54770513723896
 30
0.0
 11
362.1900128839387
 21
-87.09040486276103
 31
0.0
  0
LINE
  5
130
330
12A
100
AcDbEntity
  8
0
 62
     0
370
    -2
100
AcDbLine
 10
362.1900128839387
 20
-206.092294862761
 30
0.0
 11
362.1900128839387
 21
-87.45418486276104
 31
0.0
  0
SOLID
  5
131
330
12A
100
AcDbEntity
  8
0
 62
     0
100
AcDbTrace
 10
362.2200128839387
 20
31.54770513723896
 30
0.0
 11
362.1600128839387
 21
31.54770513723896
 31
0.0
 12
362.1900128839387
 22
31.72770513723896
 32
0.0
 13
362.1900128839387
 23
31.72770513723896
 33
0.0
  0
SOLID
  5
132
330
12A
100
AcDbEntity
  8
0
 62
     0
100
AcDbTrace
 10
362.1600128839387
 20
-206.092294862761
 30
0.0
 11
362.2200128839387
 21
-206.092294862761
 31
0.0
 12
362.1900128839387
 22
-206.272294862761
 32
0.0
 13
362.1900128839387
 23
-206.272294862761
 33
0.0
  0
MTEXT
  5
133
330
12A
100
AcDbEntity
  8
0
 62
     0
100
AcDbMText
 10
362.1900128839387
 20
-87.27229486276104
 30
0.0
 40
0.18
 41
0.0
 71
     5
 72
     1
  1
\A1;238.0000
 73
     1
 44
1.0
  0
POINT
  5
134
330
12A
100
AcDbEntity
  8
Defpoints
 62
     0
100
AcDbPoint
 10
132.4587400806787
 20
31.72770513723896
 30
0.0
  0
POINT
  5
135
330
12A
100
AcDbEntity
  8
Defpoints
 62
     0
100
AcDbPoint
 10
132.4587400806787
 20
-206.272294862761
 30
0.0
  0
POINT
  5
136
330
12A
100
AcDbEntity
  8
Defpoints
 62
     0
100
AcDbPoint
 10
362.1900128839387
 20
-206.272294862761
 30
0.0
  0
ENDBLK
  5
12C
330
12A
100
AcDbEntity
  8
0
100
AcDbBlockEnd
  0
BLOCK
  5
13B
330
13A
100
AcDbEntity
  8
0
100
AcDbBlockBegin
  2
*D2
 70
     1
 10
0.0
 20
0.0
 30
0.0
  3
*D2
  1
*D2
  0
LINE
  5
13D
330
13A
100
AcDbEntity
  8
0
 62
     0
370
    -2
100
AcDbLine
 10
0.4587400806787088
 20
-87.20979486276104
 30
0.0
 11
0.4587400806786945
 21
96.8064396670369
 31
0.0
  0
LINE
  5
13E
330
13A
100
AcDbEntity
  8
0
 62
     0
370
    -2
100
AcDbLine
 10
264.4587400806787
 20
-87.20979486276104
 30
0.0
 11
264.4587400806787
 21
96.8064396670369
 31
0.0
  0
LINE
  5
13F
330
13A
100
AcDbEntity
  8
0
 62
     0
370
    -2
100
AcDbLine
 10
0.6387400806786945
 20
96.62643966703689
 30
0.0
 11
131.8546600806787
 21
96.62643966703689
 31
0.0
  0
LINE
  5
140
330
13A
100
AcDbEntity
  8
0
 62
     0
370
    -2
100
AcDbLine
 10
264.2787400806787
 20
96.62643966703689
 30
0.0
 11
133.0628200806787
 21
96.62643966703689
 31
0.0
  0
SOLID
  5
141
330
13A
100
AcDbEntity
  8
0
 62
     0
100
AcDbTrace
 10
0.6387400806786945
 20
96.65643966703689
 30
0.0
 11
0.6387400806786945
 21
96.59643966703689
 31
0.0
 12
0.4587400806786945
 22
96.62643966703689
 32
0.0
 13
0.4587400806786945
 23
96.62643966703689
 33
0.0
  0
SOLID
  5
142
330
13A
100
AcDbEntity
  8
0
 62
     0
100
AcDbTrace
 10
264.2787400806787
 20
96.59643966703689
 30
0.0
 11
264.2787400806787
 21
96.65643966703689
 31
0.0
 12
264.4587400806787
 22
96.62643966703689
 32
0.0
 13
264.4587400806787
 23
96.62643966703689
 33
0.0
  0
MTEXT
  5
143
330
13A
100
AcDbEntity
  8
0
 62
     0
100
AcDbMText
 10
132.4587400806787
 20
96.62643966703689
 30
0.0
 40
0.18
 41
0.0
 71
     5
 72
     1
  1
\A1;264.0000
 73
     1
 44
1.0
  0
POINT
  5
144
330
13A
100
AcDbEntity
  8
Defpoints
 62
     0
100
AcDbPoint
 10
0.4587400806787088
 20
-87.27229486276104
 30
0.0
  0
POINT
  5
145
330
13A
100
AcDbEntity
  8
Defpoints
 62
     0
100
AcDbPoint
 10
264.4587400806787
 20
-87.27229486276104
 30
0.0
  0
POINT
  5
146
330
13A
100
AcDbEntity
  8
Defpoints
 62
     0
100
AcDbPoint
 10
264.4587400806787
 20
96.62643966703689
 30
0.0
  0
ENDBLK
  5
13C
330
13A
100
AcDbEntity
  8
0
100
AcDbBlockEnd
  0
BLOCK
  5
1A0
330
19F
100
AcDbEntity
  8
0
100
AcDbBlockBegin
  2
*D3
 70
     1
 10
0.0
 20
0.0
 30
0.0
  3
*D3
  1
*D4
  0
LINE
  5
1A2
330
19F
100
AcDbEntity
  8
0
 62
     0
370
    -2
100
AcDbLine
 10
132.5212400806787
 20
31.72770513723896
 30
0.0
 11
344.779834795594
 21
31.72770513723896
 31
0.0
  0
LINE
  5
1A3
330
19F
100
AcDbEntity
  8
0
 62
     0
370
    -2
100
AcDbLine
 10
132.5212400806787
 20
-206.272294862761
 30
0.0
 11
344.779834795594
 21
-206.272294862761
 31
0.0
  0
LINE
  5
1A4
330
19F
100
AcDbEntity
  8
0
 62
     0
370
    -2
100
AcDbLine
 10
344.5998347955939
 20
31.54770513723896
 30
0.0
 11
344.5998347955939
 21
-87.09040486276103
 31
0.0
  0
LINE
  5
1A5
330
19F
100
AcDbEntity
  8
0
 62
     0
370
    -2
100
AcDbLine
 10
344.5998347955939
 20
-206.092294862761
 30
0.0
 11
344.5998347955939
 21
-87.45418486276104
 31
0.0
  0
SOLID
  5
1A6
330
19F
100
AcDbEntity
  8
0
 62
     0
100
AcDbTrace
 10
344.6298347955939
 20
31.54770513723896
 30
0.0
 11
344.569834795594
 21
31.54770513723896
 31
0.0
 12
344.5998347955939
 22
31.72770513723896
 32
0.0
 13
344.5998347955939
 23
31.72770513723896
 33
0.0
  0
SOLID
  5
1A7
330
19F
100
AcDbEntity
  8
0
 62
     0
100
AcDbTrace
 10
344.569834795594
 20
-206.092294862761
 30
0.0
 11
344.6298347955939
 21
-206.092294862761
 31
0.0
 12
344.5998347955939
 22
-206.272294862761
 32
0.0
 13
344.5998347955939
 23
-206.272294862761
 33
0.0
  0
MTEXT
  5
1A8
330
19F
100
AcDbEntity
  8
0
 62
     0
100
AcDbMText
 10
344.5998347955939
 20
-87.27229486276104
 30
0.0
 40
0.18
 41
0.0
 71
     5
 72
     1
  1
\A1;238.0000
 73
     1
 44
1.0
  0
POINT
  5
1A9
330
19F
100
AcDbEntity
  8
Defpoints
 62
     0
100
AcDbPoint
 10
132.4587400806787
 20
31.72770513723896
 30
0.0
  0
POINT
  5
1AA
330
19F
100
AcDbEntity
  8
Defpoints
 62
     0
100
AcDbPoint
 10
132.4587400806787
 20
-206.272294862761
 30
0.0
  0
POINT
  5
1AB
330
19F
100
AcDbEntity
  8
Defpoints
 62
     0
100
AcDbPoint
 10
344.5998347955939
 20
-206.272294862761
 30
0.0
  0
ENDBLK
  5
1A1
330
19F
100
AcDbEntity
  8
0
100
AcDbBlockEnd
  0
BLOCK
  5
1E6
330
1E5
100
AcDbEntity
  8
0
100
AcDbBlockBegin
  2
*D4
 70
     1
 10
0.0
 20
0.0
 30
0.0
  3
*D4
  1
*D6
  0
LINE
  5
1E8
330
1E5
100
AcDbEntity
  8
0
 62
     0
370
    -2
100
AcDbLine
 10
24.45874008067869
 20
17.72084360635316
 30
0.0
 11
24.45874008067869
 21
-39.41956423262993
 31
0.0
  0
LINE
  5
1E9
330
1E5
100
AcDbEntity
  8
0
 62
     0
370
    -2
100
AcDbLine
 10
233.4587400806787
 20
17.72084360635316
 30
0.0
 11
233.4587400806787
 21
-39.41956423262993
 31
0.0
  0
LINE
  5
1EA
330
1E5
100
AcDbEntity
  8
0
 62
     0
370
    -2
100
AcDbLine
 10
24.63874008067869
 20
-39.23956423262993
 30
0.0
 11
128.3546600806787
 21
-39.23956423262993
 31
0.0
  0
LINE
  5
1EB
330
1E5
100
AcDbEntity
  8
0
 62
     0
370
    -2
100
AcDbLine
 10
233.2787400806787
 20
-39.23956423262993
 30
0.0
 11
129.5628200806787
 21
-39.23956423262993
 31
0.0
  0
SOLID
  5
1EC
330
1E5
100
AcDbEntity
  8
0
 62
     0
100
AcDbTrace
 10
24.63874008067869
 20
-39.20956423262993
 30
0.0
 11
24.63874008067869
 21
-39.26956423262993
 31
0.0
 12
24.45874008067869
 22
-39.23956423262993
 32
0.0
 13
24.45874008067869
 23
-39.23956423262993
 33
0.0
  0
SOLID
  5
1ED
330
1E5
100
AcDbEntity
  8
0
 62
     0
100
AcDbTrace
 10
233.2787400806787
 20
-39.26956423262993
 30
0.0
 11
233.2787400806787
 21
-39.20956423262993
 31
0.0
 12
233.4587400806787
 22
-39.23956423262993
 32
0.0
 13
233.4587400806787
 23
-39.23956423262993
 33
0.0
  0
MTEXT
  5
1EE
330
1E5
100
AcDbEntity
  8
0
 62
     0
100
AcDbMText
 10
128.9587400806787
 20
-39.23956423262993
 30
0.0
 40
0.18
 41
0.0
 71
     5
 72
     1
  1
\A1;209.0000
 73
     1
 44
1.0
  0
POINT
  5
1EF
330
1E5
100
AcDbEntity
  8
Defpoints
 62
     0
100
AcDbPoint
 10
24.45874008067869
 20
17.78334360635316
 30
0.0
  0
POINT
  5
1F0
330
1E5
100
AcDbEntity
  8
Defpoints
 62
     0
100
AcDbPoint
 10
233.4587400806787
 20
17.78334360635316
 30
0.0
  0
POINT
  5
1F1
330
1E5
100
AcDbEntity
  8
Defpoints
 62
     0
100
AcDbPoint
 10
233.4587400806787
 20
-39.23956423262993
 30
0.0
  0
ENDBLK
  5
1E7
330
1E5
100
AcDbEntity
  8
0
100
AcDbBlockEnd
  0
BLOCK
  5
1F6
330
1F5
100
AcDbEntity
  8
0
100
AcDbBlockBegin
  2
*D5
 70
     1
 10
0.0
 20
0.0
 30
0.0
  3
*D5
  1
*D7
  0
LINE
  5
1F8
330
1F5
100
AcDbEntity
  8
0
 62
     0
370
    -2
100
AcDbLine
 10
24.45874008067869
 20
-191.154156393647
 30
0.0
 11
24.45874008067869
 21
-147.6934508307918
 31
0.0
  0
LINE
  5
1F9
330
1F5
100
AcDbEntity
  8
0
 62
     0
370
    -2
100
AcDbLine
 10
233.4587400806787
 20
-191.154156393647
 30
0.0
 11
233.4587400806787
 21
-147.6934508307918
 31
0.0
  0
LINE
  5
1FA
330
1F5
100
AcDbEntity
  8
0
 62
     0
370
    -2
100
AcDbLine
 10
24.63874008067869
 20
-147.8734508307918
 30
0.0
 11
128.3546600806787
 21
-147.8734508307918
 31
0.0
  0
LINE
  5
1FB
330
1F5
100
AcDbEntity
  8
0
 62
     0
370
    -2
100
AcDbLine
 10
233.2787400806787
 20
-147.8734508307918
 30
0.0
 11
129.5628200806787
 21
-147.8734508307918
 31
0.0
  0
SOLID
  5
1FC
330
1F5
100
AcDbEntity
  8
0
 62
     0
100
AcDbTrace
 10
24.63874008067869
 20
-147.8434508307918
 30
0.0
 11
24.63874008067869
 21
-147.9034508307918
 31
0.0
 12
24.45874008067869
 22
-147.8734508307918
 32
0.0
 13
24.45874008067869
 23
-147.8734508307918
 33
0.0
  0
SOLID
  5
1FD
330
1F5
100
AcDbEntity
  8
0
 62
     0
100
AcDbTrace
 10
233.2787400806787
 20
-147.9034508307918
 30
0.0
 11
233.2787400806787
 21
-147.8434508307918
 31
0.0
 12
233.4587400806787
 22
-147.8734508307918
 32
0.0
 13
233.4587400806787
 23
-147.8734508307918
 33
0.0
  0
MTEXT
  5
1FE
330
1F5
100
AcDbEntity
  8
0
 62
     0
100
AcDbMText
 10
128.9587400806787
 20
-147.8734508307918
 30
0.0
 40
0.18
 41
0.0
 71
     5
 72
     1
  1
\A1;209.0000
 73
     1
 44
1.0
  0
POINT
  5
1FF
330
1F5
100
AcDbEntity
  8
Defpoints
 62
     0
100
AcDbPoint
 10
24.45874008067869
 20
-191.216656393647
 30
0.0
  0
POINT
  5
200
330
1F5
100
AcDbEntity
  8
Defpoints
 62
     0
100
AcDbPoint
 10
233.4587400806787
 20
-191.216656393647
 30
0.0
  0
POINT
  5
201
330
1F5
100
AcDbEntity
  8
Defpoints
 62
     0
100
AcDbPoint
 10
233.4587400806787
 20
-147.8734508307918
 30
0.0
  0
ENDBLK
  5
1F7
330
1F5
100
AcDbEntity
  8
0
100
AcDbBlockEnd
  0
BLOCK
  5
206
330
205
100
AcDbEntity
  8
0
100
AcDbBlockBegin
  2
*D6
 70
     1
 10
0.0
 20
0.0
 30
0.0
  3
*D6
  1
*D8
  0
LINE
  5
208
330
205
100
AcDbEntity
  8
0
 62
     0
370
    -2
100
AcDbLine
 10
24.52124008067869
 20
17.78334360635316
 30
0.0
 11
156.7198665883267
 21
17.78334360635316
 31
0.0
  0
LINE
  5
209
330
205
100
AcDbEntity
  8
0
 62
     0
370
    -2
100
AcDbLine
 10
24.52124008067869
 20
-191.216656393647
 30
0.0
 11
156.7198665883267
 21
-191.216656393647
 31
0.0
  0
LINE
  5
20A
330
205
100
AcDbEntity
  8
0
 62
     0
370
    -2
100
AcDbLine
 10
156.5398665883267
 20
17.60334360635316
 30
0.0
 11
156.5398665883267
 21
-86.5347663936469
 31
0.0
  0
LINE
  5
20B
330
205
100
AcDbEntity
  8
0
 62
     0
370
    -2
100
AcDbLine
 10
156.5398665883267
 20
-191.036656393647
 30
0.0
 11
156.5398665883267
 21
-86.89854639364692
 31
0.0
  0
SOLID
  5
20C
330
205
100
AcDbEntity
  8
0
 62
     0
100
AcDbTrace
 10
156.5698665883267
 20
17.60334360635316
 30
0.0
 11
156.5098665883267
 21
17.60334360635316
 31
0.0
 12
156.5398665883267
 22
17.78334360635316
 32
0.0
 13
156.5398665883267
 23
17.78334360635316
 33
0.0
  0
SOLID
  5
20D
330
205
100
AcDbEntity
  8
0
 62
     0
100
AcDbTrace
 10
156.5098665883267
 20
-191.036656393647
 30
0.0
 11
156.5698665883267
 21
-191.036656393647
 31
0.0
 12
156.5398665883267
 22
-191.216656393647
 32
0.0
 13
156.5398665883267
 23
-191.216656393647
 33
0.0
  0
MTEXT
  5
20E
330
205
100
AcDbEntity
  8
0
 62
     0
100
AcDbMText
 10
156.5398665883267
 20
-86.71665639364691
 30
0.0
 40
0.18
 41
0.0
 71
     5
 72
     1
  1
\A1;209.0000
 73
     1
 44
1.0
  0
POINT
  5
20F
330
205
100
AcDbEntity
  8
Defpoints
 62
     0
100
AcDbPoint
 10
24.45874008067869
 20
17.78334360635316
 30
0.0
  0
POINT
  5
210
330
205
100
AcDbEntity
  8
Defpoints
 62
     0
100
AcDbPoint
 10
24.45874008067869
 20
-191.216656393647
 30
0.0
  0
POINT
  5
211
330
205
100
AcDbEntity
  8
Defpoints
 62
     0
100
AcDbPoint
 10
156.5398665883267
 20
-191.216656393647
 30
0.0
  0
ENDBLK
  5
207
330
205
100
AcDbEntity
  8
0
100
AcDbBlockEnd
  0
BLOCK
  5
216
330
215
100
AcDbEntity
  8
0
100
AcDbBlockBegin
  2
*D7
 70
     1
 10
0.0
 20
0.0
 30
0.0
  3
*D7
  1
*D9
  0
LINE
  5
218
330
215
100
AcDbEntity
  8
0
 62
     0
370
    -2
100
AcDbLine
 10
233.5212400806787
 20
17.78334360635316
 30
0.0
 11
283.4019933143886
 21
17.78334360635315
 31
0.0
  0
LINE
  5
219
330
215
100
AcDbEntity
  8
0
 62
     0
370
    -2
100
AcDbLine
 10
233.5212400806787
 20
31.72770513723896
 30
0.0
 11
283.4019933143886
 21
31.72770513723895
 31
0.0
  0
LINE
  5
21A
330
215
100
AcDbEntity
  8
0
 62
     0
370
    -2
100
AcDbLine
 10
283.2219933143886
 20
17.96334360635315
 30
0.0
 11
283.2219933143886
 21
24.57363437179605
 31
0.0
  0
LINE
  5
21B
330
215
100
AcDbEntity
  8
0
 62
     0
370
    -2
100
AcDbLine
 10
283.2219933143886
 20
31.54770513723895
 30
0.0
 11
283.2219933143886
 21
24.93741437179605
 31
0.0
  0
SOLID
  5
21C
330
215
100
AcDbEntity
  8
0
 62
     0
100
AcDbTrace
 10
283.1919933143886
 20
17.96334360635315
 30
0.0
 11
283.2519933143885
 21
17.96334360635315
 31
0.0
 12
283.2219933143886
 22
17.78334360635315
 32
0.0
 13
283.2219933143886
 23
17.78334360635315
 33
0.0
  0
SOLID
  5
21D
330
215
100
AcDbEntity
  8
0
 62
     0
100
AcDbTrace
 10
283.2519933143885
 20
31.54770513723895
 30
0.0
 11
283.1919933143886
 21
31.54770513723895
 31
0.0
 12
283.2219933143886
 22
31.72770513723895
 32
0.0
 13
283.2219933143886
 23
31.72770513723895
 33
0.0
  0
MTEXT
  5
21E
330
215
100
AcDbEntity
  8
0
 62
     0
100
AcDbMText
 10
283.2219933143886
 20
24.75552437179605
 30
0.0
 40
0.18
 41
0.0
 71
     5
 72
     1
  1
\A1;13.9444
 73
     1
 44
1.0
  0
POINT
  5
21F
330
215
100
AcDbEntity
  8
Defpoints
 62
     0
100
AcDbPoint
 10
233.4587400806787
 20
17.78334360635316
 30
0.0
  0
POINT
  5
220
330
215
100
AcDbEntity
  8
Defpoints
 62
     0
100
AcDbPoint
 10
233.4587400806787
 20
31.72770513723896
 30
0.0
  0
POINT
  5
221
330
215
100
AcDbEntity
  8
Defpoints
 62
     0
100
AcDbPoint
 10
283.2219933143886
 20
31.72770513723895
 30
0.0
  0
ENDBLK
  5
217
330
215
100
AcDbEntity
  8
0
100
AcDbBlockEnd
  0
BLOCK
  5
226
330
225
100
AcDbEntity
  8
0
100
AcDbBlockBegin
  2
*D8
 70
     1
 10
0.0
 20
0.0
 30
0.0
  3
*D8
  1
*D10
  0
LINE
  5
228
330
225
100
AcDbEntity
  8
0
 62
     0
370
    -2
100
AcDbLine
 10
233.5212400806787
 20
-191.216656393647
 30
0.0
 11
270.3662809196452
 21
-191.216656393647
 31
0.0
  0
LINE
  5
229
330
225
100
AcDbEntity
  8
0
 62
     0
370
    -2
100
AcDbLine
 10
233.5212400806787
 20
-206.272294862761
 30
0.0
 11
270.3662809196452
 21
-206.272294862761
 31
0.0
  0
LINE
  5
22A
330
225
100
AcDbEntity
  8
0
 62
     0
370
    -2
100
AcDbLine
 10
270.1862809196452
 20
-191.396656393647
 30
0.0
 11
270.1862809196452
 21
-198.562585628204
 31
0.0
  0
LINE
  5
22B
330
225
100
AcDbEntity
  8
0
 62
     0
370
    -2
100
AcDbLine
 10
270.1862809196452
 20
-206.092294862761
 30
0.0
 11
270.1862809196452
 21
-198.926365628204
 31
0.0
  0
SOLID
  5
22C
330
225
100
AcDbEntity
  8
0
 62
     0
100
AcDbTrace
 10
270.2162809196452
 20
-191.396656393647
 30
0.0
 11
270.1562809196452
 21
-191.396656393647
 31
0.0
 12
270.1862809196452
 22
-191.216656393647
 32
0.0
 13
270.1862809196452
 23
-191.216656393647
 33
0.0
  0
SOLID
  5
22D
330
225
100
AcDbEntity
  8
0
 62
     0
100
AcDbTrace
 10
270.1562809196452
 20
-206.092294862761
 30
0.0
 11
270.2162809196452
 21
-206.092294862761
 31
0.0
 12
270.1862809196452
 22
-206.272294862761
 32
0.0
 13
270.1862809196452
 23
-206.272294862761
 33
0.0
  0
MTEXT
  5
22E
330
225
100
AcDbEntity
  8
0
 62
     0
100
AcDbMText
 10
270.1862809196452
 20
-198.744475628204
 30
0.0
 40
0.18
 41
0.0
 71
     5
 72
     1
  1
\A1;15.0556
 73
     1
 44
1.0
  0
POINT
  5
22F
330
225
100
AcDbEntity
  8
Defpoints
 62
     0
100
AcDbPoint
 10
233.4587400806787
 20
-191.216656393647
 30
0.0
  0
POINT
  5
230
330
225
100
AcDbEntity
  8
Defpoints
 62
     0
100
AcDbPoint
 10
233.4587400806787
 20
-206.272294862761
 30
0.0
  0
POINT
  5
231
330
225
100
AcDbEntity
  8
Defpoints
 62
     0
100
AcDbPoint
 10
270.1862809196452
 20
-206.272294862761
 30
0.0
  0
ENDBLK
  5
227
330
225
100
AcDbEntity
  8
0
100
AcDbBlockEnd
  0
BLOCK
  5
236
330
235
100
AcDbEntity
  8
0
100
AcDbBlockBegin
  2
*D9
 70
     1
 10
0.0
 20
0.0
 30
0.0
  3
*D9
  1
*D11
  0
LINE
  5
238
330
235
100
AcDbEntity
  8
0
 62
     0
370
    -2
100
AcDbLine
 10
132.5212400806787
 20
31.72770513723896
 30
0.0
 11
338.3707331378739
 21
31.72770513723896
 31
0.0
  0
LINE
  5
239
330
235
100
AcDbEntity
  8
0
 62
     0
370
    -2
100
AcDbLine
 10
132.5212400806787
 20
-206.272294862761
 30
0.0
 11
338.3707331378739
 21
-206.272294862761
 31
0.0
  0
LINE
  5
23A
330
235
100
AcDbEntity
  8
0
 62
     0
370
    -2
100
AcDbLine
 10
338.1907331378738
 20
31.54770513723896
 30
0.0
 11
338.1907331378738
 21
-87.09040486276103
 31
0.0
  0
LINE
  5
23B
330
235
100
AcDbEntity
  8
0
 62
     0
370
    -2
100
AcDbLine
 10
338.1907331378738
 20
-206.092294862761
 30
0.0
 11
338.1907331378738
 21
-87.45418486276104
 31
0.0
  0
SOLID
  5
23C
330
235
100
AcDbEntity
  8
0
 62
     0
100
AcDbTrace
 10
338.2207331378738
 20
31.54770513723896
 30
0.0
 11
338.1607331378739
 21
31.54770513723896
 31
0.0
 12
338.1907331378738
 22
31.72770513723896
 32
0.0
 13
338.1907331378738
 23
31.72770513723896
 33
0.0
  0
SOLID
  5
23D
330
235
100
AcDbEntity
  8
0
 62
     0
100
AcDbTrace
 10
338.1607331378739
 20
-206.092294862761
 30
0.0
 11
338.2207331378738
 21
-206.092294862761
 31
0.0
 12
338.1907331378738
 22
-206.272294862761
 32
0.0
 13
338.1907331378738
 23
-206.272294862761
 33
0.0
  0
MTEXT
  5
23E
330
235
100
AcDbEntity
  8
0
 62
     0
100
AcDbMText
 10
338.1907331378738
 20
-87.27229486276104
 30
0.0
 40
0.18
 41
0.0
 71
     5
 72
     1
  1
\A1;238.0000
 73
     1
 44
1.0
  0
POINT
  5
23F
330
235
100
AcDbEntity
  8
Defpoints
 62
     0
100
AcDbPoint
 10
132.4587400806787
 20
31.72770513723896
 30
0.0
  0
POINT
  5
240
330
235
100
AcDbEntity
  8
Defpoints
 62
     0
100
AcDbPoint
 10
132.4587400806787
 20
-206.272294862761
 30
0.0
  0
POINT
  5
241
330
235
100
AcDbEntity
  8
Defpoints
 62
     0
100
AcDbPoint
 10
338.1907331378738
 20
-206.272294862761
 30
0.0
  0
ENDBLK
  5
237
330
235
100
AcDbEntity
  8
0
100
AcDbBlockEnd
  0
BLOCK
  5
248
330
247
100
AcDbEntity
  8
0
100
AcDbBlockBegin
  2
*D10
 70
     1
 10
0.0
 20
0.0
 30
0.0
  3
*D10
  1
*D12
  0
LINE
  5
24A
330
247
100
AcDbEntity
  8
0
 62
     0
370
    -2
100
AcDbLine
 10
232.5212400806787
 20
-191.7722948627612
 30
0.0
 11
276.9910805722
 21
-191.7722948627612
 31
0.0
  0
LINE
  5
24B
330
247
100
AcDbEntity
  8
0
 62
     0
370
    -2
100
AcDbLine
 10
232.5212400806787
 20
-206.272294862761
 30
0.0
 11
276.9910805722
 21
-206.272294862761
 31
0.0
  0
LINE
  5
24C
330
247
100
AcDbEntity
  8
0
 62
     0
370
    -2
100
AcDbLine
 10
276.8110805722
 20
-191.9522948627612
 30
0.0
 11
276.8110805722
 21
-198.8404048627611
 31
0.0
  0
LINE
  5
24D
330
247
100
AcDbEntity
  8
0
 62
     0
370
    -2
100
AcDbLine
 10
276.8110805722
 20
-206.092294862761
 30
0.0
 11
276.8110805722
 21
-199.2041848627611
 31
0.0
  0
SOLID
  5
24E
330
247
100
AcDbEntity
  8
0
 62
     0
100
AcDbTrace
 10
276.8410805722
 20
-191.9522948627612
 30
0.0
 11
276.7810805722
 21
-191.9522948627612
 31
0.0
 12
276.8110805722
 22
-191.7722948627612
 32
0.0
 13
276.8110805722
 23
-191.7722948627612
 33
0.0
  0
SOLID
  5
24F
330
247
100
AcDbEntity
  8
0
 62
     0
100
AcDbTrace
 10
276.7810805722
 20
-206.092294862761
 30
0.0
 11
276.8410805722
 21
-206.092294862761
 31
0.0
 12
276.8110805722
 22
-206.272294862761
 32
0.0
 13
276.8110805722
 23
-206.272294862761
 33
0.0
  0
MTEXT
  5
250
330
247
100
AcDbEntity
  8
0
 62
     0
100
AcDbMText
 10
276.8110805722
 20
-199.0222948627611
 30
0.0
 40
0.18
 41
0.0
 71
     5
 72
     1
  1
\A1;14.5000
 73
     1
 44
1.0
  0
POINT
  5
251
330
247
100
AcDbEntity
  8
Defpoints
 62
     0
100
AcDbPoint
 10
232.4587400806787
 20
-191.7722948627612
 30
0.0
  0
POINT
  5
252
330
247
100
AcDbEntity
  8
Defpoints
 62
     0
100
AcDbPoint
 10
232.4587400806787
 20
-206.272294862761
 30
0.0
  0
POINT
  5
253
330
247
100
AcDbEntity
  8
Defpoints
 62
     0
100
AcDbPoint
 10
276.8110805722
 20
-206.272294862761
 30
0.0
  0
ENDBLK
  5
249
330
247
100
AcDbEntity
  8
0
100
AcDbBlockEnd
  0
BLOCK
  5
27D
330
27C
100
AcDbEntity
  8
0
100
AcDbBlockBegin
  2
*D11
 70
     1
 10
0.0
 20
0.0
 30
0.0
  3
*D11
  1
*D11
  0
LINE
  5
27F
330
27C
100
AcDbEntity
  8
0
 62
     0
370
    -2
100
AcDbLine
 10
0.4587400806787087
 20
-87.20979486276102
 30
0.0
 11
0.4587400806786944
 21
-71.14831181191357
 31
0.0
  0
LINE
  5
280
330
27C
100
AcDbEntity
  8
0
 62
     0
370
    -2
100
AcDbLine
 10
264.4587400806787
 20
-87.20979486276102
 30
0.0
 11
264.4587400806787
 21
-71.14831181191357
 31
0.0
  0
LINE
  5
281
330
27C
100
AcDbEntity
  8
0
 62
     0
370
    -2
100
AcDbLine
 10
0.6387400806786945
 20
-71.32831181191358
 30
0.0
 11
131.8546600806787
 21
-71.32831181191358
 31
0.0
  0
LINE
  5
282
330
27C
100
AcDbEntity
  8
0
 62
     0
370
    -2
100
AcDbLine
 10
264.2787400806787
 20
-71.32831181191358
 30
0.0
 11
133.0628200806787
 21
-71.32831181191358
 31
0.0
  0
SOLID
  5
283
330
27C
100
AcDbEntity
  8
0
 62
     0
100
AcDbTrace
 10
0.6387400806786945
 20
-71.29831181191358
 30
0.0
 11
0.6387400806786945
 21
-71.35831181191358
 31
0.0
 12
0.4587400806786945
 22
-71.32831181191358
 32
0.0
 13
0.4587400806786945
 23
-71.32831181191358
 33
0.0
  0
SOLID
  5
284
330
27C
100
AcDbEntity
  8
0
 62
     0
100
AcDbTrace
 10
264.2787400806787
 20
-71.35831181191358
 30
0.0
 11
264.2787400806787
 21
-71.29831181191358
 31
0.0
 12
264.4587400806787
 22
-71.32831181191358
 32
0.0
 13
264.4587400806787
 23
-71.32831181191358
 33
0.0
  0
MTEXT
  5
285
330
27C
100
AcDbEntity
  8
0
 62
     0
100
AcDbMText
 10
132.4587400806787
 20
-71.32831181191358
 30
0.0
 40
0.18
 41
0.0
 71
     5
 72
     1
  1
\A1;264.0000
 73
     1
 44
1.0
  0
POINT
  5
286
330
27C
100
AcDbEntity
  8
Defpoints
 62
     0
100
AcDbPoint
 10
0.4587400806787088
 20
-87.27229486276102
 30
0.0
  0
POINT
  5
287
330
27C
100
AcDbEntity
  8
Defpoints
 62
     0
100
AcDbPoint
 10
264.4587400806787
 20
-87.27229486276102
 30
0.0
  0
POINT
  5
288
330
27C
100
AcDbEntity
  8
Defpoints
 62
     0
100
AcDbPoint
 10
264.4587400806787
 20
-71.32831181191358
 30
0.0
  0
ENDBLK
  5
27E
330
27C
100
AcDbEntity
  8
0
100
AcDbBlockEnd
  0
BLOCK
  5
2BF
330
2BE
100
AcDbEntity
  8
0
100
AcDbBlockBegin
  2
*D12
 70
     1
 10
0.0
 20
0.0
 30
0.0
  3
*D12
  1
*D12
  0
LINE
  5
2C1
330
2BE
100
AcDbEntity
  8
CUT
 62
     0
370
    -2
100
AcDbLine
 10
0.4587400806787088
 20
-87.20979486276102
 30
0.0
 11
0.4587400806786945
 21
-87.092294862761
 31
0.0
  0
LINE
  5
2C2
330
2BE
100
AcDbEntity
  8
CUT
 62
     0
370
    -2
100
AcDbLine
 10
264.4587400806787
 20
-87.20979486276102
 30
0.0
 11
264.4587400806787
 21
-87.092294862761
 31
0.0
  0
LINE
  5
2C3
330
2BE
100
AcDbEntity
  8
CUT
 62
     0
370
    -2
100
AcDbLine
 10
0.6387400806786945
 20
-87.272294862761
 30
0.0
 11
131.8546600806787
 21
-87.272294862761
 31
0.0
  0
LINE
  5
2C4
330
2BE
100
AcDbEntity
  8
CUT
 62
     0
370
    -2
100
AcDbLine
 10
264.2787400806787
 20
-87.272294862761
 30
0.0
 11
133.0628200806787
 21
-87.272294862761
 31
0.0
  0
SOLID
  5
2C5
330
2BE
100
AcDbEntity
  8
CUT
 62
     0
100
AcDbTrace
 10
0.6387400806786945
 20
-87.242294862761
 30
0.0
 11
0.6387400806786945
 21
-87.302294862761
 31
0.0
 12
0.4587400806786945
 22
-87.272294862761
 32
0.0
 13
0.4587400806786945
 23
-87.272294862761
 33
0.0
  0
SOLID
  5
2C6
330
2BE
100
AcDbEntity
  8
CUT
 62
     0
100
AcDbTrace
 10
264.2787400806787
 20
-87.302294862761
 30
0.0
 11
264.2787400806787
 21
-87.242294862761
 31
0.0
 12
264.4587400806787
 22
-87.272294862761
 32
0.0
 13
264.4587400806787
 23
-87.272294862761
 33
0.0
  0
MTEXT
  5
2C7
330
2BE
100
AcDbEntity
  8
CUT
 62
     0
100
AcDbMText
 10
132.4587400806787
 20
-87.272294862761
 30
0.0
 40
0.18
 41
0.0
 71
     5
 72
     1
  1
\A1;264.0000
 73
     1
 44
1.0
  0
POINT
  5
2C8
330
2BE
100
AcDbEntity
  8
Defpoints
 62
     0
100
AcDbPoint
 10
0.4587400806787088
 20
-87.27229486276102
 30
0.0
  0
POINT
  5
2C9
330
2BE
100
AcDbEntity
  8
Defpoints
 62
     0
100
AcDbPoint
 10
264.4587400806787
 20
-87.27229486276102
 30
0.0
  0
POINT
  5
2CA
330
2BE
100
AcDbEntity
  8
Defpoints
 62
     0
100
AcDbPoint
 10
264.4587400806787
 20
-87.272294862761
 30
0.0
  0
ENDBLK
  5
2C0
330
2BE
100
AcDbEntity
  8
0
100
AcDbBlockEnd
  0
BLOCK
  5
2CF
330
2CE
100
AcDbEntity
  8
0
100
AcDbBlockBegin
  2
*D13
 70
     1
 10
0.0
 20
0.0
 30
0.0
  3
*D13
  1
*D13
  0
LINE
  5
2D1
330
2CE
100
AcDbEntity
  8
CUT
 62
     0
370
    -2
100
AcDbLine
 10
132.5212400806787
 20
31.72770513723896
 30
0.0
 11
140.9566588624046
 21
31.72770513723896
 31
0.0
  0
LINE
  5
2D2
330
2CE
100
AcDbEntity
  8
CUT
 62
     0
370
    -2
100
AcDbLine
 10
132.5212400806787
 20
-206.272294862761
 30
0.0
 11
140.9566588624045
 21
-206.272294862761
 31
0.0
  0
LINE
  5
2D3
330
2CE
100
AcDbEntity
  8
CUT
 62
     0
370
    -2
100
AcDbLine
 10
140.7766588624046
 20
31.54770513723896
 30
0.0
 11
140.7766588624046
 21
-87.090404862761
 31
0.0
  0
LINE
  5
2D4
330
2CE
100
AcDbEntity
  8
CUT
 62
     0
370
    -2
100
AcDbLine
 10
140.7766588624045
 20
-206.092294862761
 30
0.0
 11
140.7766588624045
 21
-87.45418486276104
 31
0.0
  0
SOLID
  5
2D5
330
2CE
100
AcDbEntity
  8
CUT
 62
     0
100
AcDbTrace
 10
140.8066588624046
 20
31.54770513723896
 30
0.0
 11
140.7466588624046
 21
31.54770513723896
 31
0.0
 12
140.7766588624046
 22
31.72770513723896
 32
0.0
 13
140.7766588624046
 23
31.72770513723896
 33
0.0
  0
SOLID
  5
2D6
330
2CE
100
AcDbEntity
  8
CUT
 62
     0
100
AcDbTrace
 10
140.7466588624045
 20
-206.092294862761
 30
0.0
 11
140.8066588624045
 21
-206.092294862761
 31
0.0
 12
140.7766588624045
 22
-206.272294862761
 32
0.0
 13
140.7766588624045
 23
-206.272294862761
 33
0.0
  0
MTEXT
  5
2D7
330
2CE
100
AcDbEntity
  8
CUT
 62
     0
100
AcDbMText
 10
140.7766588624045
 20
-87.27229486276102
 30
0.0
 40
0.18
 41
0.0
 71
     5
 72
     1
  1
\A1;238.0000
 73
     1
 44
1.0
  0
POINT
  5
2D8
330
2CE
100
AcDbEntity
  8
Defpoints
 62
     0
100
AcDbPoint
 10
132.4587400806787
 20
31.72770513723896
 30
0.0
  0
POINT
  5
2D9
330
2CE
100
AcDbEntity
  8
Defpoints
 62
     0
100
AcDbPoint
 10
132.4587400806787
 20
-206.272294862761
 30
0.0
  0
POINT
  5
2DA
330
2CE
100
AcDbEntity
  8
Defpoints
 62
     0
100
AcDbPoint
 10
140.7766588624045
 20
-206.272294862761
 30
0.0
  0
ENDBLK
  5
2D0
330
2CE
100
AcDbEntity
  8
0
100
AcDbBlockEnd
  0
BLOCK
  5
303
330
302
100
AcDbEntity
  8
0
100
AcDbBlockBegin
  2
*D14
 70
     1
 10
0.0
 20
0.0
 30
0.0
  3
*D14
  1
*D14
  0
LINE
  5
305
330
302
100
AcDbEntity
  8
CUT
 62
     0
370
    -2
100
AcDbLine
 10
0.4587400806787083
 20
-87.20979486276102
 30
0.0
 11
0.4587400806786932
 21
-85.24386846682191
 31
0.0
  0
LINE
  5
306
330
302
100
AcDbEntity
  8
CUT
 62
     0
370
    -2
100
AcDbLine
 10
264.4587400806787
 20
-87.20979486276102
 30
0.0
 11
264.4587400806787
 21
-85.24386846682191
 31
0.0
  0
LINE
  5
307
330
302
100
AcDbEntity
  8
CUT
 62
     0
370
    -2
100
AcDbLine
 10
0.6387400806786945
 20
-85.42386846682192
 30
0.0
 11
131.8546600806787
 21
-85.42386846682192
 31
0.0
  0
LINE
  5
308
330
302
100
AcDbEntity
  8
CUT
 62
     0
370
    -2
100
AcDbLine
 10
264.2787400806787
 20
-85.42386846682192
 30
0.0
 11
133.0628200806787
 21
-85.42386846682192
 31
0.0
  0
SOLID
  5
309
330
302
100
AcDbEntity
  8
CUT
 62
     0
100
AcDbTrace
 10
0.6387400806786945
 20
-85.39386846682191
 30
0.0
 11
0.6387400806786945
 21
-85.45386846682192
 31
0.0
 12
0.4587400806786945
 22
-85.42386846682192
 32
0.0
 13
0.4587400806786945
 23
-85.42386846682192
 33
0.0
  0
SOLID
  5
30A
330
302
100
AcDbEntity
  8
CUT
 62
     0
100
AcDbTrace
 10
264.2787400806787
 20
-85.45386846682192
 30
0.0
 11
264.2787400806787
 21
-85.39386846682191
 31
0.0
 12
264.4587400806787
 22
-85.42386846682192
 32
0.0
 13
264.4587400806787
 23
-85.42386846682192
 33
0.0
  0
MTEXT
  5
30B
330
302
100
AcDbEntity
  8
CUT
 62
     0
100
AcDbMText
 10
132.4587400806787
 20
-85.42386846682192
 30
0.0
 40
0.18
 41
0.0
 71
     5
 72
     1
  1
\A1;264.0000
 73
     1
 44
1.0
  0
POINT
  5
30C
330
302
100
AcDbEntity
  8
Defpoints
 62
     0
100
AcDbPoint
 10
0.4587400806787088
 20
-87.27229486276102
 30
0.0
  0
POINT
  5
30D
330
302
100
AcDbEntity
  8
Defpoints
 62
     0
100
AcDbPoint
 10
264.4587400806787
 20
-87.27229486276102
 30
0.0
  0
POINT
  5
30E
330
302
100
AcDbEntity
  8
Defpoints
 62
     0
100
AcDbPoint
 10
264.4587400806787
 20
-85.42386846682192
 30
0.0
  0
ENDBLK
  5
304
330
302
100
AcDbEntity
  8
0
100
AcDbBlockEnd
  0
BLOCK
  5
336
330
335
100
AcDbEntity
  8
0
100
AcDbBlockBegin
  2
*D15
 70
     1
 10
0.0
 20
0.0
 30
0.0
  3
*D15
  1
*D15
  0
LINE
  5
338
330
335
100
AcDbEntity
  8
CUT
 62
     0
370
    -2
100
AcDbLine
 10
34.02117480092681
 20
27.72770513723896
 30
0.0
 11
54.11969683401728
 21
27.72770513723896
 31
0.0
  0
LINE
  5
339
330
335
100
AcDbEntity
  8
CUT
 62
     0
370
    -2
100
AcDbLine
 10
34.02117480092681
 20
-202.272294862761
 30
0.0
 11
54.11969683401727
 21
-202.272294862761
 31
0.0
  0
LINE
  5
33A
330
335
100
AcDbEntity
  8
CUT
 62
     0
370
    -2
100
AcDbLine
 10
53.93969683401728
 20
27.54770513723896
 30
0.0
 11
53.93969683401728
 21
-87.09040486276102
 31
0.0
  0
LINE
  5
33B
330
335
100
AcDbEntity
  8
CUT
 62
     0
370
    -2
100
AcDbLine
 10
53.93969683401727
 20
-202.092294862761
 30
0.0
 11
53.93969683401728
 21
-87.45418486276102
 31
0.0
  0
SOLID
  5
33C
330
335
100
AcDbEntity
  8
CUT
 62
     0
100
AcDbTrace
 10
53.96969683401728
 20
27.54770513723896
 30
0.0
 11
53.90969683401728
 21
27.54770513723896
 31
0.0
 12
53.93969683401728
 22
27.72770513723896
 32
0.0
 13
53.93969683401728
 23
27.72770513723896
 33
0.0
  0
SOLID
  5
33D
330
335
100
AcDbEntity
  8
CUT
 62
     0
100
AcDbTrace
 10
53.90969683401727
 20
-202.092294862761
 30
0.0
 11
53.96969683401727
 21
-202.092294862761
 31
0.0
 12
53.93969683401727
 22
-202.272294862761
 32
0.0
 13
53.93969683401727
 23
-202.272294862761
 33
0.0
  0
MTEXT
  5
33E
330
335
100
AcDbEntity
  8
CUT
 62
     0
100
AcDbMText
 10
53.93969683401728
 20
-87.27229486276102
 30
0.0
 40
0.18
 41
0.0
 71
     5
 72
     1
  1
\A1;230.0000
 73
     1
 44
1.0
  0
POINT
  5
33F
330
335
100
AcDbEntity
  8
Defpoints
 62
     0
100
AcDbPoint
 10
33.95867480092681
 20
27.72770513723896
 30
0.0
  0
POINT
  5
340
330
335
100
AcDbEntity
  8
Defpoints
 62
     0
100
AcDbPoint
 10
33.95867480092681
 20
-202.272294862761
 30
0.0
  0
POINT
  5
341
330
335
100
AcDbEntity
  8
Defpoints
 62
     0
100
AcDbPoint
 10
53.93969683401727
 20
-202.272294862761
 30
0.0
  0
ENDBLK
  5
337
330
335
100
AcDbEntity
  8
0
100
AcDbBlockEnd
  0
BLOCK
  5
346
330
345
100
AcDbEntity
  8
0
100
AcDbBlockBegin
  2
*D16
 70
     1
 10
0.0
 20
0.0
 30
0.0
  3
*D16
  1
*D16
  0
LINE
  5
348
330
345
100
AcDbEntity
  8
CUT
 62
     0
370
    -2
100
AcDbLine
 10
34.02117480092681
 20
27.66520513723896
 30
0.0
 11
34.02117480092681
 21
23.09327913452002
 31
0.0
  0
LINE
  5
349
330
345
100
AcDbEntity
  8
CUT
 62
     0
370
    -2
100
AcDbLine
 10
234.0212053604309
 20
27.66520513723893
 30
0.0
 11
234.0212053604309
 21
23.09327913452002
 31
0.0
  0
LINE
  5
34A
330
345
100
AcDbEntity
  8
CUT
 62
     0
370
    -2
100
AcDbLine
 10
34.20117480092681
 20
23.27327913452002
 30
0.0
 11
133.4171100806789
 21
23.27327913452002
 31
0.0
  0
LINE
  5
34B
330
345
100
AcDbEntity
  8
CUT
 62
     0
370
    -2
100
AcDbLine
 10
233.8412053604309
 20
23.27327913452002
 30
0.0
 11
134.6252700806789
 21
23.27327913452002
 31
0.0
  0
SOLID
  5
34C
330
345
100
AcDbEntity
  8
CUT
 62
     0
100
AcDbTrace
 10
34.20117480092681
 20
23.30327913452002
 30
0.0
 11
34.20117480092681
 21
23.24327913452002
 31
0.0
 12
34.02117480092681
 22
23.27327913452002
 32
0.0
 13
34.02117480092681
 23
23.27327913452002
 33
0.0
  0
SOLID
  5
34D
330
345
100
AcDbEntity
  8
CUT
 62
     0
100
AcDbTrace
 10
233.8412053604309
 20
23.24327913452002
 30
0.0
 11
233.8412053604309
 21
23.30327913452002
 31
0.0
 12
234.0212053604309
 22
23.27327913452002
 32
0.0
 13
234.0212053604309
 23
23.27327913452002
 33
0.0
  0
MTEXT
  5
34E
330
345
100
AcDbEntity
  8
CUT
 62
     0
100
AcDbMText
 10
134.0211900806788
 20
23.27327913452002
 30
0.0
 40
0.18
 41
0.0
 71
     5
 72
     1
  1
\A1;200.0000
 73
     1
 44
1.0
  0
POINT
  5
34F
330
345
100
AcDbEntity
  8
Defpoints
 62
     0
100
AcDbPoint
 10
34.02117480092681
 20
27.72770513723896
 30
0.0
  0
POINT
  5
350
330
345
100
AcDbEntity
  8
Defpoints
 62
     0
100
AcDbPoint
 10
234.0212053604309
 20
27.72770513723893
 30
0.0
  0
POINT
  5
351
330
345
100
AcDbEntity
  8
Defpoints
 62
     0
100
AcDbPoint
 10
234.0212053604309
 20
23.27327913452002
 30
0.0
  0
ENDBLK
  5
347
330
345
100
AcDbEntity
  8
0
100
AcDbBlockEnd
  0
ENDSEC
  0
SECTION
  2
ENTITIES
  0
LWPOLYLINE
  5
125
102
{ACAD_REACTORS
102
}
330
1F
100
AcDbEntity
  8
CUT
 62
     1
100
AcDbPolyline
 90
        5
 70
     0
 43
0.0
 10
0.458740080678723
 20
31.72770513723896
 10
264.4587400806787
 20
31.72770513723896
 10
264.4587400806787
 20
-206.272294862761
 10
0.4587400806786945
 20
-206.272294862761
 10
0.458740080678723
 20
31.72770513723896
  0
CIRCLE
  5
199
102
{ACAD_REACTORS
330
334
102
}
330
1F
100
AcDbEntity
  8
CUT
 62
     1
100
AcDbCircle
 10
33.95867480092681
 20
27.72770513723896
 30
0.0
 40
1.75
  0
CIRCLE
  5
19A
102
{ACAD_REACTORS
330
344
102
}
330
1F
100
AcDbEntity
  8
CUT
 62
     1
100
AcDbCircle
 10
234.0212053604309
 20
27.72770513723893
 30
0.0
 40
1.75
  0
CIRCLE
  5
1AC
102
{ACAD_REACTORS
330
334
102
}
330
1F
100
AcDbEntity
  8
CUT
 62
     1
100
AcDbCircle
 10
33.95867480092681
 20
-202.272294862761
 30
0.0
 40
1.75
  0
CIRCLE
  5
1AD
330
1F
100
AcDbEntity
  8
CUT
 62
     1
100
AcDbCircle
 10
234.0212053604309
 20
-202.2722948627611
 30
0.0
 40
1.75
  0
CIRCLE
  5
1DC
330
1F
100
AcDbEntity
  8
CUT
 62
     1
100
AcDbCircle
 10
23.45874008067869
 20
-191.7722948627612
 30
0.0
 40
1.75
  0
CIRCLE
  5
1DD
330
1F
100
AcDbEntity
  8
CUT
 62
     1
100
AcDbCircle
 10
23.45874008067869
 20
17.22770513723896
 30
0.0
 40
1.75
  0
CIRCLE
  5
1DE
330
1F
100
AcDbEntity
  8
CUT
 62
     1
100
AcDbCircle
 10
232.4587400806787
 20
-191.7722948627612
 30
0.0
 40
1.75
  0
CIRCLE
  5
1DF
330
1F
100
AcDbEntity
  8
CUT
 62
     1
100
AcDbCircle
 10
232.4587400806787
 20
17.22770513723896
 30
0.0
 40
1.75
  0
ENDSEC
  0
SECTION
  2
OBJECTS
  0
DICTIONARY
  5
C
330
0
100
AcDbDictionary
281
     1
  3
ACAD_DETAILVIEWSTYLE
350
122
  3
ACAD_GROUP
350
D
  3
ACAD_IMAGE_VARS
350
DC
  3
ACAD_LAYOUT
350
1A
  3
ACAD_MLINESTYLE
350
17
  3
ACAD_PLOTSETTINGS
350
19
  3
ACAD_PLOTSTYLENAME
350
E
  3
ACAD_SCALELIST
350
B6
  3
ACAD_SECTIONVIEWSTYLE
350
123
  3
AcDbVariableDictionary
350
66
  3
APPDATA
350
E1
  3
DWGPROPS
350
355
  0
DICTIONARY
  5
180
330
2
100
AcDbDictionary
280
     1
281
     1
  3
ACAD_LAYERSTATES
360
181
  3
ACLYDICTIONARY
360
297
  0
DICTIONARY
  5
122
102
{ACAD_REACTORS
330
C
102
}
330
C
100
AcDbDictionary
281
     1
  0
DICTIONARY
  5
D
102
{ACAD_REACTORS
330
C
102
}
330
C
100
AcDbDictionary
281
     1
  0
RASTERVARIABLES
  5
DC
102
{ACAD_REACTORS
330
C
102
}
330
C
100
AcDbRasterVariables
 90
        0
 70
     1
 71
     1
 72
     5
  0
DICTIONARY
  5
1A
102
{ACAD_REACTORS
330
C
102
}
330
C
100
AcDbDictionary
281
     1
  3
Model
350
22
  3
Sheet1
350
59
  3
Sheet2
350
5E
  0
DICTIONARY
  5
17
102
{ACAD_REACTORS
330
C
102
}
330
C
100
AcDbDictionary
281
     1
  3
Standard
350
18
  0
DICTIONARY
  5
19
102
{ACAD_REACTORS
330
C
102
}
330
C
100
AcDbDictionary
281
     1
  0
ACDBDICTIONARYWDFLT
  5
E
102
{ACAD_REACTORS
330
C
102
}
330
C
100
AcDbDictionary
281
     1
  3
Normal
350
F
100
AcDbDictionaryWithDefault
340
F
  0
DICTIONARY
  5
B6
102
{ACAD_REACTORS
330
C
102
}
330
C
100
AcDbDictionary
281
     1
  3
A0
350
B7
  3
A1
350
B8
  3
A2
350
B9
  3
A3
350
BA
  3
A4
350
BB
  3
A5
350
BC
  3
A6
350
BD
  3
A7
350
BE
  3
A8
350
BF
  3
A9
350
C0
  3
B0
350
C1
  3
B1
350
C2
  3
B2
350
C3
  3
B3
350
C4
  3
B4
350
C5
  3
B5
350
C6
  3
B6
350
C7
  3
B7
350
C8
  3
B8
350
C9
  3
B9
350
CA
  3
C0
350
CB
  3
C1
350
CC
  3
C2
350
CD
  3
C3
350
CE
  3
C4
350
CF
  3
C5
350
D0
  3
C6
350
D1
  3
C7
350
D2
  3
C8
350
D3
  3
C9
350
D4
  3
D0
350
D5
  3
D1
350
D6
  3
D2
350
D7
  0
DICTIONARY
  5
123
102
{ACAD_REACTORS
330
C
102
}
330
C
100
AcDbDictionary
281
     1
  0
DICTIONARY
  5
66
102
{ACAD_REACTORS
330
C
102
}
330
C
100
AcDbDictionary
281
     1
  3
DIMASSOC
350
67
  3
HIDETEXT
350
6B
  3
HPTRANSPARENCY
350
2DB
  0
DICTIONARY
  5
E1
102
{ACAD_REACTORS
330
C
102
}
330
C
100
AcDbDictionary
281
     1
  0
XRECORD
  5
355
102
{ACAD_REACTORS
330
C
102
}
330
C
100
AcDbXrecord
280
     1
  1
DWGPROPS COOKIE
  2

  3

  4

  6

  7

  8
Desarrollo
  9

300
=
301
=
302
=
303
=
304
=
305
=
306
=
307
=
308
=
309
=
 40
0.0
 41
2452643.063384271
 42
2457416.819474896
  1

 90
        0
  0
DICTIONARY
  5
181
102
{ACAD_REACTORS
330
180
102
}
330
180
100
AcDbDictionary
281
     1
  3
ARGON_LAYERP_1
350
289
  3
ARGON_LAYERP_2
350
28A
  3
ARGON_LAYERP_3
350
28B
  3
ARGON_LAYERP_4
350
28E
  3
ARGON_LAYERP_5
350
28F
  3
ARGON_LAYERP_6
350
291
  3
ARGON_LAYERP_7
350
293
  3
ARGON_LAYERP_8
350
294
  3
ARGON_LAYERP_9
350
296
  0
DICTIONARY
  5
297
102
{ACAD_REACTORS
330
180
102
}
330
180
100
AcDbDictionary
281
     1
1001
ACAD
1000
<All
  0
LAYOUT
  5
22
102
{ACAD_REACTORS
330
1A
102
}
330
1A
100
AcDbPlotSettings
  1

  2
none_device
  4
ANSI_A_(8.50_x_11.00_Inches)
  6

 40
6.35
 41
19.05
 42
6.35
 43
19.05
 44
215.9
 45
279.4
 46
11.11250000000003
 47
0.0000000000000142
 48
0.0
 49
0.0
140
0.0
141
0.0
142
1.0
143
1.263157894736842
 70
 11444
 72
     0
 73
     1
 74
     1
  7
monochrome.ctb
 75
     0
147
0.7916666666666665
148
-702.8076765758875
149
-496.2830551296954
100
AcDbLayout
  1
Model
 70
     1
 71
     0
 10
0.0
 20
0.0
 11
12.0
 21
9.0
 12
0.0
 22
0.0
 32
0.0
 14
0.4587400806786945
 24
-206.272294862761
 34
0.0
 15
264.4587400806787
 25
31.72770513723896
 35
0.0
146
0.0
 13
0.0
 23
0.0
 33
0.0
 16
1.0
 26
0.0
 36
0.0
 17
0.0
 27
1.0
 37
0.0
 76
     0
330
1F
331
94
  0
LAYOUT
  5
59
102
{ACAD_REACTORS
330
1A
102
}
330
1A
100
AcDbPlotSettings
  1

  2
None
  4

  6

 40
0.0
 41
0.0
 42
0.0
 43
0.0
 44
0.0
 45
0.0
 46
0.0
 47
0.0
 48
0.0
 49
0.0
140
0.0
141
0.0
142
1.0
143
1.0
 70
   688
 72
     0
 73
     0
 74
     5
  7

 75
    16
147
1.0
148
0.0
149
0.0
100
AcDbLayout
  1
Sheet1
 70
     1
 71
     1
 10
0.0
 20
0.0
 11
12.0
 21
9.0
 12
0.0
 22
0.0
 32
0.0
 14
0.0
 24
0.0
 34
0.0
 15
0.0
 25
0.0
 35
0.0
146
0.0
 13
0.0
 23
0.0
 33
0.0
 16
1.0
 26
0.0
 36
0.0
 17
0.0
 27
1.0
 37
0.0
 76
     0
330
58
  0
LAYOUT
  5
5E
102
{ACAD_REACTORS
330
1A
102
}
330
1A
100
AcDbPlotSettings
  1

  2
None
  4

  6

 40
0.0
 41
0.0
 42
0.0
 43
0.0
 44
0.0
 45
0.0
 46
0.0
 47
0.0
 48
0.0
 49
0.0
140
0.0
141
0.0
142
1.0
143
1.0
 70
   688
 72
     0
 73
     0
 74
     5
  7

 75
    16
147
1.0
148
0.0
149
0.0
100
AcDbLayout
  1
Sheet2
 70
     1
 71
     2
 10
0.0
 20
0.0
 11
12.0
 21
9.0
 12
0.0
 22
0.0
 32
0.0
 14
0.0
 24
0.0
 34
0.0
 15
0.0
 25
0.0
 35
0.0
146
0.0
 13
0.0
 23
0.0
 33
0.0
 16
1.0
 26
0.0
 36
0.0
 17
0.0
 27
1.0
 37
0.0
 76
     0
330
5D
  0
MLINESTYLE
  5
18
102
{ACAD_REACTORS
330
17
102
}
330
17
100
AcDbMlineStyle
  2
STANDARD
 70
     0
  3

 62
   256
 51
90.0
 52
90.0
 71
     2
 49
0.5
 62
   256
  6
BYLAYER
 49
-0.5
 62
   256
  6
BYLAYER
  0
ACDBPLACEHOLDER
  5
F
102
{ACAD_REACTORS
330
E
102
}
330
E
  0
SCALE
  5
B7
102
{ACAD_REACTORS
330
B6
102
}
330
B6
100
AcDbScale
 70
     0
300
1:1
140
1.0
141
1.0
290
     1
  0
SCALE
  5
B8
102
{ACAD_REACTORS
330
B6
102
}
330
B6
100
AcDbScale
 70
     0
300
1:2
140
1.0
141
2.0
290
     0
  0
SCALE
  5
B9
102
{ACAD_REACTORS
330
B6
102
}
330
B6
100
AcDbScale
 70
     0
300
1:4
140
1.0
141
4.0
290
     0
  0
SCALE
  5
BA
102
{ACAD_REACTORS
330
B6
102
}
330
B6
100
AcDbScale
 70
     0
300
1:5
140
1.0
141
5.0
290
     0
  0
SCALE
  5
BB
102
{ACAD_REACTORS
330
B6
102
}
330
B6
100
AcDbScale
 70
     0
300
1:8
140
1.0
141
8.0
290
     0
  0
SCALE
  5
BC
102
{ACAD_REACTORS
330
B6
102
}
330
B6
100
AcDbScale
 70
     0
300
1:10
140
1.0
141
10.0
290
     0
  0
SCALE
  5
BD
102
{ACAD_REACTORS
330
B6
102
}
330
B6
100
AcDbScale
 70
     0
300
1:16
140
1.0
141
16.0
290
     0
  0
SCALE
  5
BE
102
{ACAD_REACTORS
330
B6
102
}
330
B6
100
AcDbScale
 70
     0
300
1:20
140
1.0
141
20.0
290
     0
  0
SCALE
  5
BF
102
{ACAD_REACTORS
330
B6
102
}
330
B6
100
AcDbScale
 70
     0
300
1:30
140
1.0
141
30.0
290
     0
  0
SCALE
  5
C0
102
{ACAD_REACTORS
330
B6
102
}
330
B6
100
AcDbScale
 70
     0
300
1:40
140
1.0
141
40.0
290
     0
  0
SCALE
  5
C1
102
{ACAD_REACTORS
330
B6
102
}
330
B6
100
AcDbScale
 70
     0
300
1:50
140
1.0
141
50.0
290
     0
  0
SCALE
  5
C2
102
{ACAD_REACTORS
330
B6
102
}
330
B6
100
AcDbScale
 70
     0
300
1:100
140
1.0
141
100.0
290
     0
  0
SCALE
  5
C3
102
{ACAD_REACTORS
330
B6
102
}
330
B6
100
AcDbScale
 70
     0
300
2:1
140
2.0
141
1.0
290
     0
  0
SCALE
  5
C4
102
{ACAD_REACTORS
330
B6
102
}
330
B6
100
AcDbScale
 70
     0
300
4:1
140
4.0
141
1.0
290
     0
  0
SCALE
  5
C5
102
{ACAD_REACTORS
330
B6
102
}
330
B6
100
AcDbScale
 70
     0
300
8:1
140
8.0
141
1.0
290
     0
  0
SCALE
  5
C6
102
{ACAD_REACTORS
330
B6
102
}
330
B6
100
AcDbScale
 70
     0
300
10:1
140
10.0
141
1.0
290
     0
  0
SCALE
  5
C7
102
{ACAD_REACTORS
330
B6
102
}
330
B6
100
AcDbScale
 70
     0
300
100:1
140
100.0
141
1.0
290
     0
  0
SCALE
  5
C8
102
{ACAD_REACTORS
330
B6
102
}
330
B6
100
AcDbScale
 70
     0
300
1/128" = 1'-0"
140
0.0078125
141
12.0
290
     0
  0
SCALE
  5
C9
102
{ACAD_REACTORS
330
B6
102
}
330
B6
100
AcDbScale
 70
     0
300
1/64" = 1'-0"
140
0.015625
141
12.0
290
     0
  0
SCALE
  5
CA
102
{ACAD_REACTORS
330
B6
102
}
330
B6
100
AcDbScale
 70
     0
300
1/32" = 1'-0"
140
0.03125
141
12.0
290
     0
  0
SCALE
  5
CB
102
{ACAD_REACTORS
330
B6
102
}
330
B6
100
AcDbScale
 70
     0
300
1/16" = 1'-0"
140
0.0625
141
12.0
290
     0
  0
SCALE
  5
CC
102
{ACAD_REACTORS
330
B6
102
}
330
B6
100
AcDbScale
 70
     0
300
3/32" = 1'-0"
140
0.09375
141
12.0
290
     0
  0
SCALE
  5
CD
102
{ACAD_REACTORS
330
B6
102
}
330
B6
100
AcDbScale
 70
     0
300
1/8" = 1'-0"
140
0.125
141
12.0
290
     0
  0
SCALE
  5
CE
102
{ACAD_REACTORS
330
B6
102
}
330
B6
100
AcDbScale
 70
     0
300
3/16" = 1'-0"
140
0.1875
141
12.0
290
     0
  0
SCALE
  5
CF
102
{ACAD_REACTORS
330
B6
102
}
330
B6
100
AcDbScale
 70
     0
300
1/4" = 1'-0"
140
0.25
141
12.0
290
     0
  0
SCALE
  5
D0
102
{ACAD_REACTORS
330
B6
102
}
330
B6
100
AcDbScale
 70
     0
300
3/8" = 1'-0"
140
0.375
141
12.0
290
     0
  0
SCALE
  5
D1
102
{ACAD_REACTORS
330
B6
102
}
330
B6
100
AcDbScale
 70
     0
300
1/2" = 1'-0"
140
0.5
141
12.0
290
     0
  0
SCALE
  5
D2
102
{ACAD_REACTORS
330
B6
102
}
330
B6
100
AcDbScale
 70
     0
300
3/4" = 1'-0"
140
0.75
141
12.0
290
     0
  0
SCALE
  5
D3
102
{ACAD_REACTORS
330
B6
102
}
330
B6
100
AcDbScale
 70
     0
300
1" = 1'-0"
140
1.0
141
12.0
290
     0
  0
SCALE
  5
D4
102
{ACAD_REACTORS
330
B6
102
}
330
B6
100
AcDbScale
 70
     0
300
1-1/2" = 1'-0"
140
1.5
141
12.0
290
     0
  0
SCALE
  5
D5
102
{ACAD_REACTORS
330
B6
102
}
330
B6
100
AcDbScale
 70
     0
300
3" = 1'-0"
140
3.0
141
12.0
290
     0
  0
SCALE
  5
D6
102
{ACAD_REACTORS
330
B6
102
}
330
B6
100
AcDbScale
 70
     0
300
6" = 1'-0"
140
6.0
141
12.0
290
     0
  0
SCALE
  5
D7
102
{ACAD_REACTORS
330
B6
102
}
330
B6
100
AcDbScale
 70
     0
300
1'-0" = 1'-0"
140
12.0
141
12.0
290
     0
  0
DICTIONARYVAR
  5
67
102
{ACAD_REACTORS
330
66
102
}
330
66
100
DictionaryVariables
280
     0
  1
2
  0
DICTIONARYVAR
  5
6B
102
{ACAD_REACTORS
330
66
102
}
330
66
100
DictionaryVariables
280
     0
  1
1
  0
DICTIONARYVAR
  5
2DB
102
{ACAD_REACTORS
330
66
102
}
330
66
100
DictionaryVariables
280
     0
  1
ByLayer
  0
XRECORD
  5
289
102
{ACAD_REACTORS
330
181
102
}
330
181
100
AcDbXrecord
280
     1
 91
     1023
301

290
     0
302
0
330
10
 90
        8
 62
     7
370
    -3
331
16
  1
Normal
330
126
 90
        0
 62
     7
370
    -3
331
16
  1
Normal
330
0
 90
        8
 62
   253
370
    -3
331
16
  1
Normal
330
1B1
 90
        8
 62
     1
370
    -3
331
16
  1
Normal
  0
XRECORD
  5
28A
102
{ACAD_REACTORS
330
181
102
}
330
181
100
AcDbXrecord
280
     1
 91
     1023
301

290
     0
302
CAMA ALUMINIO 12MM
330
10
 90
        8
 62
     7
370
    -3
331
16
  1
Normal
330
126
 90
        0
 62
     7
370
    -3
331
16
  1
Normal
330
0
 90
        8
 62
   253
370
    -3
331
16
  1
Normal
330
1B1
 90
        8
 62
     1
370
    -3
331
16
  1
Normal
  0
XRECORD
  5
28B
102
{ACAD_REACTORS
330
181
102
}
330
181
100
AcDbXrecord
280
     1
 91
     1023
301

290
     0
302
CAMA ALUMINIO 12MM
330
10
 90
        8
 62
     7
370
    -3
331
16
  1
Normal
330
126
 90
        0
 62
     7
370
    -3
331
16
  1
Normal
330
0
 90
        8
 62
   253
370
    -3
331
16
  1
Normal
330
1B1
 90
        9
 62
     1
370
    -3
331
16
  1
Normal
  0
XRECORD
  5
28E
102
{ACAD_REACTORS
330
181
102
}
330
181
100
AcDbXrecord
280
     1
 91
     1023
301

290
     0
302
CAMA ALUMINIO 12MM
330
10
 90
        8
 62
     7
370
    -3
331
16
  1
Normal
330
126
 90
        0
 62
     7
370
    -3
331
16
  1
Normal
330
0
 90
        8
 62
   253
370
    -3
331
16
  1
Normal
330
1B1
 90
        8
 62
     1
370
    -3
331
16
  1
Normal
  0
XRECORD
  5
28F
102
{ACAD_REACTORS
330
181
102
}
330
181
100
AcDbXrecord
280
     1
 91
     1023
301

290
     0
302
CAMA ALUMINIO 12MM
330
10
 90
        8
 62
     7
370
    -3
331
16
  1
Normal
330
126
 90
        0
 62
     7
370
    -3
331
16
  1
Normal
330
0
 90
        8
 62
   253
370
    -3
331
16
  1
Normal
330
1B1
 90
        9
 62
     1
370
    -3
331
16
  1
Normal
  0
XRECORD
  5
291
102
{ACAD_REACTORS
330
181
102
}
330
181
100
AcDbXrecord
280
     1
 91
     1023
301

290
     0
302
CAMA ALUMINIO 12MM
330
10
 90
        8
 62
     7
370
    -3
331
16
  1
Normal
330
126
 90
        0
 62
     7
370
    -3
331
16
  1
Normal
330
0
 90
        8
 62
   253
370
    -3
331
16
  1
Normal
330
1B1
 90
        8
 62
     1
370
    -3
331
16
  1
Normal
  0
XRECORD
  5
293
102
{ACAD_REACTORS
330
181
102
}
330
181
100
AcDbXrecord
280
     1
 91
     1023
301

290
     0
302
CAMA ALUMINIO 12MM
330
10
 90
        8
 62
     7
370
    -3
331
16
  1
Normal
330
126
 90
        0
 62
     7
370
    -3
331
16
  1
Normal
330
0
 90
        8
 62
   253
370
    -3
331
16
  1
Normal
330
1B1
 90
        8
 62
     1
370
    -3
331
16
  1
Normal
  0
XRECORD
  5
294
102
{ACAD_REACTORS
330
181
102
}
330
181
100
AcDbXrecord
280
     1
 91
     1023
301

290
     0
302
Defpoints
330
10
 90
        8
 62
     7
370
    -3
331
16
  1
Normal
330
126
 90
        0
 62
     7
370
    -3
331
16
  1
Normal
330
0
 90
        8
 62
   253
370
    -3
331
16
  1
Normal
330
1B1
 90
        8
 62
     1
370
    -3
331
16
  1
Normal
  0
XRECORD
  5
296
102
{ACAD_REACTORS
330
181
102
}
330
181
100
AcDbXrecord
280
     1
 91
     1023
301

290
     0
302
CUT
330
10
 90
        8
 62
     7
370
    -3
331
16
  1
Normal
330
126
 90
        0
 62
     7
370
    -3
331
16
  1
Normal
330
0
 90
        8
 62
   253
370
    -3
331
16
  1
Normal
330
1B1
 90
        8
 62
     1
370
    -3
331
16
  1
Normal
  0
ENDSEC
  0
EOF
